<?xml version="1.0" standalone="no"?>
<!DOCTYPE svg PUBLIC "-//W3C//DTD SVG 1.1//EN" "http://www.w3.org/Graphics/SVG/1.1/DTD/svg11.dtd" >
<svg xmlns="http://www.w3.org/2000/svg" xmlns:xlink="http://www.w3.org/1999/xlink" version="1.1">
<metadata>
Created by FontForge 20170731 at Thu Nov 16 19:53:43 2017
 By Aleksey,,,
Copyright 2017 Production Systems SAS - All rights reserved - End-User License Agreement:  http://www.productiontype.com/license
</metadata>
<defs>
<font id="Wigrum-Black" horiz-adv-x="600" >
  <font-face 
    font-family="Wigrum Black"
    font-weight="900"
    font-stretch="normal"
    units-per-em="1000"
    panose-1="2 0 0 0 0 0 0 0 0 0"
    ascent="785"
    descent="-215"
    x-height="500"
    cap-height="700"
    bbox="-190 -259 1435 1106"
    underline-thickness="158"
    underline-position="-417"
    unicode-range="U+000D-FB06"
  />
<missing-glyph horiz-adv-x="500" 
d="M50 0v700h400v-700h-400zM99 670l151 -289l151 289h-302zM80 643v-586l154 293zM267 350l153 -293v586zM99 30h302l-151 289z" />
    <glyph glyph-name="f_f" unicode="ff" horiz-adv-x="820" 
d="M85 0v372h-65v128h65v30q0 85 56 133.5t147 48.5q49 0 92 -12v-145q-22 9 -49 9q-31 0 -50.5 -15t-19.5 -39v-10h234v30q0 85 56 133.5t147 48.5q49 0 92 -12v-145q-22 9 -49 9q-31 0 -50.5 -15t-19.5 -39v-10h109v-128h-109v-372h-176v372h-234v-372h-176z" />
    <glyph glyph-name="fi" unicode="fi" horiz-adv-x="706" 
d="M470 550v165h176v-165h-176zM85 0v372h-65v128h65v30q0 85 56 133.5t147 48.5q49 0 92 -12v-145q-22 9 -49 9q-31 0 -50.5 -15t-19.5 -39v-10h109v-128h-109v-372h-176zM470 0v500h176v-500h-176z" />
    <glyph glyph-name="fl" unicode="fl" horiz-adv-x="706" 
d="M470 0v715h176v-715h-176zM85 0v372h-65v128h65v30q0 85 56 133.5t147 48.5q49 0 92 -12v-145q-22 9 -49 9q-31 0 -50.5 -15t-19.5 -39v-10h109v-128h-109v-372h-176z" />
    <glyph glyph-name="f_f_i" unicode="ffi" horiz-adv-x="1116" 
d="M880 550v165h176v-165h-176zM85 0v372h-65v128h65v30q0 85 56 133.5t147 48.5q49 0 92 -12v-145q-22 9 -49 9q-31 0 -50.5 -15t-19.5 -39v-10h234v30q0 85 56 133.5t147 48.5q49 0 92 -12v-145q-22 9 -49 9q-31 0 -50.5 -15t-19.5 -39v-10h109v-128h-109v-372h-176v372
h-234v-372h-176zM880 0v500h176v-500h-176z" />
    <glyph glyph-name="f_f_l" unicode="ffl" horiz-adv-x="1116" 
d="M880 0v715h176v-715h-176zM85 0v372h-65v128h65v30q0 85 56 133.5t147 48.5q49 0 92 -12v-145q-22 9 -49 9q-31 0 -50.5 -15t-19.5 -39v-10h234v30q0 85 56 133.5t147 48.5q49 0 92 -12v-145q-22 9 -49 9q-31 0 -50.5 -15t-19.5 -39v-10h109v-128h-109v-372h-176v372
h-234v-372h-176z" />
    <glyph glyph-name="f_b" unicode="fb" horiz-adv-x="1065" 
d="M785 -12q-104 0 -149 62l-20 -50h-146v715h176v-260q57 57 149 57q41 0 80 -14.5t73.5 -43.5t55.5 -82t21 -122q0 -124 -72.5 -193t-167.5 -69zM85 0v372h-65v128h65v30q0 85 56 133.5t147 48.5q49 0 92 -12v-145q-22 9 -49 9q-31 0 -50.5 -15t-19.5 -39v-10h109v-128
h-109v-372h-176zM747 140q44 0 73 29.5t29 80.5t-29 80.5t-73 29.5q-43 0 -72 -29.5t-29 -80.5t29 -80.5t72 -29.5z" />
    <glyph glyph-name="f_f_b" unicode="ffb" horiz-adv-x="1475" 
d="M1195 -12q-104 0 -149 62l-20 -50h-146v715h176v-260q57 57 149 57q41 0 80 -14.5t73.5 -43.5t55.5 -82t21 -122q0 -124 -72.5 -193t-167.5 -69zM85 0v372h-65v128h65v30q0 85 56 133.5t147 48.5q49 0 92 -12v-145q-22 9 -49 9q-31 0 -50.5 -15t-19.5 -39v-10h234v30
q0 85 56 133.5t147 48.5q49 0 92 -12v-145q-22 9 -49 9q-31 0 -50.5 -15t-19.5 -39v-10h109v-128h-109v-372h-176v372h-234v-372h-176zM1157 140q44 0 73 29.5t29 80.5t-29 80.5t-73 29.5q-43 0 -72 -29.5t-29 -80.5t29 -80.5t72 -29.5z" />
    <glyph glyph-name="f_h" unicode="fh" horiz-adv-x="1011" 
d="M470 0v715h176v-249q49 46 148 46q70 0 117.5 -47t47.5 -139v-326h-176v289q0 32 -18 50t-48 18q-29 0 -50 -23.5t-21 -68.5v-265h-176zM85 0v372h-65v128h65v30q0 85 56 133.5t147 48.5q49 0 92 -12v-145q-22 9 -49 9q-31 0 -50.5 -15t-19.5 -39v-10h109v-128h-109v-372
h-176z" />
    <glyph glyph-name="f_f_h" unicode="ffh" horiz-adv-x="1421" 
d="M880 0v715h176v-249q49 46 148 46q70 0 117.5 -47t47.5 -139v-326h-176v289q0 32 -18 50t-48 18q-29 0 -50 -23.5t-21 -68.5v-265h-176zM85 0v372h-65v128h65v30q0 85 56 133.5t147 48.5q49 0 92 -12v-145q-22 9 -49 9q-31 0 -50.5 -15t-19.5 -39v-10h234v30
q0 85 56 133.5t147 48.5q49 0 92 -12v-145q-22 9 -49 9q-31 0 -50.5 -15t-19.5 -39v-10h109v-128h-109v-372h-176v372h-234v-372h-176z" />
    <glyph glyph-name="f_j" unicode="fj" horiz-adv-x="707" 
d="M470 550v165h177v-165h-177zM85 0v372h-65v128h65v30q0 85 56 133.5t147 48.5q49 0 92 -12v-145q-22 9 -49 9q-31 0 -50.5 -15t-19.5 -39v-10h109v-128h-109v-372h-176zM470 -212v712h177v-682z" />
    <glyph glyph-name="f_f_j" unicode="ffj" horiz-adv-x="1117" 
d="M880 550v165h177v-165h-177zM85 0v372h-65v128h65v30q0 85 56 133.5t147 48.5q49 0 92 -12v-145q-22 9 -49 9q-31 0 -50.5 -15t-19.5 -39v-10h234v30q0 85 56 133.5t147 48.5q49 0 92 -12v-145q-22 9 -49 9q-31 0 -50.5 -15t-19.5 -39v-10h109v-128h-109v-372h-176v372
h-234v-372h-176zM880 -212v712h177v-682z" />
    <glyph glyph-name="f_k" unicode="fk" horiz-adv-x="1006" 
d="M470 0v715h176v-368l125 153h210l-206 -228l216 -272h-222l-123 170v-170h-176zM85 0v372h-65v128h65v30q0 85 56 133.5t147 48.5q49 0 92 -12v-145q-22 9 -49 9q-31 0 -50.5 -15t-19.5 -39v-10h109v-128h-109v-372h-176z" />
    <glyph glyph-name="f_f_k" unicode="ffk" horiz-adv-x="1416" 
d="M880 0v715h176v-368l125 153h210l-206 -228l216 -272h-222l-123 170v-170h-176zM85 0v372h-65v128h65v30q0 85 56 133.5t147 48.5q49 0 92 -12v-145q-22 9 -49 9q-31 0 -50.5 -15t-19.5 -39v-10h234v30q0 85 56 133.5t147 48.5q49 0 92 -12v-145q-22 9 -49 9
q-31 0 -50.5 -15t-19.5 -39v-10h109v-128h-109v-372h-176v372h-234v-372h-176z" />
    <glyph glyph-name="f_t" unicode="ft" horiz-adv-x="804" 
d="M507 372h-246v-372h-176v372h-65v128h65v30q0 85 56 133.5t147 48.5q49 0 92 -12v-145q-22 9 -49 9q-31 0 -50.5 -15t-19.5 -39v-10h246v130l176 33v-163h101v-128h-101v-372h-176v372z" />
    <glyph glyph-name="f_f_t" unicode="fft" horiz-adv-x="1214" 
d="M917 630l176 33v-163h101v-128h-101v-372h-176v372h-246v-372h-176v372h-234v-372h-176v372h-65v128h65v30q0 85 56 133.5t147 48.5q49 0 92 -12v-145q-22 9 -49 9q-31 0 -50.5 -15t-19.5 -39v-10h234v30q0 85 56 133.5t147 48.5q49 0 92 -12v-145q-22 9 -49 9
q-31 0 -50.5 -15t-19.5 -39v-10h246v130z" />
    <glyph glyph-name=".notdef" horiz-adv-x="500" 
d="M50 0v700h400v-700h-400zM99 670l151 -289l151 289h-302zM80 643v-586l154 293zM267 350l153 -293v586zM99 30h302l-151 289z" />
    <glyph glyph-name=".null" horiz-adv-x="0" 
 />
    <glyph glyph-name=".null" horiz-adv-x="0" 
 />
    <glyph glyph-name="nonmarkingreturn" horiz-adv-x="333" 
 />
    <glyph glyph-name="CR" unicode="&#xd;" horiz-adv-x="250" 
 />
    <glyph glyph-name="space" unicode=" " horiz-adv-x="248" 
 />
    <glyph glyph-name="exclam" unicode="!" horiz-adv-x="303" 
d="M68 220v480h167v-480h-167zM62 0v154h179v-154h-179z" />
    <glyph glyph-name="quotedbl" unicode="&#x22;" horiz-adv-x="537" 
d="M65 431v269h166v-269h-166zM306 431v269h166v-269h-166z" />
    <glyph glyph-name="numbersign" unicode="#" 
d="M0 170v150h105l13 60h-78v150h108l35 170h159l-35 -170h59l35 170h159l-35 -170h75v-150h-105l-13 -60h78v-150h-108l-35 -170h-159l35 170h-59l-35 -170h-159l35 170h-75zM264 320h59l13 60h-59z" />
    <glyph glyph-name="dollar" unicode="$" 
d="M219 -110v107q-136 33 -189 183l153 65q15 -46 48.5 -72t74.5 -26q70 0 70 53q0 22 -15 38.5t-56 36.5l-103 51q-123 62 -123 200q0 63 37 108t103 65v111h176v-108q90 -26 121 -110l-147 -76q-19 42 -57 42q-40 0 -40 -32q0 -26 38 -46l105 -55q79 -41 114.5 -92.5
t35.5 -129.5q0 -68 -45.5 -124t-124.5 -79v-110h-176z" />
    <glyph glyph-name="percent" unicode="%" horiz-adv-x="1000" 
d="M226 7l446 747l101 -61l-446 -746zM193 293q-85 0 -131 55.5t-46 151.5t46 151.5t131 55.5q84 0 130.5 -56t46.5 -151t-46.5 -151t-130.5 -56zM193 396q53 0 53 104t-53 104t-53 -104t53 -104zM767 -7q-85 0 -131 55.5t-46 151.5t46 151.5t131 55.5q84 0 130.5 -56
t46.5 -151t-46.5 -151t-130.5 -56zM767 96q53 0 53 104t-53 104t-53 -104t53 -104z" />
    <glyph glyph-name="ampersand" unicode="&#x26;" horiz-adv-x="730" 
d="M305 -12q-123 0 -199 61.5t-76 163.5q0 136 128 206q-69 49 -69 126q0 69 59 118t147 49t147.5 -48.5t59.5 -115.5q0 -120 -112 -178l73 -80q1 26 -4 68h164q20 -123 -27 -213l134 -145h-203l-39 41q-91 -53 -183 -53zM295 482q24 0 39.5 15.5t15.5 36.5t-16 37t-39 16
t-39 -16t-16 -37t16 -36.5t39 -15.5zM305 139q43 0 75 16l-140 146q-34 -32 -34 -73q0 -40 28.5 -64.5t70.5 -24.5z" />
    <glyph glyph-name="quotesingle" unicode="'" horiz-adv-x="296" 
d="M65 431v269h166v-269h-166z" />
    <glyph glyph-name="parenleft" unicode="(" horiz-adv-x="380" 
d="M239 -215q-95 104 -147 239.5t-52 265.5q0 131 52 266t149 239l139 -95q-163 -188 -163 -410q0 -218 162 -410z" />
    <glyph glyph-name="parenright" unicode=")" horiz-adv-x="380" 
d="M139 -215l-139 95q163 188 163 410q0 218 -162 410l140 95q95 -104 147 -239.5t52 -265.5q0 -131 -52 -266t-149 -239z" />
    <glyph glyph-name="asterisk" unicode="*" horiz-adv-x="468" 
d="M177 324l15 115l-92 -70l-57 98l107 45l-107 45l57 98l92 -70l-15 115h114l-15 -116l92 71l57 -98l-108 -45l108 -45l-57 -98l-92 70l15 -115h-114z" />
    <glyph glyph-name="plus" unicode="+" 
d="M222 115v157h-157v156h157v157h156v-157h157v-156h-157v-157h-156z" />
    <glyph glyph-name="comma" unicode="," horiz-adv-x="273" 
d="M12 -130l58 286h180l-116 -286h-122z" />
    <glyph glyph-name="hyphen" unicode="-" horiz-adv-x="450" 
d="M60 179v150h330v-150h-330z" />
    <glyph glyph-name="period" unicode="." horiz-adv-x="303" 
d="M65 0v154h173v-154h-173z" />
    <glyph glyph-name="slash" unicode="/" horiz-adv-x="586" 
d="M-10 -35l415 770h191l-416 -770h-190z" />
    <glyph glyph-name="zero" unicode="0" 
d="M300 -12q-135 0 -210 95.5t-75 266.5t75 266.5t210 95.5t210 -95.5t75 -266.5t-75 -266.5t-210 -95.5zM300 150q100 0 100 200t-100 200t-100 -200t100 -200z" />
    <glyph glyph-name="one" unicode="1" 
d="M515 150v-150h-425v150h120v360l-120 -60v168l140 82h165v-550h120z" />
    <glyph glyph-name="two" unicode="2" 
d="M47 0v152l203 193q4 4 17 16t17 16t14.5 14t14 14.5t11 13.5t10.5 14t6.5 12.5t5 14t1.5 13.5q0 28 -18.5 47t-46.5 19t-45.5 -23.5t-23.5 -55.5l-162 48q17 88 77 146t170 58q103 0 168.5 -61t65.5 -151q0 -68 -23.5 -116t-75.5 -100l-129 -130h243v-154h-500z" />
    <glyph glyph-name="three" unicode="3" 
d="M544 232q0 -110 -73.5 -177t-191.5 -67q-110 0 -173.5 49t-85.5 131l168 59q7 -30 30.5 -51.5t55.5 -21.5q39 0 62 22t23 56q0 27 -20.5 51t-59.5 29l-101 12v115l112 107h-225v154h444v-144l-134 -120q77 -19 123 -73.5t46 -130.5z" />
    <glyph glyph-name="four" unicode="4" 
d="M295 0v118h-285v141l300 441h170v-433h95v-149h-95v-118h-185zM166 267h129v181z" />
    <glyph glyph-name="five" unicode="5" 
d="M295 -12q-106 0 -171.5 48t-83.5 128l161 54q23 -64 94 -64q35 0 60 23.5t25 59.5q0 37 -25 60t-60 23q-62 0 -88 -46l-153 26l44 400h409v-164h-269l-17 -97q42 35 117 35q103 0 165 -68t62 -175q0 -104 -77.5 -173.5t-192.5 -69.5z" />
    <glyph glyph-name="six" unicode="6" 
d="M305 -12q-105 0 -181 68.5t-76 175.5q0 80 45 155l185 313h212l-161 -229q7 1 21 1q90 0 151 -66t61 -166q0 -109 -73.5 -180.5t-183.5 -71.5zM305 144q32 0 52 27t20 66t-20 65.5t-52 26.5t-52 -26.5t-20 -65.5t20 -66t52 -27z" />
    <glyph glyph-name="seven" unicode="7" 
d="M94 0l261 546h-258v154h451v-144l-256 -556h-198z" />
    <glyph glyph-name="eight" unicode="8" 
d="M299 -12q-114 0 -186 65.5t-72 168.5q0 58 29 104t67 65q-22 14 -40 49.5t-18 71.5q0 90 63.5 145t156.5 55q96 0 158 -51t62 -146q0 -34 -16.5 -70t-41.5 -53q97 -56 97 -170q0 -98 -73 -166t-186 -68zM299 461q21 0 34 15t13 36t-13.5 36t-33.5 15q-21 0 -34 -15
t-13 -36t13 -36t34 -15zM299 142q33 0 53 23t20 57t-20 57t-53 23q-34 0 -54 -23t-20 -57t20 -57t54 -23z" />
    <glyph glyph-name="nine" unicode="9" 
d="M110 0l155 235h-14q-92 0 -150 66.5t-58 163.5q0 107 76 177t181 70t181 -70t76 -177q0 -79 -45 -152l-190 -313h-212zM300 371q32 0 52 26.5t20 65.5t-20 66t-52 27t-52 -27t-20 -66t20 -65.5t52 -26.5z" />
    <glyph glyph-name="colon" unicode=":" horiz-adv-x="303" 
d="M65 346v154h173v-154h-173zM65 0v154h173v-154h-173z" />
    <glyph glyph-name="semicolon" unicode=";" horiz-adv-x="273" 
d="M68 346v154h173v-154h-173zM12 -130l58 286h180l-116 -286h-122z" />
    <glyph glyph-name="less" unicode="&#x3c;" 
d="M535 70l-470 195v170l470 195v-173l-295 -104l295 -105v-178z" />
    <glyph glyph-name="equal" unicode="=" 
d="M65 398v156h470v-156h-470zM65 146v156h470v-156h-470z" />
    <glyph glyph-name="greater" unicode="&#x3e;" 
d="M65 630l470 -195v-170l-470 -195v173l295 104l-295 105v178z" />
    <glyph glyph-name="question" unicode="?" horiz-adv-x="538" 
d="M182 220v191l83 14q67 11 67 60q0 26 -21 44t-52 18q-29 0 -50 -17.5t-29 -47.5l-160 45q21 85 86.5 135t153.5 50q109 0 178.5 -60t69.5 -157q0 -75 -42.5 -128.5t-120.5 -75.5v-71h-163zM174 0v154h179v-154h-179z" />
    <glyph glyph-name="at" unicode="@" horiz-adv-x="908" 
d="M463 -117q-194 0 -309.5 113t-113.5 288q2 174 121 289t307 115q172 0 286 -100.5t114 -258.5q0 -112 -53 -180.5t-130 -68.5q-37 0 -66 17.5t-44 47.5q-54 -65 -136 -65q-90 0 -150.5 57.5t-60.5 147.5q0 96 58.5 150.5t149.5 54.5q66 0 111 -47l11 38h102v-218
q0 -26 10 -42t27 -16q21 0 36.5 34.5t15.5 90.5q0 104 -80 177.5t-200 73.5q-129 0 -218.5 -88t-90.5 -209q-1 -123 84.5 -208t218.5 -85q60 0 104.5 13.5t95.5 40.5l56 -90q-115 -72 -256 -72zM445 205q32 0 54 23.5t22 56.5t-22 56.5t-54 23.5q-33 0 -55 -23.5t-22 -56.5
t22 -56.5t55 -23.5z" />
    <glyph glyph-name="A" unicode="A" horiz-adv-x="692" 
d="M505 0l-42 125h-234l-43 -125h-186l261 700h175l256 -700h-187zM285 289h122l-61 180z" />
    <glyph glyph-name="B" unicode="B" horiz-adv-x="643" 
d="M65 0v700h262q91 0 156 -51t65 -128q0 -43 -17.5 -76.5t-41.5 -51.5q51 -14 90 -61.5t39 -118.5q0 -95 -63.5 -154t-164.5 -59h-325zM241 445h69q45 0 45 46q0 45 -45 45h-69v-91zM241 164h119q27 0 46 19t19 46t-19 46t-46 19h-119v-130z" />
    <glyph glyph-name="C" unicode="C" horiz-adv-x="723" 
d="M384 -12q-151 0 -247.5 103.5t-96.5 258.5q0 159 98.5 260.5t264.5 101.5q105 0 181 -43.5t116 -123.5l-161 -97q-24 48 -57 73t-88 25q-66 0 -113.5 -53t-47.5 -143q0 -95 51 -145.5t120 -50.5q47 0 85.5 24.5t59.5 66.5l166 -73q-40 -85 -123 -134.5t-208 -49.5z" />
    <glyph glyph-name="D" unicode="D" horiz-adv-x="723" 
d="M65 0v700h273q164 0 254.5 -98t90.5 -252q0 -153 -92 -251.5t-253 -98.5h-273zM258 164h80q69 0 110.5 46t41.5 140t-42 140t-110 46h-80v-372z" />
    <glyph glyph-name="E" unicode="E" horiz-adv-x="631" 
d="M65 0v700h512v-164h-319v-91h299v-164h-299v-117h319v-164h-512z" />
    <glyph glyph-name="F" unicode="F" horiz-adv-x="612" 
d="M65 0v700h502v-164h-309v-101h289v-164h-289v-271h-193z" />
    <glyph glyph-name="G" unicode="G" horiz-adv-x="775" 
d="M384 -12q-152 0 -248 103.5t-96 259.5q0 158 98.5 259.5t264.5 101.5q104 0 181 -42t115 -120l-169 -85q-48 81 -135 81q-67 0 -114.5 -52.5t-47.5 -142.5q0 -95 51.5 -146t119.5 -51q52 0 90 29t43 68h-146v154h334v-405h-131l-29 58q-76 -70 -181 -70z" />
    <glyph glyph-name="H" unicode="H" horiz-adv-x="727" 
d="M65 0v700h193v-255h211v255h193v-700h-193v281h-211v-281h-193z" />
    <glyph glyph-name="I" unicode="I" horiz-adv-x="323" 
d="M65 0v700h193v-700h-193z" />
    <glyph glyph-name="J" unicode="J" horiz-adv-x="562" 
d="M235 -12q-173 0 -235 150l152 80q29 -66 83 -66q38 0 58.5 22.5t20.5 63.5v462h193v-475q0 -111 -70 -174t-202 -63z" />
    <glyph glyph-name="K" unicode="K" horiz-adv-x="700" 
d="M65 0v700h193v-237l186 237h236l-270 -330l290 -370h-245l-197 260v-260h-193z" />
    <glyph glyph-name="L" unicode="L" horiz-adv-x="585" 
d="M65 0v700h193v-536h307v-164h-500z" />
    <glyph glyph-name="M" unicode="M" horiz-adv-x="884" 
d="M65 0v700h253l125 -451l147 451h233v-700h-178v376l-120 -376h-163l-119 376v-376h-178z" />
    <glyph glyph-name="N" unicode="N" horiz-adv-x="733" 
d="M65 0v700h213l202 -390v390h188v-700h-213l-202 375v-375h-188z" />
    <glyph glyph-name="O" unicode="O" horiz-adv-x="808" 
d="M403 -12q-163 0 -263 103t-100 259q0 159 98.5 260.5t264.5 101.5t265.5 -102t99.5 -260q0 -156 -101 -259t-264 -103zM404 152q69 0 120 51.5t51 146.5t-51 146.5t-120 51.5t-120 -51.5t-51 -146.5t51 -146.5t120 -51.5z" />
    <glyph glyph-name="P" unicode="P" horiz-adv-x="630" 
d="M65 0v700h269q127 0 191.5 -59.5t64.5 -157.5q0 -106 -72.5 -171.5t-193.5 -65.5h-66v-246h-193zM258 410h76q26 0 44.5 18.5t18.5 44.5t-18.5 44.5t-44.5 18.5h-76v-126z" />
    <glyph glyph-name="Q" unicode="Q" horiz-adv-x="808" 
d="M403 -12q-163 0 -263 103t-100 259q0 159 98.5 260.5t264.5 101.5t265.5 -102t99.5 -260q0 -137 -80 -236l74 -83l-118 -107l-83 95q-73 -31 -158 -31zM404 152q21 0 37 4l-56 64l119 102l55 -62q16 40 16 90q0 95 -51 146.5t-120 51.5t-120 -51.5t-51 -146.5t51 -146.5
t120 -51.5z" />
    <glyph glyph-name="R" unicode="R" horiz-adv-x="660" 
d="M65 0v700h254q129 0 195 -53.5t66 -148.5q0 -68 -29.5 -110t-92.5 -73l182 -315h-216l-153 276h-13v-276h-193zM258 436h66q29 0 46 13.5t17 38.5t-17 38.5t-46 13.5h-66v-104z" />
    <glyph glyph-name="S" unicode="S" horiz-adv-x="575" 
d="M293 -12q-206 0 -273 192l153 65q15 -46 48.5 -72t74.5 -26q70 0 70 53q0 22 -15 38.5t-56 36.5l-103 51q-123 62 -123 200q0 83 64 134.5t169 51.5q160 0 204 -120l-147 -76q-19 42 -57 42q-40 0 -40 -32q0 -26 38 -46l105 -55q79 -41 114.5 -92.5t35.5 -129.5
q0 -88 -72.5 -151.5t-189.5 -63.5z" />
    <glyph glyph-name="T" unicode="T" horiz-adv-x="559" 
d="M183 0v536h-173v164h539v-164h-173v-536h-193z" />
    <glyph glyph-name="U" unicode="U" horiz-adv-x="730" 
d="M365 -12q-143 0 -226.5 82t-83.5 222v408h193v-395q0 -153 117 -153t117 153v395h193v-408q0 -140 -83.5 -222t-226.5 -82z" />
    <glyph glyph-name="V" unicode="V" horiz-adv-x="672" 
d="M243 0l-233 700h201l124 -443l125 443h202l-235 -700h-184z" />
    <glyph glyph-name="W" unicode="W" horiz-adv-x="979" 
d="M551 0l-59 155l-61 -155h-153l-268 700h191l171 -461l44 118l-130 343h181l37 -107l41 107h161l-126 -322l45 -130l168 452h176l-273 -700h-145z" />
    <glyph glyph-name="X" unicode="X" horiz-adv-x="663" 
d="M451 0l-119 207l-120 -207h-202l221 363l-204 337h209l99 -177l102 177h199l-202 -332l219 -368h-202z" />
    <glyph glyph-name="Y" unicode="Y" horiz-adv-x="628" 
d="M217 0v277l-207 423h199l105 -241l105 241h199l-208 -423v-277h-193z" />
    <glyph glyph-name="Z" unicode="Z" horiz-adv-x="619" 
d="M42 0v154l292 382h-272v164h505v-154l-292 -382h302v-164h-535z" />
    <glyph glyph-name="bracketleft" unicode="[" horiz-adv-x="387" 
d="M65 -200v998h302v-140h-132v-718h132v-140h-302z" />
    <glyph glyph-name="backslash" unicode="\" horiz-adv-x="586" 
d="M406 -35l-416 770h191l415 -770h-190z" />
    <glyph glyph-name="bracketright" unicode="]" horiz-adv-x="387" 
d="M20 -200v140h132v718h-132v140h302v-998h-302z" />
    <glyph glyph-name="asciicircum" unicode="^" 
d="M20 230l195 470h170l195 -470h-178l-105 295l-104 -295h-173z" />
    <glyph glyph-name="underscore" unicode="_" horiz-adv-x="630" 
d="M60 -180v158h510v-158h-510z" />
    <glyph glyph-name="grave" unicode="`" horiz-adv-x="512" 
d="M379 573h-141l-105 127h182z" />
    <glyph glyph-name="a" unicode="a" horiz-adv-x="651" 
d="M266 -12q-91 0 -158.5 71.5t-67.5 190.5q0 65 22 117.5t57.5 83t76 46t80.5 15.5q86 0 135 -47l15 35h165v-500h-155l-25 40q-55 -52 -145 -52zM316 138q43 0 71.5 30t28.5 82t-28.5 82t-71.5 30t-71.5 -30t-28.5 -82t28.5 -82t71.5 -30z" />
    <glyph glyph-name="b" unicode="b" horiz-adv-x="655" 
d="M375 -12q-104 0 -149 62l-20 -50h-146v715h176v-260q57 57 149 57q41 0 80 -14.5t73.5 -43.5t55.5 -82t21 -122q0 -124 -72.5 -193t-167.5 -69zM337 140q44 0 73 29.5t29 80.5t-29 80.5t-73 29.5q-43 0 -72 -29.5t-29 -80.5t29 -80.5t72 -29.5z" />
    <glyph glyph-name="c" unicode="c" horiz-adv-x="579" 
d="M309 -12q-116 0 -192.5 72t-76.5 190t79 190t195 72q81 0 142 -39t93 -108l-161 -66q-19 61 -79 61q-41 0 -67 -30.5t-26 -79.5q0 -48 28.5 -79t69.5 -31q28 0 49.5 17t29.5 40l162 -64q-27 -63 -94 -104t-152 -41z" />
    <glyph glyph-name="d" unicode="d" horiz-adv-x="655" 
d="M429 60q-20 -29 -63 -50.5t-96 -21.5q-94 0 -162 69t-68 193q0 69 22.5 122t59 82t77 43.5t81.5 14.5q95 0 139 -52v255h176v-715h-146zM318 360q-44 0 -73 -29.5t-29 -80.5t29 -80.5t73 -29.5q43 0 72 29.5t29 80.5t-29 80.5t-72 29.5z" />
    <glyph glyph-name="e" unicode="e" horiz-adv-x="598" 
d="M542 110q-70 -122 -241 -122q-115 0 -188 71.5t-73 190.5q0 120 71.5 191t188.5 71q129 0 196 -72.5t67 -169.5q0 -31 -8 -63h-336q16 -70 89 -70q63 0 90 46zM300 382q-60 0 -78 -62h160q-17 62 -82 62z" />
    <glyph glyph-name="f" unicode="f" horiz-adv-x="410" 
d="M85 0v372h-65v128h65v30q0 85 56 133.5t147 48.5q49 0 92 -12v-145q-22 9 -49 9q-31 0 -50.5 -15t-19.5 -39v-10h109v-128h-109v-372h-176z" />
    <glyph glyph-name="g" unicode="g" horiz-adv-x="605" 
d="M502 369q25 -31 25 -79q0 -28 -13.5 -58t-36.5 -45q39 -22 63.5 -68.5t24.5 -99.5q0 -105 -75 -168t-191 -63q-115 0 -189.5 63t-74.5 168q0 101 87 168q-53 44 -53 123q0 86 60 144t168 58h268v-130zM297 228q29 0 46 21t17 53q0 31 -17.5 53.5t-45.5 22.5
q-27 0 -46 -23t-19 -53q0 -31 18.5 -52.5t46.5 -21.5zM299 -65q36 0 62.5 22.5t26.5 61.5q0 40 -26.5 62.5t-62.5 22.5q-37 0 -62.5 -22.5t-25.5 -62.5q0 -39 26 -61.5t62 -22.5z" />
    <glyph glyph-name="h" unicode="h" horiz-adv-x="601" 
d="M60 0v715h176v-249q49 46 148 46q70 0 117.5 -47t47.5 -139v-326h-176v289q0 32 -18 50t-48 18q-29 0 -50 -23.5t-21 -68.5v-265h-176z" />
    <glyph glyph-name="i" unicode="i" horiz-adv-x="296" 
d="M60 550v165h176v-165h-176zM60 0v500h176v-500h-176z" />
    <glyph glyph-name="j" unicode="j" horiz-adv-x="297" 
d="M60 550v165h177v-165h-177zM60 -212v712h177v-682z" />
    <glyph glyph-name="k" unicode="k" horiz-adv-x="596" 
d="M60 0v715h176v-368l125 153h210l-206 -228l216 -272h-222l-123 170v-170h-176z" />
    <glyph glyph-name="l" unicode="l" horiz-adv-x="296" 
d="M60 0v715h176v-715h-176z" />
    <glyph glyph-name="m" unicode="m" horiz-adv-x="894" 
d="M60 0v500h146l20 -60q49 72 148 72q84 0 134 -71q54 71 159 71q72 0 123.5 -47t51.5 -139v-326h-176v289q0 68 -56 68q-30 0 -50.5 -21.5t-20.5 -65.5v-270h-176v289q0 68 -56 68q-29 0 -50 -23.5t-21 -68.5v-265h-176z" />
    <glyph glyph-name="n" unicode="n" horiz-adv-x="601" 
d="M60 0v500h146l20 -60q20 29 62.5 50.5t95.5 21.5q70 0 117.5 -47t47.5 -139v-326h-176v289q0 32 -18 50t-48 18q-29 0 -50 -23.5t-21 -68.5v-265h-176z" />
    <glyph glyph-name="o" unicode="o" horiz-adv-x="628" 
d="M314 -12q-116 0 -195 72t-79 190t79 190t195 72t195 -72t79 -190t-79 -190t-195 -72zM314 140q41 0 69.5 31t28.5 79q0 49 -28.5 79.5t-69.5 30.5t-69.5 -30.5t-28.5 -79.5q0 -48 28.5 -79t69.5 -31z" />
    <glyph glyph-name="p" unicode="p" horiz-adv-x="655" 
d="M60 -200v700h146l20 -60q20 29 63 50.5t96 21.5q94 0 162 -69t68 -193q0 -69 -22.5 -122t-59 -82t-77 -43.5t-81.5 -14.5q-95 0 -139 52v-240h-176zM337 140q44 0 73 29.5t29 80.5t-29 80.5t-73 29.5q-43 0 -72 -29.5t-29 -80.5t29 -80.5t72 -29.5z" />
    <glyph glyph-name="q" unicode="q" horiz-adv-x="655" 
d="M419 -200v245q-57 -57 -149 -57q-41 0 -80 14.5t-73.5 43.5t-55.5 82t-21 122q0 124 72.5 193t167.5 69q104 0 149 -62l20 50h146v-700h-176zM318 140q43 0 72 29.5t29 80.5t-29 80.5t-72 29.5q-44 0 -73 -29.5t-29 -80.5t29 -80.5t73 -29.5z" />
    <glyph glyph-name="r" unicode="r" horiz-adv-x="454" 
d="M60 0v500h147l13 -65q37 77 139 77q43 0 73 -14l-33 -179q-33 21 -76 21q-37 0 -62 -24.5t-25 -74.5v-241h-176z" />
    <glyph glyph-name="s" unicode="s" horiz-adv-x="466" 
d="M231 -12q-84 0 -137.5 35.5t-73.5 96.5l131 60q29 -60 85 -60q42 0 42 26q0 23 -52 42l-61 22q-115 41 -115 155q0 65 52 106t131 41q131 0 175 -93l-123 -64q-17 36 -46 36q-27 0 -27 -20q0 -16 23 -25l68 -25q65 -24 100 -63.5t35 -107.5q0 -72 -56 -117t-151 -45z" />
    <glyph glyph-name="t" unicode="t" horiz-adv-x="394" 
d="M97 0v372h-77v128h77v130l176 33v-163h101v-128h-101v-372h-176z" />
    <glyph glyph-name="u" unicode="u" horiz-adv-x="604" 
d="M220 -12q-70 0 -117.5 47t-47.5 139v326h176v-289q0 -32 18 -50t48 -18q29 0 50 23.5t21 68.5v265h176v-500h-146l-20 60q-20 -29 -62.5 -50.5t-95.5 -21.5z" />
    <glyph glyph-name="v" unicode="v" horiz-adv-x="550" 
d="M181 0l-181 500h178l97 -315l96 315h179l-181 -500h-188z" />
    <glyph glyph-name="w" unicode="w" horiz-adv-x="810" 
d="M164 0l-164 500h178l79 -315l72 202l-39 113h178l87 -315l76 315h179l-164 -500h-182l-59 169l-59 -169h-182z" />
    <glyph glyph-name="x" unicode="x" horiz-adv-x="543" 
d="M0 0l174 261l-159 239h194l62 -113l62 113h195l-159 -239l174 -261h-196l-76 134l-76 -134h-195z" />
    <glyph glyph-name="y" unicode="y" horiz-adv-x="558" 
d="M294 -200h-179l87 234l-202 466h190l97 -282l88 282h183z" />
    <glyph glyph-name="z" unicode="z" horiz-adv-x="480" 
d="M32 0v140l195 210h-182v150h398v-140l-197 -210h204v-150h-418z" />
    <glyph glyph-name="braceleft" unicode="{" horiz-adv-x="445" 
d="M395 -200q-254 0 -254 194v170q0 35 -20 50t-60 15h-31v166h31q40 0 60 15t20 50v144q0 194 254 194h30v-148h-30q-42 0 -64 -23.5t-22 -62.5v-133q0 -50 -23 -80t-61 -39q37 -9 60.5 -39t23.5 -79v-160q0 -39 22 -62.5t64 -23.5h30v-148h-30z" />
    <glyph glyph-name="bar" unicode="|" horiz-adv-x="300" 
d="M65 -180v915h170v-915h-170z" />
    <glyph glyph-name="braceright" unicode="}" horiz-adv-x="445" 
d="M20 -200v148h30q42 0 64 23.5t22 62.5v160q0 49 23.5 79t60.5 39q-38 9 -61 39t-23 80v133q0 39 -22 62.5t-64 23.5h-30v148h30q254 0 254 -194v-144q0 -35 20 -50t60 -15h31v-166h-31q-40 0 -60 -15t-20 -50v-170q0 -194 -254 -194h-30z" />
    <glyph glyph-name="asciitilde" unicode="~" 
d="M35 235q0 110 43.5 169.5t111.5 59.5q42 0 82.5 -19t70.5 -38.5t47 -19.5q25 0 32.5 18t7.5 59h135q0 -110 -43.5 -169.5t-111.5 -59.5q-42 0 -82.5 19.5t-70.5 38.5t-47 19q-24 0 -32 -18t-8 -59h-135z" />
    <glyph glyph-name="nbspace" unicode="&#xa0;" horiz-adv-x="248" 
 />
    <glyph glyph-name="exclamdown" unicode="&#xa1;" horiz-adv-x="303" 
d="M241 500v-154h-179v154h179zM233 280v-480h-163v480h163z" />
    <glyph glyph-name="cent" unicode="&#xa2;" 
d="M229 -100v101q-81 25 -130 90.5t-49 158.5q0 91 49 156.5t130 91.5v102h166v-97q114 -29 164 -138l-161 -66q-19 61 -79 61q-41 0 -67 -30.5t-26 -79.5q0 -48 28.5 -79t69.5 -31q28 0 49.5 17t29.5 40l162 -64q-20 -48 -65.5 -84t-104.5 -52v-97h-166z" />
    <glyph glyph-name="sterling" unicode="&#xa3;" 
d="M50 405h65v95q0 92 62 152t173 60q64 0 120 -33.5t89 -77.5l-125 -111q-38 46 -74 46q-60 0 -60 -71v-60h160v-115h-160v-140h260v-150h-510v150h65v140h-65v115z" />
    <glyph glyph-name="currency" unicode="&#xa4;" 
d="M30 189l79 74q-16 42 -16 87q0 49 16 87l-79 74l110 110l74 -78q42 16 87 16t87 -16l74 78l110 -110l-79 -75q15 -38 15 -86t-15 -86l79 -75l-110 -110l-73 78q-40 -17 -88 -17t-88 17l-73 -78zM232 350q0 -41 19 -65.5t50 -24.5q30 0 49 24.5t19 65.5q0 42 -19 65.5
t-49 23.5t-49.5 -23.5t-19.5 -65.5z" />
    <glyph glyph-name="yen" unicode="&#xa5;" 
d="M203 0v217h-108v115h108v36h-108v115h69l-164 217h195l105 -155l105 155h195l-165 -217h70v-115h-109v-36h109v-115h-109v-217h-193z" />
    <glyph glyph-name="brokenbar" unicode="&#xa6;" horiz-adv-x="300" 
d="M235 347h-170v388h170v-388zM65 -180v387h170v-387h-170z" />
    <glyph glyph-name="section" unicode="&#xa7;" horiz-adv-x="595" 
d="M303 -212q-203 0 -263 177l153 65q14 -40 43 -64t66 -24q20 0 32 10t12 25q0 14 -8.5 23t-32.5 25l-103 71q-2 2 -17.5 12.5t-20 13.5t-18.5 14t-19.5 17t-17.5 18t-17 21.5t-13 24.5t-11 29t-6 32.5t-3 37.5q0 81 71 131q-30 42 -30 89q0 80 62.5 128t164.5 48
q158 0 202 -120l-144 -76q-20 44 -58 44q-40 0 -40 -26q0 -20 33 -38l95 -51q79 -42 114.5 -93t35.5 -129q0 -82 -65 -144q30 -43 30 -94q0 -86 -62 -141.5t-165 -55.5zM356 197l26 -18q14 17 14 41q0 31 -19.5 53.5t-71.5 51.5l-39 21q-24 -8 -24 -35q0 -17 10.5 -31.5
t19.5 -21.5t38 -28z" />
    <glyph glyph-name="dieresis" unicode="&#xa8;" horiz-adv-x="512" 
d="M104 577v117h123v-117h-123zM285 577v117h123v-117h-123z" />
    <glyph glyph-name="copyright" unicode="&#xa9;" horiz-adv-x="842" 
d="M421 -32q-166 0 -276 110t-110 272q0 164 108.5 273t277.5 109t277.5 -109t108.5 -273q0 -162 -110 -272t-276 -110zM421 71q118 0 197 78.5t79 200.5t-79 200.5t-197 78.5t-196.5 -78.5t-78.5 -200.5t78.5 -200.5t196.5 -78.5zM611 455l-106 -62q-14 25 -31.5 36.5
t-50.5 11.5q-34 0 -58 -27t-24 -64t24 -64t58 -27q58 0 84 45l105 -65q-54 -105 -191 -105q-92 0 -153.5 63t-61.5 153t61.5 153t153.5 63q69 0 118.5 -32t71.5 -79z" />
    <glyph glyph-name="ordfeminine" unicode="&#xaa;" horiz-adv-x="459" 
d="M188 342q-60 0 -104 46.5t-44 126.5q0 87 48.5 130t106.5 43q56 0 88 -28l10 20h115v-330h-107l-18 24q-1 -1 -8 -6t-13 -8.5t-17 -8t-25.5 -7t-31.5 -2.5zM224 449q26 0 44 17.5t18 48.5t-18 48.5t-44 17.5q-27 0 -44.5 -17t-17.5 -49t17.5 -49t44.5 -17zM70 180v110
h338v-110h-338z" />
    <glyph glyph-name="guillemotleft" unicode="&#xab;" horiz-adv-x="560" 
d="M364 70l-99 190l99 190h176l-100 -187l100 -193h-176zM119 70l-99 190l99 190h176l-100 -187l100 -193h-176z" />
    <glyph glyph-name="logicalnot" unicode="&#xac;" 
d="M65 272v156h470v-358h-156v202h-314z" />
    <glyph glyph-name="registered" unicode="&#xae;" horiz-adv-x="519" 
d="M259 320q-93 0 -156 63.5t-63 156.5q0 94 61.5 157t157.5 63q97 0 158.5 -63t61.5 -157q0 -93 -63 -156.5t-157 -63.5zM259 389q63 0 105.5 43t42.5 108q0 66 -42.5 108.5t-105.5 42.5q-62 0 -104.5 -43t-42.5 -108t42.5 -108t104.5 -43zM249 504v-66h-66v209h86
q34 0 57.5 -21t23.5 -52q0 -38 -38 -58l42 -78h-71l-30 66h-4zM259 591h-10v-36h10q26 0 26 18t-26 18z" />
    <glyph glyph-name="macron" unicode="&#xaf;" horiz-adv-x="512" 
d="M101 583v112h310v-112h-310z" />
    <glyph glyph-name="degree" unicode="&#xb0;" horiz-adv-x="385" 
d="M41 562q0 64 43.5 107t108.5 43t108 -43.5t43 -106.5q0 -64 -43 -107.5t-108 -43.5q-66 0 -109 43.5t-43 107.5zM142 562q0 -23 14.5 -38t36.5 -15t35.5 15t13.5 38t-13.5 38t-35.5 15t-36.5 -15t-14.5 -38z" />
    <glyph glyph-name="plusminus" unicode="&#xb1;" 
d="M65 50v156h157v106h-157v156h157v157h156v-157h157v-156h-157v-106h157v-156h-470z" />
    <glyph glyph-name="twosuperior" unicode="&#xb2;" horiz-adv-x="401" 
d="M38 350v96l133 101q18 14 24.5 19t17.5 15t14.5 17t3.5 14q0 15 -10 24t-26 9q-30 0 -38 -43l-108 30q11 53 48.5 89t108.5 36q67 0 108 -36t41 -89q0 -42 -13 -68.5t-45 -51.5l-82 -65h143v-97h-320z" />
    <glyph glyph-name="threesuperior" unicode="&#xb3;" horiz-adv-x="402" 
d="M191 343q-133 0 -164 104l112 39q4 -14 17.5 -25.5t30.5 -11.5q22 0 34.5 10t12.5 25q0 11 -10 22.5t-33 14.5l-64 8v72l64 52h-136v97h282v-91l-79 -60q45 -9 72.5 -38.5t27.5 -70.5q0 -70 -45.5 -108.5t-121.5 -38.5z" />
    <glyph glyph-name="acute" unicode="&#xb4;" horiz-adv-x="512" 
d="M133 573l64 127h182l-105 -127h-141z" />
    <glyph glyph-name="mu" unicode="&#xb5;" horiz-adv-x="609" 
d="M60 -200v700h176v-289q0 -32 18 -50t48 -18q29 0 50 23.5t21 68.5v265h176v-500h-146l-20 50q-16 -25 -43.5 -43.5t-57.5 -18.5t-46 8v-196h-176z" />
    <glyph glyph-name="paragraph" unicode="&#xb6;" horiz-adv-x="675" 
d="M375 0h-165v350q-85 4 -132.5 52.5t-47.5 122.5q0 73 51.5 124t128.5 51h165v-700zM615 700v-700h-165v700h165z" />
    <glyph glyph-name="periodcentered" unicode="&#xb7;" horiz-adv-x="303" 
d="M60 201v179h183v-179h-183z" />
    <glyph glyph-name="cedilla" unicode="&#xb8;" horiz-adv-x="512" 
d="M205 -117l-59 49l74 86h95l-47 -56q42 0 71.5 -26.5t29.5 -66.5q0 -45 -34 -77t-99 -32q-66 0 -119 40l48 75q35 -30 66 -30q14 0 24 6.5t10 17.5t-8.5 17.5t-21.5 6.5q-18 0 -30 -10z" />
    <glyph glyph-name="onesuperior" unicode="&#xb9;" horiz-adv-x="282" 
d="M109 350v279l-78 -43v109l90 55h112v-400h-124z" />
    <glyph glyph-name="ordmasculine" unicode="&#xba;" horiz-adv-x="444" 
d="M223 343q-78 0 -130.5 47t-52.5 126t52.5 126t130.5 47q77 0 129.5 -47t52.5 -126t-52.5 -126t-129.5 -47zM223 452q25 0 42.5 18t17.5 46t-17.5 46t-42.5 18t-43 -18t-18 -46t18 -46t43 -18zM70 180v110h305v-110h-305z" />
    <glyph glyph-name="guillemotright" unicode="&#xbb;" horiz-adv-x="560" 
d="M20 70l100 187l-100 193h176l99 -190l-99 -190h-176zM265 70l100 187l-100 193h176l99 -190l-99 -190h-176z" />
    <glyph glyph-name="onequarter" unicode="&#xbc;" horiz-adv-x="1000" 
d="M199 7l446 747l101 -61l-446 -746zM116 300v279l-78 -43v109l90 55h112v-400h-124zM844 400v-245h59v-93h-59v-62h-124v62h-168v89l177 249h115zM652 155h68v88z" />
    <glyph glyph-name="onehalf" unicode="&#xbd;" horiz-adv-x="1000" 
d="M198 7l446 747l101 -61l-446 -746zM135 300v279l-78 -43v109l90 55h112v-400h-124zM583 0v96l133 101q18 14 24.5 19t17.5 15t14.5 17t3.5 14q0 15 -10 24t-26 9q-30 0 -38 -43l-108 30q11 53 48.5 89t108.5 36q67 0 108 -36t41 -89q0 -42 -13 -68.5t-45 -51.5l-82 -65
h143v-97h-320z" />
    <glyph glyph-name="threequarters" unicode="&#xbe;" horiz-adv-x="1000" 
d="M243 7l446 747l101 -61l-446 -746zM192 293q-133 0 -164 104l112 39q4 -14 17.5 -25.5t30.5 -11.5q22 0 34.5 10t12.5 25q0 11 -10 22.5t-33 14.5l-64 8v72l64 52h-136v97h282v-91l-79 -60q45 -9 72.5 -38.5t27.5 -70.5q0 -70 -45.5 -108.5t-121.5 -38.5zM868 400v-245
h59v-93h-59v-62h-124v62h-168v89l177 249h115zM676 155h68v88z" />
    <glyph glyph-name="questiondown" unicode="&#xbf;" horiz-adv-x="538" 
d="M175 346v154h179v-154h-179zM346 280v-191l-83 -14q-67 -11 -67 -60q0 -26 21 -44t52 -18q29 0 50 17.5t29 47.5l160 -45q-21 -85 -86.5 -135t-153.5 -50q-109 0 -178.5 60t-69.5 157q0 75 42.5 128.5t120.5 75.5v71h163z" />
    <glyph glyph-name="Agrave" unicode="&#xc0;" horiz-adv-x="692" 
d="M419 763h-141l-105 127h182zM505 0l-42 125h-234l-43 -125h-186l261 700h175l256 -700h-187zM285 289h122l-61 180z" />
    <glyph glyph-name="Aacute" unicode="&#xc1;" horiz-adv-x="692" 
d="M274 763l64 127h182l-105 -127h-141zM505 0l-42 125h-234l-43 -125h-186l261 700h175l256 -700h-187zM285 289h122l-61 180z" />
    <glyph glyph-name="Acircumflex" unicode="&#xc2;" horiz-adv-x="692" 
d="M155 763l109 127h167l106 -127h-149l-42 59l-42 -59h-149zM505 0l-42 125h-234l-43 -125h-186l261 700h175l256 -700h-187zM285 289h122l-61 180z" />
    <glyph glyph-name="Atilde" unicode="&#xc3;" horiz-adv-x="692" 
d="M267 750h-104q-11 70 19 111t91 41q31 0 74 -24t57 -24q32 0 20 48h104q14 -69 -17 -110.5t-93 -41.5q-35 0 -77.5 24t-53.5 24q-32 0 -20 -48zM505 0l-42 125h-234l-43 -125h-186l261 700h175l256 -700h-187zM285 289h122l-61 180z" />
    <glyph glyph-name="Adieresis" unicode="&#xc4;" horiz-adv-x="692" 
d="M194 768v117h123v-117h-123zM375 768v117h123v-117h-123zM505 0l-42 125h-234l-43 -125h-186l261 700h175l256 -700h-187zM285 289h122l-61 180z" />
    <glyph glyph-name="Aring" unicode="&#xc5;" horiz-adv-x="692" 
d="M235 844q0 44 32 76.5t79 32.5t79 -32.5t32 -76.5t-32.5 -76.5t-78.5 -32.5q-47 0 -79 32.5t-32 76.5zM346 870q-10 0 -18 -8t-8 -18t7.5 -17.5t18.5 -7.5q10 0 17.5 7.5t7.5 17.5q0 11 -7.5 18.5t-17.5 7.5zM505 0l-42 125h-234l-43 -125h-186l261 700h175l256 -700
h-187zM285 289h122l-61 180z" />
    <glyph glyph-name="AE" unicode="&#xc6;" horiz-adv-x="980" 
d="M414 0v125h-180l-51 -125h-199l303 700h639v-164h-319v-91h299v-164h-299v-117h319v-164h-512zM403 536l-101 -247h112v247h-11z" />
    <glyph glyph-name="Ccedilla" unicode="&#xc7;" horiz-adv-x="723" 
d="M333 -117l-59 49l52 60q-128 20 -207 119.5t-79 238.5q0 159 98.5 260.5t264.5 101.5q105 0 181 -43.5t116 -123.5l-161 -97q-24 48 -57 73t-88 25q-66 0 -113.5 -53t-47.5 -143q0 -95 51 -145.5t120 -50.5q47 0 85.5 24.5t59.5 66.5l166 -73q-37 -79 -111.5 -127.5
t-184.5 -55.5l-23 -27q42 0 71.5 -26.5t29.5 -66.5q0 -45 -34 -77t-99 -32q-66 0 -119 40l48 75q35 -30 66 -30q14 0 24 6.5t10 17.5t-8.5 17.5t-21.5 6.5q-18 0 -30 -10z" />
    <glyph glyph-name="Egrave" unicode="&#xc8;" horiz-adv-x="631" 
d="M393 763h-141l-105 127h182zM65 0v700h512v-164h-319v-91h299v-164h-299v-117h319v-164h-512z" />
    <glyph glyph-name="Eacute" unicode="&#xc9;" horiz-adv-x="631" 
d="M248 763l64 127h182l-105 -127h-141zM65 0v700h512v-164h-319v-91h299v-164h-299v-117h319v-164h-512z" />
    <glyph glyph-name="Ecircumflex" unicode="&#xca;" horiz-adv-x="631" 
d="M129 763l109 127h167l106 -127h-149l-42 59l-42 -59h-149zM65 0v700h512v-164h-319v-91h299v-164h-299v-117h319v-164h-512z" />
    <glyph glyph-name="Edieresis" unicode="&#xcb;" horiz-adv-x="631" 
d="M168 768v117h123v-117h-123zM349 768v117h123v-117h-123zM65 0v700h512v-164h-319v-91h299v-164h-299v-117h319v-164h-512z" />
    <glyph glyph-name="Igrave" unicode="&#xcc;" horiz-adv-x="323" 
d="M234 763h-141l-105 127h182zM65 0v700h193v-700h-193z" />
    <glyph glyph-name="Iacute" unicode="&#xcd;" horiz-adv-x="323" 
d="M89 763l64 127h182l-105 -127h-141zM65 0v700h193v-700h-193z" />
    <glyph glyph-name="Icircumflex" unicode="&#xce;" horiz-adv-x="323" 
d="M-30 763l109 127h167l106 -127h-149l-42 59l-42 -59h-149zM65 0v700h193v-700h-193z" />
    <glyph glyph-name="Idieresis" unicode="&#xcf;" horiz-adv-x="323" 
d="M9 768v117h123v-117h-123zM190 768v117h123v-117h-123zM65 0v700h193v-700h-193z" />
    <glyph glyph-name="Eth" unicode="&#xd0;" horiz-adv-x="723" 
d="M65 0v270h-65v160h65v270h273q164 0 254.5 -98t90.5 -252q0 -153 -92 -251.5t-253 -98.5h-273zM258 164h80q69 0 110.5 46t41.5 140t-42 140t-110 46h-80v-106h112v-160h-112v-106z" />
    <glyph glyph-name="Ntilde" unicode="&#xd1;" horiz-adv-x="733" 
d="M287 750h-104q-11 70 19 111t91 41q31 0 74 -24t57 -24q32 0 20 48h104q14 -69 -17 -110.5t-93 -41.5q-35 0 -77.5 24t-53.5 24q-32 0 -20 -48zM65 0v700h213l202 -390v390h188v-700h-213l-202 375v-375h-188z" />
    <glyph glyph-name="Ograve" unicode="&#xd2;" horiz-adv-x="808" 
d="M477 763h-141l-105 127h182zM403 -12q-163 0 -263 103t-100 259q0 159 98.5 260.5t264.5 101.5t265.5 -102t99.5 -260q0 -156 -101 -259t-264 -103zM404 152q69 0 120 51.5t51 146.5t-51 146.5t-120 51.5t-120 -51.5t-51 -146.5t51 -146.5t120 -51.5z" />
    <glyph glyph-name="Oacute" unicode="&#xd3;" horiz-adv-x="808" 
d="M332 763l64 127h182l-105 -127h-141zM403 -12q-163 0 -263 103t-100 259q0 159 98.5 260.5t264.5 101.5t265.5 -102t99.5 -260q0 -156 -101 -259t-264 -103zM404 152q69 0 120 51.5t51 146.5t-51 146.5t-120 51.5t-120 -51.5t-51 -146.5t51 -146.5t120 -51.5z" />
    <glyph glyph-name="Ocircumflex" unicode="&#xd4;" horiz-adv-x="808" 
d="M213 763l109 127h167l106 -127h-149l-42 59l-42 -59h-149zM403 -12q-163 0 -263 103t-100 259q0 159 98.5 260.5t264.5 101.5t265.5 -102t99.5 -260q0 -156 -101 -259t-264 -103zM404 152q69 0 120 51.5t51 146.5t-51 146.5t-120 51.5t-120 -51.5t-51 -146.5t51 -146.5
t120 -51.5z" />
    <glyph glyph-name="Otilde" unicode="&#xd5;" horiz-adv-x="808" 
d="M325 750h-104q-11 70 19 111t91 41q31 0 74 -24t57 -24q32 0 20 48h104q14 -69 -17 -110.5t-93 -41.5q-35 0 -77.5 24t-53.5 24q-32 0 -20 -48zM403 -12q-163 0 -263 103t-100 259q0 159 98.5 260.5t264.5 101.5t265.5 -102t99.5 -260q0 -156 -101 -259t-264 -103z
M404 152q69 0 120 51.5t51 146.5t-51 146.5t-120 51.5t-120 -51.5t-51 -146.5t51 -146.5t120 -51.5z" />
    <glyph glyph-name="Odieresis" unicode="&#xd6;" horiz-adv-x="808" 
d="M252 768v117h123v-117h-123zM433 768v117h123v-117h-123zM403 -12q-163 0 -263 103t-100 259q0 159 98.5 260.5t264.5 101.5t265.5 -102t99.5 -260q0 -156 -101 -259t-264 -103zM404 152q69 0 120 51.5t51 146.5t-51 146.5t-120 51.5t-120 -51.5t-51 -146.5t51 -146.5
t120 -51.5z" />
    <glyph glyph-name="multiply" unicode="&#xd7;" 
d="M185 125l-110 110l112 112l-115 115l116 116l115 -115l112 112l110 -110l-112 -112l115 -114l-116 -117l-115 115z" />
    <glyph glyph-name="Oslash" unicode="&#xd8;" horiz-adv-x="808" 
d="M61 60l53 61q-74 96 -74 229q0 159 98.5 260.5t264.5 101.5q105 0 188 -44l52 60l105 -88l-53 -60q73 -96 73 -230q0 -156 -101 -259t-264 -103q-102 0 -185 44l-52 -60zM233 350q0 -44 12 -79l228 262q-33 15 -69 15q-69 0 -120 -51.5t-51 -146.5zM404 152
q69 0 120 51.5t51 146.5q0 44 -12 78l-227 -261q33 -15 68 -15z" />
    <glyph glyph-name="Ugrave" unicode="&#xd9;" horiz-adv-x="730" 
d="M438 763h-141l-105 127h182zM365 -12q-143 0 -226.5 82t-83.5 222v408h193v-395q0 -153 117 -153t117 153v395h193v-408q0 -140 -83.5 -222t-226.5 -82z" />
    <glyph glyph-name="Uacute" unicode="&#xda;" horiz-adv-x="730" 
d="M293 763l64 127h182l-105 -127h-141zM365 -12q-143 0 -226.5 82t-83.5 222v408h193v-395q0 -153 117 -153t117 153v395h193v-408q0 -140 -83.5 -222t-226.5 -82z" />
    <glyph glyph-name="Ucircumflex" unicode="&#xdb;" horiz-adv-x="730" 
d="M174 763l109 127h167l106 -127h-149l-42 59l-42 -59h-149zM365 -12q-143 0 -226.5 82t-83.5 222v408h193v-395q0 -153 117 -153t117 153v395h193v-408q0 -140 -83.5 -222t-226.5 -82z" />
    <glyph glyph-name="Udieresis" unicode="&#xdc;" horiz-adv-x="730" 
d="M213 768v117h123v-117h-123zM394 768v117h123v-117h-123zM365 -12q-143 0 -226.5 82t-83.5 222v408h193v-395q0 -153 117 -153t117 153v395h193v-408q0 -140 -83.5 -222t-226.5 -82z" />
    <glyph glyph-name="Yacute" unicode="&#xdd;" horiz-adv-x="628" 
d="M242 763l64 127h182l-105 -127h-141zM217 0v277l-207 423h199l105 -241l105 241h199l-208 -423v-277h-193z" />
    <glyph glyph-name="Thorn" unicode="&#xde;" horiz-adv-x="630" 
d="M65 700h193v-120h76q127 0 191.5 -59.5t64.5 -157.5q0 -106 -72.5 -171.5t-193.5 -65.5h-66v-126h-193v700zM334 416h-76v-126h76q26 0 44.5 18.5t18.5 44.5t-18.5 44.5t-44.5 18.5z" />
    <glyph glyph-name="germandbls" unicode="&#xdf;" horiz-adv-x="649" 
d="M341 -212q-60 0 -125 13v152q61 -13 101 -13q55 0 94 21t39 59q0 82 -165 82v120l100 107h-149v-329h-176v485q0 114 46 171t157 57q60 0 98 -11v-151q-21 10 -60 10q-65 0 -65 -61v-15h352v-155l-111 -115q147 -63 147 -195q0 -106 -78.5 -169t-204.5 -63z" />
    <glyph glyph-name="agrave" unicode="&#xe0;" horiz-adv-x="651" 
d="M398 573h-141l-105 127h182zM266 -12q-91 0 -158.5 71.5t-67.5 190.5q0 65 22 117.5t57.5 83t76 46t80.5 15.5q86 0 135 -47l15 35h165v-500h-155l-25 40q-55 -52 -145 -52zM316 138q43 0 71.5 30t28.5 82t-28.5 82t-71.5 30t-71.5 -30t-28.5 -82t28.5 -82t71.5 -30z" />
    <glyph glyph-name="aacute" unicode="&#xe1;" horiz-adv-x="651" 
d="M253 573l64 127h182l-105 -127h-141zM266 -12q-91 0 -158.5 71.5t-67.5 190.5q0 65 22 117.5t57.5 83t76 46t80.5 15.5q86 0 135 -47l15 35h165v-500h-155l-25 40q-55 -52 -145 -52zM316 138q43 0 71.5 30t28.5 82t-28.5 82t-71.5 30t-71.5 -30t-28.5 -82t28.5 -82
t71.5 -30z" />
    <glyph glyph-name="acircumflex" unicode="&#xe2;" horiz-adv-x="651" 
d="M134 573l109 127h167l106 -127h-149l-42 59l-42 -59h-149zM266 -12q-91 0 -158.5 71.5t-67.5 190.5q0 65 22 117.5t57.5 83t76 46t80.5 15.5q86 0 135 -47l15 35h165v-500h-155l-25 40q-55 -52 -145 -52zM316 138q43 0 71.5 30t28.5 82t-28.5 82t-71.5 30t-71.5 -30
t-28.5 -82t28.5 -82t71.5 -30z" />
    <glyph glyph-name="atilde" unicode="&#xe3;" horiz-adv-x="651" 
d="M246 560h-104q-11 70 19 111t91 41q32 0 75 -24t56 -24q32 0 20 48h104q14 -69 -17 -110.5t-93 -41.5q-35 0 -77.5 24t-53.5 24q-32 0 -20 -48zM266 -12q-91 0 -158.5 71.5t-67.5 190.5q0 65 22 117.5t57.5 83t76 46t80.5 15.5q86 0 135 -47l15 35h165v-500h-155l-25 40
q-55 -52 -145 -52zM316 138q43 0 71.5 30t28.5 82t-28.5 82t-71.5 30t-71.5 -30t-28.5 -82t28.5 -82t71.5 -30z" />
    <glyph glyph-name="adieresis" unicode="&#xe4;" horiz-adv-x="651" 
d="M173 577v117h123v-117h-123zM354 577v117h123v-117h-123zM266 -12q-91 0 -158.5 71.5t-67.5 190.5q0 65 22 117.5t57.5 83t76 46t80.5 15.5q86 0 135 -47l15 35h165v-500h-155l-25 40q-55 -52 -145 -52zM316 138q43 0 71.5 30t28.5 82t-28.5 82t-71.5 30t-71.5 -30
t-28.5 -82t28.5 -82t71.5 -30z" />
    <glyph glyph-name="aring" unicode="&#xe5;" horiz-adv-x="651" 
d="M214 654q0 44 32 76.5t79 32.5t79 -32.5t32 -76.5t-32.5 -76.5t-78.5 -32.5q-47 0 -79 32.5t-32 76.5zM325 680q-11 0 -18.5 -8t-7.5 -18t7.5 -17.5t18.5 -7.5t18 7.5t7 17.5q0 11 -7.5 18.5t-17.5 7.5zM266 -12q-91 0 -158.5 71.5t-67.5 190.5q0 65 22 117.5t57.5 83
t76 46t80.5 15.5q86 0 135 -47l15 35h165v-500h-155l-25 40q-55 -52 -145 -52zM316 138q43 0 71.5 30t28.5 82t-28.5 82t-71.5 30t-71.5 -30t-28.5 -82t28.5 -82t71.5 -30z" />
    <glyph glyph-name="ae" unicode="&#xe6;" horiz-adv-x="1004" 
d="M561 500v-56q54 68 156 68q121 0 187 -73.5t66 -169.5q0 -32 -8 -62h-343q8 -33 34.5 -51.5t61.5 -18.5q63 0 90 46l144 -73q-70 -122 -236 -122q-43 0 -86.5 19.5t-65.5 48.5v-56h-125l-25 40q-55 -52 -145 -52q-91 0 -158.5 71.5t-67.5 190.5q0 65 22 117.5t57.5 83
t76 46t80.5 15.5q86 0 135 -47l15 35h135zM622 320h167q-6 25 -28.5 43.5t-53.5 18.5q-33 0 -56.5 -19t-28.5 -43zM422 250q0 52 -30 82t-73 30t-73 -30t-30 -82t30 -82t73 -30t73 30t30 82z" />
    <glyph glyph-name="ccedilla" unicode="&#xe7;" horiz-adv-x="579" 
d="M253 -117l-59 49l53 62q-92 18 -149.5 86.5t-57.5 169.5q0 118 79 190t195 72q81 0 142 -39t93 -108l-161 -66q-19 61 -79 61q-41 0 -67 -30.5t-26 -79.5q0 -48 28.5 -79t69.5 -31q28 0 49.5 17t29.5 40l162 -64q-24 -57 -82.5 -97t-133.5 -47l-23 -27q42 0 71.5 -26.5
t29.5 -66.5q0 -45 -34 -77t-99 -32q-66 0 -119 40l48 75q35 -30 66 -30q14 0 24 6.5t10 17.5t-8.5 17.5t-21.5 6.5q-18 0 -30 -10z" />
    <glyph glyph-name="egrave" unicode="&#xe8;" horiz-adv-x="598" 
d="M373 573h-141l-105 127h182zM542 110q-70 -122 -241 -122q-115 0 -188 71.5t-73 190.5q0 120 71.5 191t188.5 71q129 0 196 -72.5t67 -169.5q0 -31 -8 -63h-336q16 -70 89 -70q63 0 90 46zM300 382q-60 0 -78 -62h160q-17 62 -82 62z" />
    <glyph glyph-name="eacute" unicode="&#xe9;" horiz-adv-x="598" 
d="M228 573l64 127h182l-105 -127h-141zM542 110q-70 -122 -241 -122q-115 0 -188 71.5t-73 190.5q0 120 71.5 191t188.5 71q129 0 196 -72.5t67 -169.5q0 -31 -8 -63h-336q16 -70 89 -70q63 0 90 46zM300 382q-60 0 -78 -62h160q-17 62 -82 62z" />
    <glyph glyph-name="ecircumflex" unicode="&#xea;" horiz-adv-x="598" 
d="M109 573l109 127h167l106 -127h-149l-42 59l-42 -59h-149zM542 110q-70 -122 -241 -122q-115 0 -188 71.5t-73 190.5q0 120 71.5 191t188.5 71q129 0 196 -72.5t67 -169.5q0 -31 -8 -63h-336q16 -70 89 -70q63 0 90 46zM300 382q-60 0 -78 -62h160q-17 62 -82 62z" />
    <glyph glyph-name="edieresis" unicode="&#xeb;" horiz-adv-x="598" 
d="M148 577v117h123v-117h-123zM329 577v117h123v-117h-123zM542 110q-70 -122 -241 -122q-115 0 -188 71.5t-73 190.5q0 120 71.5 191t188.5 71q129 0 196 -72.5t67 -169.5q0 -31 -8 -63h-336q16 -70 89 -70q63 0 90 46zM300 382q-60 0 -78 -62h160q-17 62 -82 62z" />
    <glyph glyph-name="igrave" unicode="&#xec;" horiz-adv-x="296" 
d="M221 573h-141l-105 127h182zM60 0v500h176v-500h-176z" />
    <glyph glyph-name="iacute" unicode="&#xed;" horiz-adv-x="296" 
d="M76 573l64 127h182l-105 -127h-141zM60 0v500h176v-500h-176z" />
    <glyph glyph-name="icircumflex" unicode="&#xee;" horiz-adv-x="296" 
d="M-43 573l109 127h167l106 -127h-149l-42 59l-42 -59h-149zM60 0v500h176v-500h-176z" />
    <glyph glyph-name="idieresis" unicode="&#xef;" horiz-adv-x="296" 
d="M-4 577v117h123v-117h-123zM177 577v117h123v-117h-123zM60 0v500h176v-500h-176z" />
    <glyph glyph-name="eth" unicode="&#xf0;" horiz-adv-x="628" 
d="M314 -12q-116 0 -195 71t-79 186q0 105 68 177t165 72h9l-37 42l-120 -32l-26 96l74 19l-83 96h212l39 -52l97 26l26 -94l-60 -16l115 -155q69 -91 69 -179q0 -115 -79 -186t-195 -71zM314 140q41 0 69.5 30t28.5 75q0 47 -28 76t-70 29t-70 -29t-28 -76q0 -45 28.5 -75
t69.5 -30z" />
    <glyph glyph-name="ntilde" unicode="&#xf1;" horiz-adv-x="601" 
d="M225 560h-104q-11 70 19 111t91 41q31 0 74 -24t57 -24q32 0 20 48h104q14 -69 -17 -110.5t-93 -41.5q-35 0 -77.5 24t-53.5 24q-32 0 -20 -48zM60 0v500h146l20 -60q20 29 62.5 50.5t95.5 21.5q70 0 117.5 -47t47.5 -139v-326h-176v289q0 32 -18 50t-48 18
q-29 0 -50 -23.5t-21 -68.5v-265h-176z" />
    <glyph glyph-name="ograve" unicode="&#xf2;" horiz-adv-x="628" 
d="M387 574h-141l-105 127h182zM314 -12q-116 0 -195 72t-79 190t79 190t195 72t195 -72t79 -190t-79 -190t-195 -72zM314 140q41 0 69.5 31t28.5 79q0 49 -28.5 79.5t-69.5 30.5t-69.5 -30.5t-28.5 -79.5q0 -48 28.5 -79t69.5 -31z" />
    <glyph glyph-name="oacute" unicode="&#xf3;" horiz-adv-x="628" 
d="M242 574l64 127h182l-105 -127h-141zM314 -12q-116 0 -195 72t-79 190t79 190t195 72t195 -72t79 -190t-79 -190t-195 -72zM314 140q41 0 69.5 31t28.5 79q0 49 -28.5 79.5t-69.5 30.5t-69.5 -30.5t-28.5 -79.5q0 -48 28.5 -79t69.5 -31z" />
    <glyph glyph-name="ocircumflex" unicode="&#xf4;" horiz-adv-x="628" 
d="M123 574l109 127h167l106 -127h-149l-42 59l-42 -59h-149zM314 -12q-116 0 -195 72t-79 190t79 190t195 72t195 -72t79 -190t-79 -190t-195 -72zM314 140q41 0 69.5 31t28.5 79q0 49 -28.5 79.5t-69.5 30.5t-69.5 -30.5t-28.5 -79.5q0 -48 28.5 -79t69.5 -31z" />
    <glyph glyph-name="otilde" unicode="&#xf5;" horiz-adv-x="628" 
d="M235 561h-104q-11 70 19 111t91 41q31 0 74 -24t57 -24q32 0 20 48h104q14 -69 -17 -110.5t-93 -41.5q-35 0 -77.5 24t-53.5 24q-32 0 -20 -48zM314 -12q-116 0 -195 72t-79 190t79 190t195 72t195 -72t79 -190t-79 -190t-195 -72zM314 140q41 0 69.5 31t28.5 79
q0 49 -28.5 79.5t-69.5 30.5t-69.5 -30.5t-28.5 -79.5q0 -48 28.5 -79t69.5 -31z" />
    <glyph glyph-name="odieresis" unicode="&#xf6;" horiz-adv-x="628" 
d="M162 578v117h123v-117h-123zM343 578v117h123v-117h-123zM314 -12q-116 0 -195 72t-79 190t79 190t195 72t195 -72t79 -190t-79 -190t-195 -72zM314 140q41 0 69.5 31t28.5 79q0 49 -28.5 79.5t-69.5 30.5t-69.5 -30.5t-28.5 -79.5q0 -48 28.5 -79t69.5 -31z" />
    <glyph glyph-name="divide" unicode="&#xf7;" 
d="M213 496v154h173v-154h-173zM65 272v156h470v-156h-470zM213 50v154h173v-154h-173z" />
    <glyph glyph-name="oslash" unicode="&#xf8;" horiz-adv-x="628" 
d="M138 -18l-67 54l34 39q-65 70 -65 175q0 118 79 190t195 72q79 0 142 -34l35 40l67 -54l-34 -39q64 -70 64 -175q0 -118 -79 -190t-195 -72q-78 0 -141 34zM216 250q0 -22 6 -40l126 144q-16 6 -34 6q-41 0 -69.5 -30.5t-28.5 -79.5zM314 140q41 0 69.5 31t28.5 79
q0 22 -6 40l-125 -144q15 -6 33 -6z" />
    <glyph glyph-name="ugrave" unicode="&#xf9;" horiz-adv-x="604" 
d="M370 573h-141l-105 127h182zM220 -12q-70 0 -117.5 47t-47.5 139v326h176v-289q0 -32 18 -50t48 -18q29 0 50 23.5t21 68.5v265h176v-500h-146l-20 60q-20 -29 -62.5 -50.5t-95.5 -21.5z" />
    <glyph glyph-name="uacute" unicode="&#xfa;" horiz-adv-x="604" 
d="M225 573l64 127h182l-105 -127h-141zM220 -12q-70 0 -117.5 47t-47.5 139v326h176v-289q0 -32 18 -50t48 -18q29 0 50 23.5t21 68.5v265h176v-500h-146l-20 60q-20 -29 -62.5 -50.5t-95.5 -21.5z" />
    <glyph glyph-name="ucircumflex" unicode="&#xfb;" horiz-adv-x="604" 
d="M106 573l109 127h167l106 -127h-149l-42 59l-42 -59h-149zM220 -12q-70 0 -117.5 47t-47.5 139v326h176v-289q0 -32 18 -50t48 -18q29 0 50 23.5t21 68.5v265h176v-500h-146l-20 60q-20 -29 -62.5 -50.5t-95.5 -21.5z" />
    <glyph glyph-name="udieresis" unicode="&#xfc;" horiz-adv-x="604" 
d="M145 577v117h123v-117h-123zM326 577v117h123v-117h-123zM220 -12q-70 0 -117.5 47t-47.5 139v326h176v-289q0 -32 18 -50t48 -18q29 0 50 23.5t21 68.5v265h176v-500h-146l-20 60q-20 -29 -62.5 -50.5t-95.5 -21.5z" />
    <glyph glyph-name="yacute" unicode="&#xfd;" horiz-adv-x="558" 
d="M208 573l64 127h182l-105 -127h-141zM294 -200h-179l87 234l-202 466h190l97 -282l88 282h183z" />
    <glyph glyph-name="thorn" unicode="&#xfe;" horiz-adv-x="660" 
d="M60 -200v915h176v-266q20 26 58.5 44.5t90.5 18.5q94 0 162 -69t68 -193q0 -69 -22.5 -122t-59 -82t-77 -43.5t-81.5 -14.5q-95 0 -139 52v-240h-176zM439 250q0 51 -29 80.5t-73 29.5q-43 0 -72 -29.5t-29 -80.5t29 -80.5t72 -29.5q44 0 73 29.5t29 80.5z" />
    <glyph glyph-name="ydieresis" unicode="&#xff;" horiz-adv-x="558" 
d="M128 577v117h123v-117h-123zM309 577v117h123v-117h-123zM294 -200h-179l87 234l-202 466h190l97 -282l88 282h183z" />
    <glyph glyph-name="Amacron" unicode="&#x100;" horiz-adv-x="692" 
d="M191 773v112h310v-112h-310zM505 0l-42 125h-234l-43 -125h-186l261 700h175l256 -700h-187zM285 289h122l-61 180z" />
    <glyph glyph-name="amacron" unicode="&#x101;" horiz-adv-x="651" 
d="M170 583v112h310v-112h-310zM266 -12q-91 0 -158.5 71.5t-67.5 190.5q0 65 22 117.5t57.5 83t76 46t80.5 15.5q86 0 135 -47l15 35h165v-500h-155l-25 40q-55 -52 -145 -52zM316 138q43 0 71.5 30t28.5 82t-28.5 82t-71.5 30t-71.5 -30t-28.5 -82t28.5 -82t71.5 -30z" />
    <glyph glyph-name="Abreve" unicode="&#x102;" horiz-adv-x="692" 
d="M346 855q18 0 28 11t10 29h107q0 -64 -39.5 -100.5t-105.5 -36.5t-105.5 36.5t-39.5 100.5h107q0 -18 10 -29t28 -11zM505 0l-42 125h-234l-43 -125h-186l261 700h175l256 -700h-187zM285 289h122l-61 180z" />
    <glyph glyph-name="abreve" unicode="&#x103;" horiz-adv-x="651" 
d="M325 665q18 0 28 11t10 29h107q0 -64 -39.5 -100.5t-105.5 -36.5t-105.5 36.5t-39.5 100.5h107q0 -18 10 -29t28 -11zM266 -12q-91 0 -158.5 71.5t-67.5 190.5q0 65 22 117.5t57.5 83t76 46t80.5 15.5q86 0 135 -47l15 35h165v-500h-155l-25 40q-55 -52 -145 -52z
M316 138q43 0 71.5 30t28.5 82t-28.5 82t-71.5 30t-71.5 -30t-28.5 -82t28.5 -82t71.5 -30z" />
    <glyph glyph-name="Aogonek" unicode="&#x104;" horiz-adv-x="692" 
d="M505 0l-42 125h-234l-43 -125h-186l261 700h175l256 -700h-22q-60 -31 -60 -64q0 -23 22 -23q18 0 40 19l40 -77q-41 -48 -104 -48q-45 0 -74 24t-29 67q0 70 66 102h-66zM285 289h122l-61 180z" />
    <glyph glyph-name="aogonek" unicode="&#x105;" horiz-adv-x="651" 
d="M266 -12q-91 0 -158.5 71.5t-67.5 190.5q0 65 22 117.5t57.5 83t76 46t80.5 15.5q86 0 135 -47l15 35h165v-500h-7q-60 -31 -60 -64q0 -23 22 -23q18 0 40 19l40 -77q-41 -48 -104 -48q-45 0 -74 24t-29 67q0 70 66 102h-49l-25 40q-55 -52 -145 -52zM316 138
q43 0 71.5 30t28.5 82t-28.5 82t-71.5 30t-71.5 -30t-28.5 -82t28.5 -82t71.5 -30z" />
    <glyph glyph-name="Cacute" unicode="&#x106;" horiz-adv-x="723" 
d="M312 763l64 127h182l-105 -127h-141zM384 -12q-151 0 -247.5 103.5t-96.5 258.5q0 159 98.5 260.5t264.5 101.5q105 0 181 -43.5t116 -123.5l-161 -97q-24 48 -57 73t-88 25q-66 0 -113.5 -53t-47.5 -143q0 -95 51 -145.5t120 -50.5q47 0 85.5 24.5t59.5 66.5l166 -73
q-40 -85 -123 -134.5t-208 -49.5z" />
    <glyph glyph-name="cacute" unicode="&#x107;" horiz-adv-x="579" 
d="M232 573l64 127h182l-105 -127h-141zM309 -12q-116 0 -192.5 72t-76.5 190t79 190t195 72q81 0 142 -39t93 -108l-161 -66q-19 61 -79 61q-41 0 -67 -30.5t-26 -79.5q0 -48 28.5 -79t69.5 -31q28 0 49.5 17t29.5 40l162 -64q-27 -63 -94 -104t-152 -41z" />
    <glyph glyph-name="Ccircumflex" unicode="&#x108;" horiz-adv-x="723" 
d="M193 763l109 127h167l106 -127h-149l-42 59l-42 -59h-149zM384 -12q-151 0 -247.5 103.5t-96.5 258.5q0 159 98.5 260.5t264.5 101.5q105 0 181 -43.5t116 -123.5l-161 -97q-24 48 -57 73t-88 25q-66 0 -113.5 -53t-47.5 -143q0 -95 51 -145.5t120 -50.5q47 0 85.5 24.5
t59.5 66.5l166 -73q-40 -85 -123 -134.5t-208 -49.5z" />
    <glyph glyph-name="ccircumflex" unicode="&#x109;" horiz-adv-x="579" 
d="M113 573l109 127h167l106 -127h-149l-42 59l-42 -59h-149zM309 -12q-116 0 -192.5 72t-76.5 190t79 190t195 72q81 0 142 -39t93 -108l-161 -66q-19 61 -79 61q-41 0 -67 -30.5t-26 -79.5q0 -48 28.5 -79t69.5 -31q28 0 49.5 17t29.5 40l162 -64q-27 -63 -94 -104
t-152 -41z" />
    <glyph glyph-name="Cdotaccent" unicode="&#x10a;" horiz-adv-x="723" 
d="M309 755v146h149v-146h-149zM384 -12q-151 0 -247.5 103.5t-96.5 258.5q0 159 98.5 260.5t264.5 101.5q105 0 181 -43.5t116 -123.5l-161 -97q-24 48 -57 73t-88 25q-66 0 -113.5 -53t-47.5 -143q0 -95 51 -145.5t120 -50.5q47 0 85.5 24.5t59.5 66.5l166 -73
q-40 -85 -123 -134.5t-208 -49.5z" />
    <glyph glyph-name="cdotaccent" unicode="&#x10b;" horiz-adv-x="579" 
d="M230 566v146h149v-146h-149zM309 -12q-116 0 -192.5 72t-76.5 190t79 190t195 72q81 0 142 -39t93 -108l-161 -66q-19 61 -79 61q-41 0 -67 -30.5t-26 -79.5q0 -48 28.5 -79t69.5 -31q28 0 49.5 17t29.5 40l162 -64q-27 -63 -94 -104t-152 -41z" />
    <glyph glyph-name="Ccaron" unicode="&#x10c;" horiz-adv-x="723" 
d="M302 763l-109 127h149l42 -59l42 59h149l-106 -127h-167zM384 -12q-151 0 -247.5 103.5t-96.5 258.5q0 159 98.5 260.5t264.5 101.5q105 0 181 -43.5t116 -123.5l-161 -97q-24 48 -57 73t-88 25q-66 0 -113.5 -53t-47.5 -143q0 -95 51 -145.5t120 -50.5q47 0 85.5 24.5
t59.5 66.5l166 -73q-40 -85 -123 -134.5t-208 -49.5z" />
    <glyph glyph-name="ccaron" unicode="&#x10d;" horiz-adv-x="579" 
d="M222 573l-109 127h149l42 -59l42 59h149l-106 -127h-167zM309 -12q-116 0 -192.5 72t-76.5 190t79 190t195 72q81 0 142 -39t93 -108l-161 -66q-19 61 -79 61q-41 0 -67 -30.5t-26 -79.5q0 -48 28.5 -79t69.5 -31q28 0 49.5 17t29.5 40l162 -64q-27 -63 -94 -104
t-152 -41z" />
    <glyph glyph-name="Dcaron" unicode="&#x10e;" horiz-adv-x="723" 
d="M283 763l-109 127h149l42 -59l42 59h149l-106 -127h-167zM65 0v700h273q164 0 254.5 -98t90.5 -252q0 -153 -92 -251.5t-253 -98.5h-273zM258 164h80q69 0 110.5 46t41.5 140t-42 140t-110 46h-80v-372z" />
    <glyph glyph-name="dcaron" unicode="&#x10f;" horiz-adv-x="655" 
d="M429 60q-20 -29 -63 -50.5t-96 -21.5q-94 0 -162 69t-68 193q0 69 22.5 122t59 82t77 43.5t81.5 14.5q95 0 139 -52v255h176v-715h-146zM630 538l35 177h138l-57 -177h-116zM318 360q-44 0 -73 -29.5t-29 -80.5t29 -80.5t73 -29.5q43 0 72 29.5t29 80.5t-29 80.5
t-72 29.5z" />
    <glyph glyph-name="Dcroat" unicode="&#x110;" horiz-adv-x="723" 
d="M65 0v270h-65v160h65v270h273q164 0 254.5 -98t90.5 -252q0 -153 -92 -251.5t-253 -98.5h-273zM258 164h80q69 0 110.5 46t41.5 140t-42 140t-110 46h-80v-106h112v-160h-112v-106z" />
    <glyph glyph-name="dcroat" unicode="&#x111;" horiz-adv-x="655" 
d="M429 60q-20 -29 -63 -50.5t-96 -21.5q-94 0 -162 69t-68 193q0 69 22.5 122t59 82t77 43.5t81.5 14.5q95 0 139 -52v85h-89v88h89v82h176v-82h50v-88h-50v-545h-146zM419 250q0 51 -29 80.5t-72 29.5q-44 0 -73 -29.5t-29 -80.5t29 -80.5t73 -29.5q43 0 72 29.5t29 80.5z
" />
    <glyph glyph-name="Emacron" unicode="&#x112;" horiz-adv-x="631" 
d="M165 773v112h310v-112h-310zM65 0v700h512v-164h-319v-91h299v-164h-299v-117h319v-164h-512z" />
    <glyph glyph-name="emacron" unicode="&#x113;" horiz-adv-x="598" 
d="M145 583v112h310v-112h-310zM542 110q-70 -122 -241 -122q-115 0 -188 71.5t-73 190.5q0 120 71.5 191t188.5 71q129 0 196 -72.5t67 -169.5q0 -31 -8 -63h-336q16 -70 89 -70q63 0 90 46zM300 382q-60 0 -78 -62h160q-17 62 -82 62z" />
    <glyph glyph-name="Ebreve" unicode="&#x114;" horiz-adv-x="631" 
d="M320 855q18 0 28 11t10 29h107q0 -64 -39.5 -100.5t-105.5 -36.5t-105.5 36.5t-39.5 100.5h107q0 -18 10 -29t28 -11zM65 0v700h512v-164h-319v-91h299v-164h-299v-117h319v-164h-512z" />
    <glyph glyph-name="ebreve" unicode="&#x115;" horiz-adv-x="598" 
d="M300 665q18 0 28 11t10 29h107q0 -64 -39.5 -100.5t-105.5 -36.5t-105.5 36.5t-39.5 100.5h107q0 -18 10 -29t28 -11zM542 110q-70 -122 -241 -122q-115 0 -188 71.5t-73 190.5q0 120 71.5 191t188.5 71q129 0 196 -72.5t67 -169.5q0 -31 -8 -63h-336q16 -70 89 -70
q63 0 90 46zM300 382q-60 0 -78 -62h160q-17 62 -82 62z" />
    <glyph glyph-name="Edotaccent" unicode="&#x116;" horiz-adv-x="631" 
d="M245 755v146h149v-146h-149zM65 0v700h512v-164h-319v-91h299v-164h-299v-117h319v-164h-512z" />
    <glyph glyph-name="edotaccent" unicode="&#x117;" horiz-adv-x="598" 
d="M226 566v146h149v-146h-149zM542 110q-70 -122 -241 -122q-115 0 -188 71.5t-73 190.5q0 120 71.5 191t188.5 71q129 0 196 -72.5t67 -169.5q0 -31 -8 -63h-336q16 -70 89 -70q63 0 90 46zM300 382q-60 0 -78 -62h160q-17 62 -82 62z" />
    <glyph glyph-name="Eogonek" unicode="&#x118;" horiz-adv-x="631" 
d="M65 0v700h512v-164h-319v-91h299v-164h-299v-117h319v-164h-12q-60 -31 -60 -64q0 -23 22 -23q18 0 40 19l40 -77q-41 -48 -104 -48q-45 0 -74 24t-29 67q0 70 66 102h-401z" />
    <glyph glyph-name="eogonek" unicode="&#x119;" horiz-adv-x="598" 
d="M301 -12q-115 0 -188 71.5t-73 190.5q0 120 71.5 191t188.5 71q129 0 196 -72.5t67 -169.5q0 -31 -8 -63h-336q16 -70 89 -70q63 0 90 46l144 -73q-25 -46 -76 -81q-48 -32 -48 -78q0 -38 35 -38q18 0 40 19l40 -77q-41 -48 -104 -48q-51 0 -81.5 25t-30.5 69q0 49 36 90
q-25 -3 -52 -3zM222 320h160q-17 62 -82 62q-60 0 -78 -62z" />
    <glyph glyph-name="Ecaron" unicode="&#x11a;" horiz-adv-x="631" 
d="M238 763l-109 127h149l42 -59l42 59h149l-106 -127h-167zM65 0v700h512v-164h-319v-91h299v-164h-299v-117h319v-164h-512z" />
    <glyph glyph-name="ecaron" unicode="&#x11b;" horiz-adv-x="598" 
d="M218 573l-109 127h149l42 -59l42 59h149l-106 -127h-167zM542 110q-70 -122 -241 -122q-115 0 -188 71.5t-73 190.5q0 120 71.5 191t188.5 71q129 0 196 -72.5t67 -169.5q0 -31 -8 -63h-336q16 -70 89 -70q63 0 90 46zM300 382q-60 0 -78 -62h160q-17 62 -82 62z" />
    <glyph glyph-name="Gcircumflex" unicode="&#x11c;" horiz-adv-x="775" 
d="M193 763l109 127h167l106 -127h-149l-42 59l-42 -59h-149zM384 -12q-152 0 -248 103.5t-96 259.5q0 158 98.5 259.5t264.5 101.5q104 0 181 -42t115 -120l-169 -85q-48 81 -135 81q-67 0 -114.5 -52.5t-47.5 -142.5q0 -95 51.5 -146t119.5 -51q52 0 90 29t43 68h-146v154
h334v-405h-131l-29 58q-76 -70 -181 -70z" />
    <glyph glyph-name="gcircumflex" unicode="&#x11d;" horiz-adv-x="605" 
d="M107 573l109 127h167l106 -127h-149l-42 59l-42 -59h-149zM502 369q25 -31 25 -79q0 -28 -13.5 -58t-36.5 -45q39 -22 63.5 -68.5t24.5 -99.5q0 -105 -75 -168t-191 -63q-115 0 -189.5 63t-74.5 168q0 101 87 168q-53 44 -53 123q0 86 60 144t168 58h268v-130zM297 228
q29 0 46 21t17 53q0 31 -17.5 53.5t-45.5 22.5q-27 0 -46 -23t-19 -53q0 -31 18.5 -52.5t46.5 -21.5zM299 -65q36 0 62.5 22.5t26.5 61.5q0 40 -26.5 62.5t-62.5 22.5q-37 0 -62.5 -22.5t-25.5 -62.5q0 -39 26 -61.5t62 -22.5z" />
    <glyph glyph-name="Gbreve" unicode="&#x11e;" horiz-adv-x="775" 
d="M384 855q18 0 28 11t10 29h107q0 -64 -39.5 -100.5t-105.5 -36.5t-105.5 36.5t-39.5 100.5h107q0 -18 10 -29t28 -11zM384 -12q-152 0 -248 103.5t-96 259.5q0 158 98.5 259.5t264.5 101.5q104 0 181 -42t115 -120l-169 -85q-48 81 -135 81q-67 0 -114.5 -52.5
t-47.5 -142.5q0 -95 51.5 -146t119.5 -51q52 0 90 29t43 68h-146v154h334v-405h-131l-29 58q-76 -70 -181 -70z" />
    <glyph glyph-name="gbreve" unicode="&#x11f;" horiz-adv-x="605" 
d="M298 665q18 0 28 11t10 29h107q0 -64 -39.5 -100.5t-105.5 -36.5t-105.5 36.5t-39.5 100.5h107q0 -18 10 -29t28 -11zM502 369q25 -31 25 -79q0 -28 -13.5 -58t-36.5 -45q39 -22 63.5 -68.5t24.5 -99.5q0 -105 -75 -168t-191 -63q-115 0 -189.5 63t-74.5 168
q0 101 87 168q-53 44 -53 123q0 86 60 144t168 58h268v-130zM297 228q29 0 46 21t17 53q0 31 -17.5 53.5t-45.5 22.5q-27 0 -46 -23t-19 -53q0 -31 18.5 -52.5t46.5 -21.5zM299 -65q36 0 62.5 22.5t26.5 61.5q0 40 -26.5 62.5t-62.5 22.5q-37 0 -62.5 -22.5t-25.5 -62.5
q0 -39 26 -61.5t62 -22.5z" />
    <glyph glyph-name="Gdotaccent" unicode="&#x120;" horiz-adv-x="775" 
d="M309 755v146h149v-146h-149zM384 -12q-152 0 -248 103.5t-96 259.5q0 158 98.5 259.5t264.5 101.5q104 0 181 -42t115 -120l-169 -85q-48 81 -135 81q-67 0 -114.5 -52.5t-47.5 -142.5q0 -95 51.5 -146t119.5 -51q52 0 90 29t43 68h-146v154h334v-405h-131l-29 58
q-76 -70 -181 -70z" />
    <glyph glyph-name="gdotaccent" unicode="&#x121;" horiz-adv-x="605" 
d="M224 566v146h149v-146h-149zM502 369q25 -31 25 -79q0 -28 -13.5 -58t-36.5 -45q39 -22 63.5 -68.5t24.5 -99.5q0 -105 -75 -168t-191 -63q-115 0 -189.5 63t-74.5 168q0 101 87 168q-53 44 -53 123q0 86 60 144t168 58h268v-130zM297 228q29 0 46 21t17 53
q0 31 -17.5 53.5t-45.5 22.5q-27 0 -46 -23t-19 -53q0 -31 18.5 -52.5t46.5 -21.5zM299 -65q36 0 62.5 22.5t26.5 61.5q0 40 -26.5 62.5t-62.5 22.5q-37 0 -62.5 -22.5t-25.5 -62.5q0 -39 26 -61.5t62 -22.5z" />
    <glyph glyph-name="Gcommaaccent" unicode="&#x122;" horiz-adv-x="775" 
d="M384 -12q-152 0 -248 103.5t-96 259.5q0 158 98.5 259.5t264.5 101.5q104 0 181 -42t115 -120l-169 -85q-48 81 -135 81q-67 0 -114.5 -52.5t-47.5 -142.5q0 -95 51.5 -146t119.5 -51q52 0 90 29t43 68h-146v154h334v-405h-131l-29 58q-76 -70 -181 -70zM282 -230l24 157
h165l-70 -157h-119z" />
    <glyph glyph-name="gcommaaccent" unicode="&#x123;" horiz-adv-x="605" 
d="M197 560l70 157h119l-24 -157h-165zM502 369q25 -31 25 -79q0 -28 -13.5 -58t-36.5 -45q39 -22 63.5 -68.5t24.5 -99.5q0 -105 -75 -168t-191 -63q-115 0 -189.5 63t-74.5 168q0 101 87 168q-53 44 -53 123q0 86 60 144t168 58h268v-130zM297 228q29 0 46 21t17 53
q0 31 -17.5 53.5t-45.5 22.5q-27 0 -46 -23t-19 -53q0 -31 18.5 -52.5t46.5 -21.5zM299 -65q36 0 62.5 22.5t26.5 61.5q0 40 -26.5 62.5t-62.5 22.5q-37 0 -62.5 -22.5t-25.5 -62.5q0 -39 26 -61.5t62 -22.5z" />
    <glyph glyph-name="Hcircumflex" unicode="&#x124;" horiz-adv-x="727" 
d="M172 763l109 127h167l106 -127h-149l-42 59l-42 -59h-149zM65 0v700h193v-255h211v255h193v-700h-193v281h-211v-281h-193z" />
    <glyph glyph-name="hcircumflex" unicode="&#x125;" horiz-adv-x="601" 
d="M-46 786l109 127h167l106 -127h-149l-42 59l-42 -59h-149zM60 0v715h176v-249q49 46 148 46q70 0 117.5 -47t47.5 -139v-326h-176v289q0 32 -18 50t-48 18q-29 0 -50 -23.5t-21 -68.5v-265h-176z" />
    <glyph glyph-name="Hbar" unicode="&#x126;" horiz-adv-x="727" 
d="M65 0v512h-65v93h65v95h193v-95h211v95h193v-95h65v-93h-65v-512h-193v281h-211v-281h-193zM258 445h211v67h-211v-67z" />
    <glyph glyph-name="hbar" unicode="&#x127;" horiz-adv-x="601" 
d="M236 265v-265h-176v545h-50v88h50v82h176v-82h89v-88h-89v-79q49 46 148 46q70 0 117.5 -47t47.5 -139v-326h-176v289q0 32 -18 50t-48 18q-29 0 -50 -23.5t-21 -68.5z" />
    <glyph glyph-name="Itilde" unicode="&#x128;" horiz-adv-x="323" 
d="M82 750h-104q-11 70 19 111t91 41q32 0 75 -24t56 -24q32 0 20 48h104q14 -69 -17 -110.5t-93 -41.5q-35 0 -77.5 24t-53.5 24q-32 0 -20 -48zM65 0v700h193v-700h-193z" />
    <glyph glyph-name="itilde" unicode="&#x129;" horiz-adv-x="296" 
d="M69 560h-104q-11 70 19 111t91 41q31 0 74 -24t57 -24q32 0 20 48h104q14 -69 -17 -110.5t-93 -41.5q-35 0 -77.5 24t-53.5 24q-32 0 -20 -48zM60 0v500h176v-500h-176z" />
    <glyph glyph-name="Imacron" unicode="&#x12a;" horiz-adv-x="323" 
d="M6 773v112h310v-112h-310zM65 0v700h193v-700h-193z" />
    <glyph glyph-name="imacron" unicode="&#x12b;" horiz-adv-x="296" 
d="M-7 583v112h310v-112h-310zM60 0v500h176v-500h-176z" />
    <glyph glyph-name="Ibreve" unicode="&#x12c;" horiz-adv-x="323" 
d="M161 855q18 0 28 11t10 29h107q0 -64 -39.5 -100.5t-105.5 -36.5t-105.5 36.5t-39.5 100.5h107q0 -18 10 -29t28 -11zM65 0v700h193v-700h-193z" />
    <glyph glyph-name="ibreve" unicode="&#x12d;" horiz-adv-x="296" 
d="M148 665q18 0 28 11t10 29h107q0 -64 -39.5 -100.5t-105.5 -36.5t-105.5 36.5t-39.5 100.5h107q0 -18 10 -29t28 -11zM60 0v500h176v-500h-176z" />
    <glyph glyph-name="Iogonek" unicode="&#x12e;" horiz-adv-x="323" 
d="M65 0v700h193v-700h-32q-60 -31 -60 -64q0 -23 22 -23q18 0 40 19l40 -77q-41 -48 -104 -48q-45 0 -74 24t-29 67q0 70 66 102h-62z" />
    <glyph glyph-name="iogonek" unicode="&#x12f;" horiz-adv-x="296" 
d="M60 550v165h176v-165h-176zM60 0v500h176v-500h-20q-60 -31 -60 -64q0 -23 22 -23q18 0 40 19l40 -77q-41 -48 -104 -48q-45 0 -74 24t-29 67q0 70 66 102h-57z" />
    <glyph glyph-name="Idotaccent" unicode="&#x130;" horiz-adv-x="323" 
d="M86 755v146h149v-146h-149zM65 0v700h193v-700h-193z" />
    <glyph glyph-name="dotlessi" unicode="&#x131;" horiz-adv-x="296" 
d="M60 0v500h176v-500h-176z" />
    <glyph glyph-name="IJ" unicode="&#x132;" horiz-adv-x="880" 
d="M65 0v700h193v-700h-193zM558 -12q-173 0 -235 150l152 80q29 -66 83 -66q38 0 58.5 22.5t20.5 63.5v462h193v-475q0 -111 -70 -174t-202 -63z" />
    <glyph glyph-name="ij" unicode="&#x133;" horiz-adv-x="546" 
d="M60 550v165h176v-165h-176zM333 550v165h177v-165h-177zM60 0v500h176v-500h-176zM333 -212v712h177v-682z" />
    <glyph glyph-name="Jcircumflex" unicode="&#x134;" horiz-adv-x="562" 
d="M219 763l109 127h167l106 -127h-149l-42 59l-42 -59h-149zM235 -12q-173 0 -235 150l152 80q29 -66 83 -66q38 0 58.5 22.5t20.5 63.5v462h193v-475q0 -111 -70 -174t-202 -63z" />
    <glyph glyph-name="jcircumflex" unicode="&#x135;" horiz-adv-x="297" 
d="M-43 573l109 127h167l106 -127h-149l-42 59l-42 -59h-149zM60 -212v712h177v-682z" />
    <glyph glyph-name="Kcommaaccent" unicode="&#x136;" horiz-adv-x="700" 
d="M65 0v700h193v-237l186 237h236l-270 -330l290 -370h-245l-197 260v-260h-193zM248 -230l24 157h165l-70 -157h-119z" />
    <glyph glyph-name="kcommaaccent" unicode="&#x137;" horiz-adv-x="596" 
d="M60 0v715h176v-368l125 153h210l-206 -228l216 -272h-222l-123 170v-170h-176zM213 -230l24 157h165l-70 -157h-119z" />
    <glyph glyph-name="Lacute" unicode="&#x139;" horiz-adv-x="585" 
d="M89 763l64 127h182l-105 -127h-141zM65 0v700h193v-536h307v-164h-500z" />
    <glyph glyph-name="lacute" unicode="&#x13a;" horiz-adv-x="296" 
d="M76 786l64 127h182l-105 -127h-141zM60 0v715h176v-715h-176z" />
    <glyph glyph-name="Lcommaaccent" unicode="&#x13b;" horiz-adv-x="585" 
d="M65 0v700h193v-536h307v-164h-500zM213 -230l24 157h165l-70 -157h-119z" />
    <glyph glyph-name="lcommaaccent" unicode="&#x13c;" horiz-adv-x="296" 
d="M60 0v715h176v-715h-176zM46 -230l24 157h165l-70 -157h-119z" />
    <glyph glyph-name="Lcaron" unicode="&#x13d;" horiz-adv-x="585" 
d="M65 0v700h193v-536h307v-164h-500zM325 523l35 177h138l-57 -177h-116z" />
    <glyph glyph-name="lcaron" unicode="&#x13e;" horiz-adv-x="296" 
d="M60 0v715h176v-715h-176zM297 538l35 177h138l-57 -177h-116z" />
    <glyph glyph-name="Ldot" unicode="&#x13f;" horiz-adv-x="585" 
d="M65 0v700h193v-536h307v-164h-500zM380 332v146h149v-146h-149z" />
    <glyph glyph-name="ldot" unicode="&#x140;" horiz-adv-x="446" 
d="M60 0v715h176v-715h-176zM296 227v146h149v-146h-149z" />
    <glyph glyph-name="Lslash" unicode="&#x141;" horiz-adv-x="585" 
d="M65 0v206l-65 -32v146l65 32v348h193v-253l147 72v-144l-147 -73v-138h307v-164h-500z" />
    <glyph glyph-name="lslash" unicode="&#x142;" horiz-adv-x="296" 
d="M60 0v192l-45 -27v124l45 27v399h176v-295l84 50v-124l-84 -50v-296h-176z" />
    <glyph glyph-name="Nacute" unicode="&#x143;" horiz-adv-x="733" 
d="M294 763l64 127h182l-105 -127h-141zM65 0v700h213l202 -390v390h188v-700h-213l-202 375v-375h-188z" />
    <glyph glyph-name="nacute" unicode="&#x144;" horiz-adv-x="601" 
d="M232 573l64 127h182l-105 -127h-141zM60 0v500h146l20 -60q20 29 62.5 50.5t95.5 21.5q70 0 117.5 -47t47.5 -139v-326h-176v289q0 32 -18 50t-48 18q-29 0 -50 -23.5t-21 -68.5v-265h-176z" />
    <glyph glyph-name="Ncommaaccent" unicode="&#x145;" horiz-adv-x="733" 
d="M65 0v700h213l202 -390v390h188v-700h-213l-202 375v-375h-188zM264 -230l24 157h165l-70 -157h-119z" />
    <glyph glyph-name="ncommaaccent" unicode="&#x146;" horiz-adv-x="601" 
d="M60 0v500h146l20 -60q20 29 62.5 50.5t95.5 21.5q70 0 117.5 -47t47.5 -139v-326h-176v289q0 32 -18 50t-48 18q-29 0 -50 -23.5t-21 -68.5v-265h-176zM202 -230l24 157h165l-70 -157h-119z" />
    <glyph glyph-name="Ncaron" unicode="&#x147;" horiz-adv-x="733" 
d="M284 763l-109 127h149l42 -59l42 59h149l-106 -127h-167zM65 0v700h213l202 -390v390h188v-700h-213l-202 375v-375h-188z" />
    <glyph glyph-name="ncaron" unicode="&#x148;" horiz-adv-x="601" 
d="M222 573l-109 127h149l42 -59l42 59h149l-106 -127h-167zM60 0v500h146l20 -60q20 29 62.5 50.5t95.5 21.5q70 0 117.5 -47t47.5 -139v-326h-176v289q0 32 -18 50t-48 18q-29 0 -50 -23.5t-21 -68.5v-265h-176z" />
    <glyph glyph-name="Eng" unicode="&#x14a;" horiz-adv-x="733" 
d="M480 28v14l-227 342v-384h-188v700h203l212 -335v335h188v-690q0 -100 -65.5 -161t-172.5 -61q-60 0 -103 12l34 159q24 -6 44 -6q75 0 75 75z" />
    <glyph glyph-name="eng" unicode="&#x14b;" horiz-adv-x="601" 
d="M60 0v500h146l20 -60q20 29 62.5 50.5t95.5 21.5q70 0 117.5 -47t47.5 -139v-476l-176 -30v469q0 32 -18 50t-48 18q-29 0 -50 -23.5t-21 -68.5v-265h-176z" />
    <glyph glyph-name="Omacron" unicode="&#x14c;" horiz-adv-x="808" 
d="M249 773v112h310v-112h-310zM403 -12q-163 0 -263 103t-100 259q0 159 98.5 260.5t264.5 101.5t265.5 -102t99.5 -260q0 -156 -101 -259t-264 -103zM404 152q69 0 120 51.5t51 146.5t-51 146.5t-120 51.5t-120 -51.5t-51 -146.5t51 -146.5t120 -51.5z" />
    <glyph glyph-name="omacron" unicode="&#x14d;" horiz-adv-x="628" 
d="M159 584v112h310v-112h-310zM314 -12q-116 0 -195 72t-79 190t79 190t195 72t195 -72t79 -190t-79 -190t-195 -72zM314 140q41 0 69.5 31t28.5 79q0 49 -28.5 79.5t-69.5 30.5t-69.5 -30.5t-28.5 -79.5q0 -48 28.5 -79t69.5 -31z" />
    <glyph glyph-name="Obreve" unicode="&#x14e;" horiz-adv-x="808" 
d="M404 855q18 0 28 11t10 29h107q0 -64 -39.5 -100.5t-105.5 -36.5t-105.5 36.5t-39.5 100.5h107q0 -18 10 -29t28 -11zM403 -12q-163 0 -263 103t-100 259q0 159 98.5 260.5t264.5 101.5t265.5 -102t99.5 -260q0 -156 -101 -259t-264 -103zM404 152q69 0 120 51.5
t51 146.5t-51 146.5t-120 51.5t-120 -51.5t-51 -146.5t51 -146.5t120 -51.5z" />
    <glyph glyph-name="obreve" unicode="&#x14f;" horiz-adv-x="628" 
d="M314 666q18 0 28 11t10 29h107q0 -64 -39.5 -100.5t-105.5 -36.5t-105.5 36.5t-39.5 100.5h107q0 -18 10 -29t28 -11zM314 -12q-116 0 -195 72t-79 190t79 190t195 72t195 -72t79 -190t-79 -190t-195 -72zM314 140q41 0 69.5 31t28.5 79q0 49 -28.5 79.5t-69.5 30.5
t-69.5 -30.5t-28.5 -79.5q0 -48 28.5 -79t69.5 -31z" />
    <glyph glyph-name="Ohungarumlaut" unicode="&#x150;" horiz-adv-x="808" 
d="M437 763l35 127h124l-68 -127h-91zM280 763l35 127h124l-68 -127h-91zM403 -12q-163 0 -263 103t-100 259q0 159 98.5 260.5t264.5 101.5t265.5 -102t99.5 -260q0 -156 -101 -259t-264 -103zM404 152q69 0 120 51.5t51 146.5t-51 146.5t-120 51.5t-120 -51.5t-51 -146.5
t51 -146.5t120 -51.5z" />
    <glyph glyph-name="ohungarumlaut" unicode="&#x151;" horiz-adv-x="628" 
d="M347 574l35 127h124l-68 -127h-91zM190 574l35 127h124l-68 -127h-91zM314 -12q-116 0 -195 72t-79 190t79 190t195 72t195 -72t79 -190t-79 -190t-195 -72zM314 140q41 0 69.5 31t28.5 79q0 49 -28.5 79.5t-69.5 30.5t-69.5 -30.5t-28.5 -79.5q0 -48 28.5 -79t69.5 -31z
" />
    <glyph glyph-name="OE" unicode="&#x152;" horiz-adv-x="1031" 
d="M40 350q0 154 90.5 252t254.5 98h592v-164h-319v-91h299v-164h-299v-117h319v-164h-592q-161 0 -253 98.5t-92 251.5zM465 164v372h-80q-68 0 -110 -46t-42 -140t41.5 -140t110.5 -46h80z" />
    <glyph glyph-name="oe" unicode="&#x153;" horiz-adv-x="981" 
d="M314 -12q-116 0 -195 72t-79 190t79 190t195 72q61 0 110.5 -23t77.5 -62q25 36 76.5 60.5t105.5 24.5q129 0 196 -72.5t67 -169.5q0 -31 -8 -63h-338q8 -33 32 -51.5t59 -18.5q63 0 90 46l144 -73q-70 -122 -241 -122q-122 0 -182 86q-24 -35 -76 -60.5t-113 -25.5z
M604 320h162q-6 25 -28.5 43.5t-53.5 18.5q-32 0 -53.5 -18.5t-26.5 -43.5zM314 140q41 0 69.5 31t28.5 79q0 49 -28.5 79.5t-69.5 30.5t-69.5 -30.5t-28.5 -79.5q0 -48 28.5 -79t69.5 -31z" />
    <glyph glyph-name="Racute" unicode="&#x154;" horiz-adv-x="660" 
d="M253 763l64 127h182l-105 -127h-141zM65 0v700h254q129 0 195 -53.5t66 -148.5q0 -68 -29.5 -110t-92.5 -73l182 -315h-216l-153 276h-13v-276h-193zM258 436h66q29 0 46 13.5t17 38.5t-17 38.5t-46 13.5h-66v-104z" />
    <glyph glyph-name="racute" unicode="&#x155;" horiz-adv-x="454" 
d="M173 573l64 127h182l-105 -127h-141zM60 0v500h147l13 -65q37 77 139 77q43 0 73 -14l-33 -179q-33 21 -76 21q-37 0 -62 -24.5t-25 -74.5v-241h-176z" />
    <glyph glyph-name="Rcommaaccent" unicode="&#x156;" horiz-adv-x="660" 
d="M65 0v700h254q129 0 195 -53.5t66 -148.5q0 -68 -29.5 -110t-92.5 -73l182 -315h-216l-153 276h-13v-276h-193zM258 436h66q29 0 46 13.5t17 38.5t-17 38.5t-46 13.5h-66v-104zM223 -230l24 157h165l-70 -157h-119z" />
    <glyph glyph-name="rcommaaccent" unicode="&#x157;" horiz-adv-x="454" 
d="M60 0v500h147l13 -65q37 77 139 77q43 0 73 -14l-33 -179q-33 21 -76 21q-37 0 -62 -24.5t-25 -74.5v-241h-176zM46 -230l24 157h165l-70 -157h-119z" />
    <glyph glyph-name="Rcaron" unicode="&#x158;" horiz-adv-x="660" 
d="M243 763l-109 127h149l42 -59l42 59h149l-106 -127h-167zM65 0v700h254q129 0 195 -53.5t66 -148.5q0 -68 -29.5 -110t-92.5 -73l182 -315h-216l-153 276h-13v-276h-193zM258 436h66q29 0 46 13.5t17 38.5t-17 38.5t-46 13.5h-66v-104z" />
    <glyph glyph-name="rcaron" unicode="&#x159;" horiz-adv-x="454" 
d="M163 573l-109 127h149l42 -59l42 59h149l-106 -127h-167zM60 0v500h147l13 -65q37 77 139 77q43 0 73 -14l-33 -179q-33 21 -76 21q-37 0 -62 -24.5t-25 -74.5v-241h-176z" />
    <glyph glyph-name="Sacute" unicode="&#x15a;" horiz-adv-x="575" 
d="M215 763l64 127h182l-105 -127h-141zM293 -12q-206 0 -273 192l153 65q15 -46 48.5 -72t74.5 -26q70 0 70 53q0 22 -15 38.5t-56 36.5l-103 51q-123 62 -123 200q0 83 64 134.5t169 51.5q160 0 204 -120l-147 -76q-19 42 -57 42q-40 0 -40 -32q0 -26 38 -46l105 -55
q79 -41 114.5 -92.5t35.5 -129.5q0 -88 -72.5 -151.5t-189.5 -63.5z" />
    <glyph glyph-name="sacute" unicode="&#x15b;" horiz-adv-x="466" 
d="M157 573l64 127h182l-105 -127h-141zM231 -12q-84 0 -137.5 35.5t-73.5 96.5l131 60q29 -60 85 -60q42 0 42 26q0 23 -52 42l-61 22q-115 41 -115 155q0 65 52 106t131 41q131 0 175 -93l-123 -64q-17 36 -46 36q-27 0 -27 -20q0 -16 23 -25l68 -25q65 -24 100 -63.5
t35 -107.5q0 -72 -56 -117t-151 -45z" />
    <glyph glyph-name="Scircumflex" unicode="&#x15c;" horiz-adv-x="575" 
d="M96 763l109 127h167l106 -127h-149l-42 59l-42 -59h-149zM293 -12q-206 0 -273 192l153 65q15 -46 48.5 -72t74.5 -26q70 0 70 53q0 22 -15 38.5t-56 36.5l-103 51q-123 62 -123 200q0 83 64 134.5t169 51.5q160 0 204 -120l-147 -76q-19 42 -57 42q-40 0 -40 -32
q0 -26 38 -46l105 -55q79 -41 114.5 -92.5t35.5 -129.5q0 -88 -72.5 -151.5t-189.5 -63.5z" />
    <glyph glyph-name="scircumflex" unicode="&#x15d;" horiz-adv-x="466" 
d="M38 573l109 127h167l106 -127h-149l-42 59l-42 -59h-149zM231 -12q-84 0 -137.5 35.5t-73.5 96.5l131 60q29 -60 85 -60q42 0 42 26q0 23 -52 42l-61 22q-115 41 -115 155q0 65 52 106t131 41q131 0 175 -93l-123 -64q-17 36 -46 36q-27 0 -27 -20q0 -16 23 -25l68 -25
q65 -24 100 -63.5t35 -107.5q0 -72 -56 -117t-151 -45z" />
    <glyph glyph-name="Scedilla" unicode="&#x15e;" horiz-adv-x="575" 
d="M236 -117l-59 49l52 61q-152 26 -209 187l153 65q15 -46 48.5 -72t74.5 -26q70 0 70 53q0 22 -15 38.5t-56 36.5l-103 51q-123 62 -123 200q0 83 64 134.5t169 51.5q160 0 204 -120l-147 -76q-19 42 -57 42q-40 0 -40 -32q0 -26 38 -46l105 -55q79 -41 114.5 -92.5
t35.5 -129.5q0 -82 -64 -143.5t-169 -70.5l-23 -27q42 0 71.5 -26.5t29.5 -66.5q0 -45 -34 -77t-99 -32q-66 0 -119 40l48 75q35 -30 66 -30q14 0 24 6.5t10 17.5t-8.5 17.5t-21.5 6.5q-18 0 -30 -10z" />
    <glyph glyph-name="scedilla" unicode="&#x15f;" horiz-adv-x="466" 
d="M178 -117l-59 49l53 61q-118 24 -152 127l131 60q29 -60 85 -60q42 0 42 26q0 23 -52 42l-61 22q-115 41 -115 155q0 65 52 106t131 41q131 0 175 -93l-123 -64q-17 36 -46 36q-27 0 -27 -20q0 -16 23 -25l68 -25q65 -24 100 -63.5t35 -107.5q0 -65 -46.5 -109
t-127.5 -51l-23 -28q42 0 71.5 -26.5t29.5 -66.5q0 -45 -34 -77t-99 -32q-66 0 -119 40l48 75q35 -30 66 -30q14 0 24 6.5t10 17.5t-8.5 17.5t-21.5 6.5q-18 0 -30 -10z" />
    <glyph glyph-name="Scaron" unicode="&#x160;" horiz-adv-x="575" 
d="M205 763l-109 127h149l42 -59l42 59h149l-106 -127h-167zM293 -12q-206 0 -273 192l153 65q15 -46 48.5 -72t74.5 -26q70 0 70 53q0 22 -15 38.5t-56 36.5l-103 51q-123 62 -123 200q0 83 64 134.5t169 51.5q160 0 204 -120l-147 -76q-19 42 -57 42q-40 0 -40 -32
q0 -26 38 -46l105 -55q79 -41 114.5 -92.5t35.5 -129.5q0 -88 -72.5 -151.5t-189.5 -63.5z" />
    <glyph glyph-name="scaron" unicode="&#x161;" horiz-adv-x="466" 
d="M147 573l-109 127h149l42 -59l42 59h149l-106 -127h-167zM231 -12q-84 0 -137.5 35.5t-73.5 96.5l131 60q29 -60 85 -60q42 0 42 26q0 23 -52 42l-61 22q-115 41 -115 155q0 65 52 106t131 41q131 0 175 -93l-123 -64q-17 36 -46 36q-27 0 -27 -20q0 -16 23 -25l68 -25
q65 -24 100 -63.5t35 -107.5q0 -72 -56 -117t-151 -45z" />
    <glyph glyph-name="Tcommaaccent" unicode="&#x162;" horiz-adv-x="559" 
d="M183 0v536h-173v164h539v-164h-173v-536h-193zM178 -230l24 157h165l-70 -157h-119z" />
    <glyph glyph-name="tcommaaccent" unicode="&#x163;" horiz-adv-x="394" 
d="M97 0v372h-77v128h77v130l176 33v-163h101v-128h-101v-372h-176zM83 -230l24 157h165l-70 -157h-119z" />
    <glyph glyph-name="Tcaron" unicode="&#x164;" horiz-adv-x="559" 
d="M198 763l-109 127h149l42 -59l42 59h149l-106 -127h-167zM183 0v536h-173v164h539v-164h-173v-536h-193z" />
    <glyph glyph-name="tcaron" unicode="&#x165;" horiz-adv-x="394" 
d="M320 538l35 177h138l-57 -177h-116zM97 0v372h-77v128h77v130l176 33v-163h101v-128h-101v-372h-176z" />
    <glyph glyph-name="Tbar" unicode="&#x166;" horiz-adv-x="559" 
d="M183 0v245h-118v145h118v146h-173v164h539v-164h-173v-146h118v-145h-118v-245h-193z" />
    <glyph glyph-name="tbar" unicode="&#x167;" horiz-adv-x="394" 
d="M97 0v200h-57v88h57v84h-77v128h77v130l176 33v-163h101v-128h-101v-84h72v-88h-72v-200h-176z" />
    <glyph glyph-name="Utilde" unicode="&#x168;" horiz-adv-x="730" 
d="M286 750h-104q-11 70 19 111t91 41q32 0 75 -24t56 -24q32 0 20 48h104q14 -69 -17 -110.5t-93 -41.5q-35 0 -77.5 24t-53.5 24q-32 0 -20 -48zM365 -12q-143 0 -226.5 82t-83.5 222v408h193v-395q0 -153 117 -153t117 153v395h193v-408q0 -140 -83.5 -222t-226.5 -82z
" />
    <glyph glyph-name="utilde" unicode="&#x169;" horiz-adv-x="604" 
d="M218 560h-104q-11 70 19 111t91 41q32 0 75 -24t56 -24q32 0 20 48h104q14 -69 -17 -110.5t-93 -41.5q-35 0 -77.5 24t-53.5 24q-32 0 -20 -48zM220 -12q-70 0 -117.5 47t-47.5 139v326h176v-289q0 -32 18 -50t48 -18q29 0 50 23.5t21 68.5v265h176v-500h-146l-20 60
q-20 -29 -62.5 -50.5t-95.5 -21.5z" />
    <glyph glyph-name="Umacron" unicode="&#x16a;" horiz-adv-x="730" 
d="M210 773v112h310v-112h-310zM365 -12q-143 0 -226.5 82t-83.5 222v408h193v-395q0 -153 117 -153t117 153v395h193v-408q0 -140 -83.5 -222t-226.5 -82z" />
    <glyph glyph-name="umacron" unicode="&#x16b;" horiz-adv-x="604" 
d="M142 583v112h310v-112h-310zM220 -12q-70 0 -117.5 47t-47.5 139v326h176v-289q0 -32 18 -50t48 -18q29 0 50 23.5t21 68.5v265h176v-500h-146l-20 60q-20 -29 -62.5 -50.5t-95.5 -21.5z" />
    <glyph glyph-name="Ubreve" unicode="&#x16c;" horiz-adv-x="730" 
d="M365 855q18 0 28 11t10 29h107q0 -64 -39.5 -100.5t-105.5 -36.5t-105.5 36.5t-39.5 100.5h107q0 -18 10 -29t28 -11zM365 -12q-143 0 -226.5 82t-83.5 222v408h193v-395q0 -153 117 -153t117 153v395h193v-408q0 -140 -83.5 -222t-226.5 -82z" />
    <glyph glyph-name="ubreve" unicode="&#x16d;" horiz-adv-x="604" 
d="M297 665q18 0 28 11t10 29h107q0 -64 -39.5 -100.5t-105.5 -36.5t-105.5 36.5t-39.5 100.5h107q0 -18 10 -29t28 -11zM220 -12q-70 0 -117.5 47t-47.5 139v326h176v-289q0 -32 18 -50t48 -18q29 0 50 23.5t21 68.5v265h176v-500h-146l-20 60q-20 -29 -62.5 -50.5
t-95.5 -21.5z" />
    <glyph glyph-name="Uring" unicode="&#x16e;" horiz-adv-x="730" 
d="M254 844q0 44 32 76.5t79 32.5t79 -32.5t32 -76.5t-32.5 -76.5t-78.5 -32.5q-47 0 -79 32.5t-32 76.5zM365 870q-11 0 -18.5 -8t-7.5 -18t7.5 -17.5t18.5 -7.5t18 7.5t7 17.5q0 11 -7.5 18.5t-17.5 7.5zM365 -12q-143 0 -226.5 82t-83.5 222v408h193v-395
q0 -153 117 -153t117 153v395h193v-408q0 -140 -83.5 -222t-226.5 -82z" />
    <glyph glyph-name="uring" unicode="&#x16f;" horiz-adv-x="604" 
d="M186 654q0 44 32 76.5t79 32.5t79 -32.5t32 -76.5t-32.5 -76.5t-78.5 -32.5q-47 0 -79 32.5t-32 76.5zM297 680q-11 0 -18.5 -8t-7.5 -18t7.5 -17.5t18.5 -7.5t18 7.5t7 17.5q0 11 -7.5 18.5t-17.5 7.5zM220 -12q-70 0 -117.5 47t-47.5 139v326h176v-289q0 -32 18 -50
t48 -18q29 0 50 23.5t21 68.5v265h176v-500h-146l-20 60q-20 -29 -62.5 -50.5t-95.5 -21.5z" />
    <glyph glyph-name="Uhungarumlaut" unicode="&#x170;" horiz-adv-x="730" 
d="M398 763l35 127h124l-68 -127h-91zM241 763l35 127h124l-68 -127h-91zM365 -12q-143 0 -226.5 82t-83.5 222v408h193v-395q0 -153 117 -153t117 153v395h193v-408q0 -140 -83.5 -222t-226.5 -82z" />
    <glyph glyph-name="uhungarumlaut" unicode="&#x171;" horiz-adv-x="604" 
d="M330 573l35 127h124l-68 -127h-91zM173 573l35 127h124l-68 -127h-91zM220 -12q-70 0 -117.5 47t-47.5 139v326h176v-289q0 -32 18 -50t48 -18q29 0 50 23.5t21 68.5v265h176v-500h-146l-20 60q-20 -29 -62.5 -50.5t-95.5 -21.5z" />
    <glyph glyph-name="Uogonek" unicode="&#x172;" horiz-adv-x="730" 
d="M401 -193q-45 0 -74 24t-29 67q0 58 47 90q-134 7 -212 88.5t-78 215.5v408h193v-395q0 -153 117 -153t117 153v395h193v-408q0 -113 -56.5 -190t-156.5 -103q-59 -29 -59 -63q0 -23 22 -23q18 0 40 19l40 -77q-41 -48 -104 -48z" />
    <glyph glyph-name="uogonek" unicode="&#x173;" horiz-adv-x="604" 
d="M220 -12q-70 0 -117.5 47t-47.5 139v326h176v-289q0 -32 18 -50t48 -18q29 0 50 23.5t21 68.5v265h176v-500h-12q-60 -31 -60 -64q0 -23 22 -23q18 0 40 19l40 -77q-41 -48 -104 -48q-45 0 -74 24t-29 67q0 70 66 102h-35l-20 60q-20 -29 -62.5 -50.5t-95.5 -21.5z" />
    <glyph glyph-name="Wcircumflex" unicode="&#x174;" horiz-adv-x="979" 
d="M284 763l109 127h167l106 -127h-149l-42 59l-42 -59h-149zM551 0l-59 155l-61 -155h-153l-268 700h191l171 -461l44 118l-130 343h181l37 -107l41 107h161l-126 -322l45 -130l168 452h176l-273 -700h-145z" />
    <glyph glyph-name="wcircumflex" unicode="&#x175;" horiz-adv-x="810" 
d="M194 573l109 127h167l106 -127h-149l-42 59l-42 -59h-149zM164 0l-164 500h178l79 -315l72 202l-39 113h178l87 -315l76 315h179l-164 -500h-182l-59 169l-59 -169h-182z" />
    <glyph glyph-name="Ycircumflex" unicode="&#x176;" horiz-adv-x="628" 
d="M123 763l109 127h167l106 -127h-149l-42 59l-42 -59h-149zM217 0v277l-207 423h199l105 -241l105 241h199l-208 -423v-277h-193z" />
    <glyph glyph-name="ycircumflex" unicode="&#x177;" horiz-adv-x="558" 
d="M89 573l109 127h167l106 -127h-149l-42 59l-42 -59h-149zM294 -200h-179l87 234l-202 466h190l97 -282l88 282h183z" />
    <glyph glyph-name="Ydieresis" unicode="&#x178;" horiz-adv-x="628" 
d="M162 768v117h123v-117h-123zM343 768v117h123v-117h-123zM217 0v277l-207 423h199l105 -241l105 241h199l-208 -423v-277h-193z" />
    <glyph glyph-name="Zacute" unicode="&#x179;" horiz-adv-x="619" 
d="M237 763l64 127h182l-105 -127h-141zM42 0v154l292 382h-272v164h505v-154l-292 -382h302v-164h-535z" />
    <glyph glyph-name="zacute" unicode="&#x17a;" horiz-adv-x="480" 
d="M168 573l64 127h182l-105 -127h-141zM32 0v140l195 210h-182v150h398v-140l-197 -210h204v-150h-418z" />
    <glyph glyph-name="Zdotaccent" unicode="&#x17b;" horiz-adv-x="619" 
d="M234 755v146h149v-146h-149zM42 0v154l292 382h-272v164h505v-154l-292 -382h302v-164h-535z" />
    <glyph glyph-name="zdotaccent" unicode="&#x17c;" horiz-adv-x="480" 
d="M166 566v146h149v-146h-149zM32 0v140l195 210h-182v150h398v-140l-197 -210h204v-150h-418z" />
    <glyph glyph-name="Zcaron" unicode="&#x17d;" horiz-adv-x="619" 
d="M227 763l-109 127h149l42 -59l42 59h149l-106 -127h-167zM42 0v154l292 382h-272v164h505v-154l-292 -382h302v-164h-535z" />
    <glyph glyph-name="zcaron" unicode="&#x17e;" horiz-adv-x="480" 
d="M158 573l-109 127h149l42 -59l42 59h149l-106 -127h-167zM32 0v140l195 210h-182v150h398v-140l-197 -210h204v-150h-418z" />
    <glyph glyph-name="longs" unicode="&#x17f;" horiz-adv-x="410" 
d="M85 0v372h-65v128h65v30q0 85 56 133.5t147 48.5q49 0 92 -12v-145q-22 9 -49 9q-31 0 -50.5 -15t-19.5 -39v-510h-176z" />
    <glyph glyph-name="Schwa" unicode="&#x18f;" horiz-adv-x="787" 
d="M392 -12q-110 0 -192 53.5t-121 135t-39 176.5q0 49 10 92h486q-22 50 -63.5 76t-89.5 26q-46 0 -89.5 -21t-70.5 -58l-139 115q45 60 122.5 94.5t175.5 34.5q166 0 265.5 -102t99.5 -260q0 -156 -98 -259t-257 -103zM393 152q53 0 96 32t58 97h-307q15 -65 58 -97
t95 -32z" />
    <glyph glyph-name="florin" unicode="&#x192;" 
d="M30 -200l131 490h-71v115h102l33 125q24 91 94 136.5t159 45.5q47 0 92 -12v-165q-43 10 -72 10q-86 0 -110 -94l-12 -46h124v-115h-153l-123 -490h-194z" />
    <glyph glyph-name="Aringacute" unicode="&#x1fa;" horiz-adv-x="692" 
d="M277 979l64 127h182l-105 -127h-141zM235 844q0 44 32 76.5t79 32.5t79 -32.5t32 -76.5t-32.5 -76.5t-78.5 -32.5q-47 0 -79 32.5t-32 76.5zM346 870q-10 0 -18 -8t-8 -18t7.5 -17.5t18.5 -7.5q10 0 17.5 7.5t7.5 17.5q0 11 -7.5 18.5t-17.5 7.5zM505 0l-42 125h-234
l-43 -125h-186l261 700h175l256 -700h-187zM285 289h122l-61 180z" />
    <glyph glyph-name="aringacute" unicode="&#x1fb;" horiz-adv-x="651" 
d="M245 794l64 127h182l-105 -127h-141zM214 654q0 44 32 76.5t79 32.5t79 -32.5t32 -76.5t-32.5 -76.5t-78.5 -32.5q-47 0 -79 32.5t-32 76.5zM325 680q-11 0 -18.5 -8t-7.5 -18t7.5 -17.5t18.5 -7.5t18 7.5t7 17.5q0 11 -7.5 18.5t-17.5 7.5zM266 -12q-91 0 -158.5 71.5
t-67.5 190.5q0 65 22 117.5t57.5 83t76 46t80.5 15.5q86 0 135 -47l15 35h165v-500h-155l-25 40q-55 -52 -145 -52zM316 138q43 0 71.5 30t28.5 82t-28.5 82t-71.5 30t-71.5 -30t-28.5 -82t28.5 -82t71.5 -30z" />
    <glyph glyph-name="AEacute" unicode="&#x1fc;" horiz-adv-x="980" 
d="M330 763l64 127h182l-105 -127h-141zM414 0v125h-180l-51 -125h-199l303 700h639v-164h-319v-91h299v-164h-299v-117h319v-164h-512zM403 536l-101 -247h112v247h-11z" />
    <glyph glyph-name="aeacute" unicode="&#x1fd;" horiz-adv-x="1004" 
d="M437 573l64 127h182l-105 -127h-141zM561 500v-56q54 68 156 68q121 0 187 -73.5t66 -169.5q0 -32 -8 -62h-343q8 -33 34.5 -51.5t61.5 -18.5q63 0 90 46l144 -73q-70 -122 -236 -122q-43 0 -86.5 19.5t-65.5 48.5v-56h-125l-25 40q-55 -52 -145 -52q-91 0 -158.5 71.5
t-67.5 190.5q0 65 22 117.5t57.5 83t76 46t80.5 15.5q86 0 135 -47l15 35h135zM622 320h167q-6 25 -28.5 43.5t-53.5 18.5q-33 0 -56.5 -19t-28.5 -43zM422 250q0 52 -30 82t-73 30t-73 -30t-30 -82t30 -82t73 -30t73 30t30 82z" />
    <glyph glyph-name="Oslashacute" unicode="&#x1fe;" horiz-adv-x="808" 
d="M323 763l64 127h182l-105 -127h-141zM61 60l53 61q-74 96 -74 229q0 159 98.5 260.5t264.5 101.5q105 0 188 -44l52 60l105 -88l-53 -60q73 -96 73 -230q0 -156 -101 -259t-264 -103q-102 0 -185 44l-52 -60zM233 350q0 -44 12 -79l228 262q-33 15 -69 15
q-69 0 -120 -51.5t-51 -146.5zM404 152q69 0 120 51.5t51 146.5q0 44 -12 78l-227 -261q33 -15 68 -15z" />
    <glyph glyph-name="oslashacute" unicode="&#x1ff;" horiz-adv-x="628" 
d="M219 573l64 127h182l-105 -127h-141zM138 -18l-67 54l34 39q-65 70 -65 175q0 118 79 190t195 72q79 0 142 -34l35 40l67 -54l-34 -39q64 -70 64 -175q0 -118 -79 -190t-195 -72q-78 0 -141 34zM216 250q0 -22 6 -40l126 144q-16 6 -34 6q-41 0 -69.5 -30.5t-28.5 -79.5z
M314 140q41 0 69.5 31t28.5 79q0 22 -6 40l-125 -144q15 -6 33 -6z" />
    <glyph glyph-name="Scommaaccent" unicode="&#x218;" horiz-adv-x="575" 
d="M293 -12q-206 0 -273 192l153 65q15 -46 48.5 -72t74.5 -26q70 0 70 53q0 22 -15 38.5t-56 36.5l-103 51q-123 62 -123 200q0 83 64 134.5t169 51.5q160 0 204 -120l-147 -76q-19 42 -57 42q-40 0 -40 -32q0 -26 38 -46l105 -55q79 -41 114.5 -92.5t35.5 -129.5
q0 -88 -72.5 -151.5t-189.5 -63.5zM185 -230l24 157h165l-70 -157h-119z" />
    <glyph glyph-name="scommaaccent" unicode="&#x219;" horiz-adv-x="466" 
d="M231 -12q-84 0 -137.5 35.5t-73.5 96.5l131 60q29 -60 85 -60q42 0 42 26q0 23 -52 42l-61 22q-115 41 -115 155q0 65 52 106t131 41q131 0 175 -93l-123 -64q-17 36 -46 36q-27 0 -27 -20q0 -16 23 -25l68 -25q65 -24 100 -63.5t35 -107.5q0 -72 -56 -117t-151 -45z
M127 -230l24 157h165l-70 -157h-119z" />
    <glyph glyph-name="dotlessj" unicode="&#x237;" horiz-adv-x="297" 
d="M60 -212v712h177v-682z" />
    <glyph glyph-name="schwa" unicode="&#x259;" horiz-adv-x="597" 
d="M297 -12q-129 0 -196 72.5t-67 169.5q0 31 8 63h338q-8 33 -32 51.5t-59 18.5q-63 0 -90 -46l-144 73q70 122 241 122q115 0 188 -71.5t73 -190.5q0 -120 -71.5 -191t-188.5 -71zM297 118q32 0 53.5 18.5t26.5 43.5h-162q6 -25 28.5 -43.5t53.5 -18.5z" />
    <glyph glyph-name="circumflex" unicode="&#x2c6;" horiz-adv-x="512" 
d="M65 573l109 127h167l106 -127h-149l-42 59l-42 -59h-149z" />
    <glyph glyph-name="caron" unicode="&#x2c7;" horiz-adv-x="512" 
d="M174 573l-109 127h149l42 -59l42 59h149l-106 -127h-167z" />
    <glyph glyph-name="breve" unicode="&#x2d8;" horiz-adv-x="512" 
d="M256 665q18 0 28 11t10 29h107q0 -64 -39.5 -100.5t-105.5 -36.5t-105.5 36.5t-39.5 100.5h107q0 -18 10 -29t28 -11z" />
    <glyph glyph-name="dotaccent" unicode="&#x2d9;" horiz-adv-x="512" 
d="M181 566v146h149v-146h-149z" />
    <glyph glyph-name="ring" unicode="&#x2da;" horiz-adv-x="512" 
d="M145 654q0 44 32 76.5t79 32.5t79 -32.5t32 -76.5t-32.5 -76.5t-78.5 -32.5q-47 0 -79 32.5t-32 76.5zM256 680q-10 0 -18 -8t-8 -18t7.5 -17.5t18.5 -7.5q10 0 17.5 7.5t7.5 17.5q0 11 -7.5 18.5t-17.5 7.5z" />
    <glyph glyph-name="ogonek" unicode="&#x2db;" horiz-adv-x="512" 
d="M274 -193q-45 0 -74 24t-29 67q0 70 66 102h99q-60 -31 -60 -64q0 -23 22 -23q18 0 40 19l40 -77q-41 -48 -104 -48z" />
    <glyph glyph-name="tilde" unicode="&#x2dc;" horiz-adv-x="512" 
d="M177 560h-104q-11 70 19 111t91 41q32 0 74.5 -24t56.5 -24q32 0 20 48h104q14 -69 -17 -110.5t-93 -41.5q-35 0 -77.5 24t-53.5 24q-32 0 -20 -48z" />
    <glyph glyph-name="hungarumlaut" unicode="&#x2dd;" horiz-adv-x="512" 
d="M255 573l35 127h124l-68 -127h-91zM98 573l35 127h124l-68 -127h-91z" />
    <glyph glyph-name="pi" unicode="&#x3c0;" horiz-adv-x="657" 
d="M105 0l44 350q-53 0 -93 -27l-36 135q58 42 131 42h486v-150h-91l-15 -149q-3 -32 4.5 -47.5t29.5 -16.5q11 -1 32 2v-139q-54 -12 -93 -12q-86 0 -120 46t-25 122l23 194h-66l-42 -350h-169z" />
    <glyph glyph-name="Wgrave" unicode="&#x1e80;" horiz-adv-x="979" 
d="M548 763h-141l-105 127h182zM551 0l-59 155l-61 -155h-153l-268 700h191l171 -461l44 118l-130 343h181l37 -107l41 107h161l-126 -322l45 -130l168 452h176l-273 -700h-145z" />
    <glyph glyph-name="wgrave" unicode="&#x1e81;" horiz-adv-x="810" 
d="M458 573h-141l-105 127h182zM164 0l-164 500h178l79 -315l72 202l-39 113h178l87 -315l76 315h179l-164 -500h-182l-59 169l-59 -169h-182z" />
    <glyph glyph-name="Wacute" unicode="&#x1e82;" horiz-adv-x="979" 
d="M403 763l64 127h182l-105 -127h-141zM551 0l-59 155l-61 -155h-153l-268 700h191l171 -461l44 118l-130 343h181l37 -107l41 107h161l-126 -322l45 -130l168 452h176l-273 -700h-145z" />
    <glyph glyph-name="wacute" unicode="&#x1e83;" horiz-adv-x="810" 
d="M313 573l64 127h182l-105 -127h-141zM164 0l-164 500h178l79 -315l72 202l-39 113h178l87 -315l76 315h179l-164 -500h-182l-59 169l-59 -169h-182z" />
    <glyph glyph-name="Wdieresis" unicode="&#x1e84;" horiz-adv-x="979" 
d="M323 768v117h123v-117h-123zM504 768v117h123v-117h-123zM551 0l-59 155l-61 -155h-153l-268 700h191l171 -461l44 118l-130 343h181l37 -107l41 107h161l-126 -322l45 -130l168 452h176l-273 -700h-145z" />
    <glyph glyph-name="wdieresis" unicode="&#x1e85;" horiz-adv-x="810" 
d="M233 577v117h123v-117h-123zM414 577v117h123v-117h-123zM164 0l-164 500h178l79 -315l72 202l-39 113h178l87 -315l76 315h179l-164 -500h-182l-59 169l-59 -169h-182z" />
    <glyph glyph-name="Ygrave" unicode="&#x1ef2;" horiz-adv-x="628" 
d="M387 763h-141l-105 127h182zM217 0v277l-207 423h199l105 -241l105 241h199l-208 -423v-277h-193z" />
    <glyph glyph-name="ygrave" unicode="&#x1ef3;" horiz-adv-x="558" 
d="M353 573h-141l-105 127h182zM294 -200h-179l87 234l-202 466h190l97 -282l88 282h183z" />
    <glyph glyph-name="thinspace" unicode="&#x2009;" horiz-adv-x="124" 
 />
    <glyph glyph-name="endash" unicode="&#x2013;" horiz-adv-x="630" 
d="M60 175v158h510v-158h-510z" />
    <glyph glyph-name="emdash" unicode="&#x2014;" horiz-adv-x="918" 
d="M60 175v158h798v-158h-798z" />
    <glyph glyph-name="quoteleft" unicode="&#x2018;" horiz-adv-x="300" 
d="M33 437l100 263h134l-52 -263h-182z" />
    <glyph glyph-name="quoteright" unicode="&#x2019;" horiz-adv-x="300" 
d="M33 437l52 263h182l-100 -263h-134z" />
    <glyph glyph-name="quotesinglbase" unicode="&#x201a;" horiz-adv-x="300" 
d="M33 -140l52 263h182l-100 -263h-134z" />
    <glyph glyph-name="quotedblleft" unicode="&#x201c;" horiz-adv-x="537" 
d="M33 437l100 263h134l-52 -263h-182zM270 437l100 263h134l-52 -263h-182z" />
    <glyph glyph-name="quotedblright" unicode="&#x201d;" horiz-adv-x="537" 
d="M270 437l52 263h182l-100 -263h-134zM33 437l52 263h182l-100 -263h-134z" />
    <glyph glyph-name="quotedblbase" unicode="&#x201e;" horiz-adv-x="537" 
d="M33 -140l52 263h182l-100 -263h-134zM270 -140l52 263h182l-100 -263h-134z" />
    <glyph glyph-name="dagger" unicode="&#x2020;" horiz-adv-x="512" 
d="M168 0v418h-138v152h138v130h176v-130h138v-152h-138v-418h-176z" />
    <glyph glyph-name="daggerdbl" unicode="&#x2021;" horiz-adv-x="512" 
d="M30 130v152h138v136h-138v152h138v130h176v-130h138v-152h-138v-136h138v-152h-138v-130h-176v130h-138z" />
    <glyph glyph-name="bullet" unicode="&#x2022;" horiz-adv-x="341" 
d="M170 202q-54 0 -92 37.5t-38 90.5t38 91t92 38q53 0 92 -38.5t39 -90.5t-39 -90t-92 -38z" />
    <glyph glyph-name="ellipsis" unicode="&#x2026;" horiz-adv-x="929" 
d="M65 0v154h173v-154h-173zM378 0v154h173v-154h-173zM691 0v154h173v-154h-173z" />
    <glyph glyph-name="perthousand" unicode="&#x2030;" horiz-adv-x="1428" 
d="M226 7l446 747l101 -61l-446 -746zM193 293q-85 0 -131 55.5t-46 151.5t46 151.5t131 55.5q84 0 130.5 -56t46.5 -151t-46.5 -151t-130.5 -56zM193 396q53 0 53 104t-53 104t-53 -104t53 -104zM767 -7q-85 0 -131 55.5t-46 151.5t46 151.5t131 55.5q84 0 130.5 -56
t46.5 -151t-46.5 -151t-130.5 -56zM1195 -7q-85 0 -131 55.5t-46 151.5t46 151.5t131 55.5q84 0 130.5 -56t46.5 -151t-46.5 -151t-130.5 -56zM767 96q53 0 53 104t-53 104t-53 -104t53 -104zM1195 96q53 0 53 104t-53 104t-53 -104t53 -104z" />
    <glyph glyph-name="guilsinglleft" unicode="&#x2039;" horiz-adv-x="315" 
d="M119 70l-99 190l99 190h176l-100 -187l100 -193h-176z" />
    <glyph glyph-name="guilsinglright" unicode="&#x203a;" horiz-adv-x="315" 
d="M20 70l100 187l-100 193h176l99 -190l-99 -190h-176z" />
    <glyph glyph-name="fraction" unicode="&#x2044;" horiz-adv-x="167" 
d="M-190 7l446 747l101 -61l-446 -746z" />
    <glyph glyph-name="zerosuperior" unicode="&#x2070;" horiz-adv-x="447" 
d="M224 343q-85 0 -131 55.5t-46 151.5t46 151.5t131 55.5q84 0 130.5 -56t46.5 -151t-46.5 -151t-130.5 -56zM224 446q53 0 53 104t-53 104t-53 -104t53 -104z" />
    <glyph glyph-name="i.superior" unicode="&#x2071;" horiz-adv-x="225" 
d="M53 708v117h120v-117h-120zM52 350v330h122v-330h-122z" />
    <glyph glyph-name="foursuperior" unicode="&#x2074;" horiz-adv-x="418" 
d="M328 750v-245h59v-93h-59v-62h-124v62h-168v89l177 249h115zM136 505h68v88z" />
    <glyph glyph-name="fivesuperior" unicode="&#x2075;" horiz-adv-x="412" 
d="M343 750v-104h-174l-9 -39q32 17 74 17q66 0 106 -39.5t40 -100.5q0 -60 -50 -100t-124 -40q-134 0 -165 99l107 36q17 -31 58 -31q23 0 36.5 11t13.5 30q0 18 -13.5 28.5t-36.5 10.5q-38 0 -55 -25l-102 13l26 234h268z" />
    <glyph glyph-name="sixsuperior" unicode="&#x2076;" horiz-adv-x="407" 
d="M366 491q0 -65 -46 -106.5t-115 -41.5q-66 0 -113.5 39.5t-47.5 101.5q0 45 24 82l114 184h142l-100 -126q5 1 14 1q56 0 92 -38.5t36 -95.5zM205 441q17 0 27 13.5t10 33.5t-10 33t-27 13t-27 -13t-10 -33t10 -33.5t27 -13.5z" />
    <glyph glyph-name="sevensuperior" unicode="&#x2077;" horiz-adv-x="355" 
d="M323 750v-90l-151 -310h-132l154 303h-152v97h281z" />
    <glyph glyph-name="eightsuperior" unicode="&#x2078;" horiz-adv-x="397" 
d="M36 480q0 34 19 59.5t42 35.5q-13 7 -25 26t-12 40q0 53 40 84.5t98 31.5q61 0 99.5 -28t38.5 -86q0 -19 -10 -38.5t-27 -29.5q63 -33 63 -95q0 -57 -46 -97t-118 -40t-117 38t-45 99zM198 666q-12 0 -19 -7t-7 -17q0 -11 7 -18t19 -7t19 7t7 18q0 10 -7 17t-19 7z
M198 518q-18 0 -28.5 -11t-10.5 -28t10.5 -28t28.5 -11t28.5 11t10.5 28t-10.5 28t-28.5 11z" />
    <glyph glyph-name="ninesuperior" unicode="&#x2079;" horiz-adv-x="407" 
d="M41 610q0 65 46 106.5t115 41.5q66 0 113.5 -39.5t47.5 -101.5q0 -45 -24 -82l-114 -184h-142l100 126q-5 -1 -14 -1q-56 0 -92 38.5t-36 95.5zM202 660q-17 0 -27 -13.5t-10 -33.5t10 -33t27 -13t27 13t10 33t-10 33.5t-27 13.5z" />
    <glyph glyph-name="plussuperior" unicode="&#x207a;" horiz-adv-x="420" 
d="M62 500v100h96v89h104v-89h96v-100h-96v-90h-104v90h-96z" />
    <glyph glyph-name="minussuperior" unicode="&#x207b;" horiz-adv-x="420" 
d="M62 500v100h296v-100h-296z" />
    <glyph glyph-name="equalsuperior" unicode="&#x207c;" horiz-adv-x="420" 
d="M62 576v100h296v-100h-296zM62 424v100h296v-100h-296z" />
    <glyph glyph-name="parenleftsuperior" unicode="&#x207d;" horiz-adv-x="281" 
d="M170 261q-59 58 -92.5 136t-33.5 153t33 152.5t94 135.5l94 -60q-101 -105 -101 -228q0 -120 101 -229z" />
    <glyph glyph-name="parenrightsuperior" unicode="&#x207e;" horiz-adv-x="281" 
d="M111 838q60 -58 93 -136t33 -152q0 -75 -33 -153t-94 -136l-94 60q101 104 101 229q0 119 -100 228z" />
    <glyph glyph-name="n.superior" unicode="&#x207f;" horiz-adv-x="424" 
d="M52 350v330h101l13 -38q14 18 42.5 32t63.5 14q45 0 76 -29t31 -88v-221h-122v195q0 14 -11.5 22.5t-29.5 8.5q-17 0 -29.5 -10t-12.5 -29v-187h-122z" />
    <glyph glyph-name="zeroinferior" unicode="&#x2080;" horiz-adv-x="447" 
d="M214 -177q-85 0 -131 55.5t-46 151.5t46 151.5t131 55.5q84 0 130.5 -56t46.5 -151t-46.5 -151t-130.5 -56zM214 -74q53 0 53 104t-53 104t-53 -104t53 -104z" />
    <glyph glyph-name="oneinferior" unicode="&#x2081;" horiz-adv-x="282" 
d="M99 -170v279l-78 -43v109l90 55h112v-400h-124z" />
    <glyph glyph-name="twoinferior" unicode="&#x2082;" horiz-adv-x="401" 
d="M28 -170v96l133 101q18 14 24.5 19t17.5 15t14.5 17t3.5 14q0 15 -10 24t-26 9q-30 0 -38 -43l-108 30q11 53 48.5 89t108.5 36q67 0 108 -36t41 -89q0 -42 -13 -68.5t-45 -51.5l-82 -65h143v-97h-320z" />
    <glyph glyph-name="threeinferior" unicode="&#x2083;" horiz-adv-x="402" 
d="M181 -177q-133 0 -164 104l112 39q4 -14 17.5 -25.5t30.5 -11.5q22 0 34.5 10t12.5 25q0 11 -10 22.5t-33 14.5l-64 8v72l64 52h-136v97h282v-91l-79 -60q45 -9 72.5 -38.5t27.5 -70.5q0 -70 -45.5 -108.5t-121.5 -38.5z" />
    <glyph glyph-name="fourinferior" unicode="&#x2084;" horiz-adv-x="418" 
d="M318 230v-245h59v-93h-59v-62h-124v62h-168v89l177 249h115zM126 -15h68v88z" />
    <glyph glyph-name="fiveinferior" unicode="&#x2085;" horiz-adv-x="412" 
d="M333 230v-104h-174l-9 -39q32 17 74 17q66 0 106 -39.5t40 -100.5q0 -60 -50 -100t-124 -40q-134 0 -165 99l107 36q17 -31 58 -31q23 0 36.5 11t13.5 30q0 18 -13.5 28.5t-36.5 10.5q-38 0 -55 -25l-102 13l26 234h268z" />
    <glyph glyph-name="sixinferior" unicode="&#x2086;" horiz-adv-x="407" 
d="M356 -29q0 -65 -46 -106.5t-115 -41.5q-66 0 -113.5 39.5t-47.5 101.5q0 45 24 82l114 184h142l-100 -126q5 1 14 1q56 0 92 -38.5t36 -95.5zM195 -79q17 0 27 13.5t10 33.5t-10 33t-27 13t-27 -13t-10 -33t10 -33.5t27 -13.5z" />
    <glyph glyph-name="seveninferior" unicode="&#x2087;" horiz-adv-x="355" 
d="M313 230v-90l-151 -310h-132l154 303h-152v97h281z" />
    <glyph glyph-name="eightinferior" unicode="&#x2088;" horiz-adv-x="397" 
d="M26 -40q0 34 19 59.5t42 35.5q-13 7 -25 26t-12 40q0 53 40 84.5t98 31.5q61 0 99.5 -28t38.5 -86q0 -19 -10 -38.5t-27 -29.5q63 -33 63 -95q0 -57 -46 -97t-118 -40t-117 38t-45 99zM188 146q-12 0 -19 -7t-7 -17q0 -11 7 -18t19 -7t19 7t7 18q0 10 -7 17t-19 7z
M188 -2q-18 0 -28.5 -11t-10.5 -28t10.5 -28t28.5 -11t28.5 11t10.5 28t-10.5 28t-28.5 11z" />
    <glyph glyph-name="nineinferior" unicode="&#x2089;" horiz-adv-x="407" 
d="M31 90q0 65 46 106.5t115 41.5q66 0 113.5 -39.5t47.5 -101.5q0 -45 -24 -82l-114 -184h-142l100 126q-5 -1 -14 -1q-56 0 -92 38.5t-36 95.5zM192 140q-17 0 -27 -13.5t-10 -33.5t10 -33t27 -13t27 13t10 33t-10 33.5t-27 13.5z" />
    <glyph glyph-name="parenleftinferior" unicode="&#x208d;" horiz-adv-x="281" 
d="M160 -259q-59 58 -92.5 136t-33.5 153t33 152.5t94 135.5l94 -60q-101 -105 -101 -228q0 -120 101 -229z" />
    <glyph glyph-name="parenrightinferior" unicode="&#x208e;" horiz-adv-x="281" 
d="M101 318q60 -58 93 -136t33 -152q0 -75 -33 -153t-94 -136l-94 60q101 104 101 229q0 119 -100 228z" />
    <glyph glyph-name="Euro" unicode="&#x20ac;" 
d="M68 350v18h-68v115h82q27 117 99 173t174 56q88 0 152 -44t96 -124l-170 -56q-24 72 -78 72q-63 0 -87 -77h142v-115h-158v-18v-18h158v-115h-142q24 -77 87 -77q54 0 78 72l170 -56q-32 -80 -96 -124t-152 -44q-102 0 -174 56t-99 173h-82v115h68v18z" />
    <glyph glyph-name="litre" unicode="&#x2113;" horiz-adv-x="549" 
d="M370 -12q-141 0 -215 107q-76 -24 -96 -29l-44 147q21 6 78 23q-16 77 -16 169q0 157 61.5 232t172.5 75q101 0 155.5 -65t54.5 -160q0 -202 -216 -323q35 -32 93 -32q33 0 70 10l31 -133q-65 -21 -129 -21zM248 310q101 69 101 157q0 87 -44 87q-61 0 -61 -143
q0 -54 4 -101z" />
    <glyph glyph-name="numero" unicode="&#x2116;" horiz-adv-x="1091" 
d="M870 343q-78 0 -130.5 47t-52.5 126t52.5 126t130.5 47q77 0 129.5 -47t52.5 -126t-52.5 -126t-129.5 -47zM870 452q25 0 42.5 18t17.5 46t-17.5 46t-42.5 18q-26 0 -43.5 -18t-17.5 -46t18 -46t43 -18zM63 0v570h201l144 -276v276h176v-570h-201l-144 263v-263h-176z
M717 180v110h305v-110h-305z" />
    <glyph glyph-name="uni2117" unicode="&#x2117;" horiz-adv-x="842" 
d="M421 -32q-166 0 -276 110t-110 272q0 164 108.5 273t277.5 109t277.5 -109t108.5 -273q0 -162 -110 -272t-276 -110zM421 71q118 0 197 78.5t79 200.5t-79 200.5t-197 78.5t-196.5 -78.5t-78.5 -200.5t78.5 -200.5t196.5 -78.5zM280 140v420h177q61 0 110.5 -45
t49.5 -117q0 -71 -49.5 -114.5t-110.5 -43.5h-53v-100h-124zM437 445h-33v-92h33q24 0 39 13t15 32q0 20 -15 33.5t-39 13.5z" />
    <glyph glyph-name="servicemark" unicode="&#x2120;" horiz-adv-x="737" 
d="M34 479l73 45q21 -33 58 -33q20 0 20 10q0 11 -29 21l-35 13q-70 27 -70 87q0 37 31.5 61t79.5 24q78 0 104 -53l-73 -37q-10 18 -28 18q-14 0 -14 -9q0 -8 12 -13l39 -13q82 -28 82 -95q0 -40 -33.5 -66t-90.5 -26q-90 0 -126 66zM329 420v280h131l45 -139l48 139h126
v-280h-89v120l-45 -120h-77l-50 120v-120h-89z" />
    <glyph glyph-name="trademark" unicode="&#x2122;" horiz-adv-x="732" 
d="M40 610v90h245v-90h-73v-190h-105v190h-67zM324 420v280h131l45 -139l48 139h126v-280h-89v120l-45 -120h-77l-50 120v-120h-89z" />
    <glyph glyph-name="Omega" unicode="&#x2126;" horiz-adv-x="808" 
d="M40 0v150h104q-39 24 -71.5 83t-32.5 117q0 159 98.5 260.5t264.5 101.5t265.5 -102t99.5 -260q0 -59 -34.5 -118t-79.5 -82h114v-150h-324v130q67 29 99 87t32 133q0 95 -51 146.5t-120 51.5t-120 -51.5t-51 -146.5q0 -75 32 -133t99 -87v-130h-324z" />
    <glyph glyph-name="estimated" unicode="&#x212e;" horiz-adv-x="830" 
d="M241 330v-255q77 -45 174 -45q98 0 174 52t111 129h49q-40 -97 -130.5 -160t-203.5 -63q-161 0 -261.5 99.5t-100.5 262.5q0 160 104 261t258 101q157 0 259.5 -105t102.5 -257q0 -4 -0.5 -10t-0.5 -10h-535zM241 372h348v251q-78 47 -174 47q-92 0 -174 -48v-250z" />
    <glyph glyph-name="arrowleft" unicode="&#x2190;" horiz-adv-x="800" 
d="M453 67l-103 -103l-290 290l290 290l103 -103l-120 -108h407v-158h-403z" />
    <glyph glyph-name="arrowup" unicode="&#x2191;" horiz-adv-x="800" 
d="M587 231l-108 120v-407h-158v403l-108 -116l-103 103l290 290l290 -290z" />
    <glyph glyph-name="arrowright" unicode="&#x2192;" horiz-adv-x="800" 
d="M740 254l-290 -290l-103 103l116 108h-403v158h407l-120 108l103 103z" />
    <glyph glyph-name="arrowdown" unicode="&#x2193;" horiz-adv-x="800" 
d="M690 234l-290 -290l-290 290l103 103l108 -116v403h158v-407l108 120z" />
    <glyph glyph-name="arrowupleft" unicode="&#x2196;" horiz-adv-x="800" 
d="M668 89l-111 -111l-280 280v-154h-145v410h410v-145h-154z" />
    <glyph glyph-name="arrowupright" unicode="&#x2197;" horiz-adv-x="800" 
d="M523 104v154l-280 -280l-111 111l280 280h-154v145h410v-410h-145z" />
    <glyph glyph-name="arrowdownright" unicode="&#x2198;" horiz-adv-x="800" 
d="M668 387v-410h-410v145h154l-280 280l111 111l280 -280v154h145z" />
    <glyph glyph-name="arrowdownleft" unicode="&#x2199;" horiz-adv-x="800" 
d="M542 123v-145h-410v410h145v-154l280 280l111 -111l-280 -280h154z" />
    <glyph glyph-name="partialdiff" unicode="&#x2202;" 
d="M242 -12q-97 0 -155 58t-58 150q0 120 74.5 195.5t182.5 75.5q79 0 118 -43q8 54 -20 95t-90 41q-59 0 -129 -39l-65 133q94 58 212 58t183 -75t65 -217q0 -199 -86 -315.5t-232 -116.5zM254 140q40 0 67.5 30t27.5 71q0 30 -19 51.5t-51 21.5q-39 0 -65.5 -31t-26.5 -71
q0 -29 19.5 -50.5t47.5 -21.5z" />
    <glyph glyph-name="Delta" unicode="&#x2206;" horiz-adv-x="720" 
d="M5 0v90l272 610h166l272 -610v-90h-710zM215 150h287l-142 340z" />
    <glyph glyph-name="product" unicode="&#x220f;" horiz-adv-x="736" 
d="M65 -200v900h606v-900h-181v745h-244v-745h-181z" />
    <glyph glyph-name="summation" unicode="&#x2211;" 
d="M45 -200v164l331 292l-331 280v164h504v-164h-254l234 -191v-164l-239 -217h269v-164h-514z" />
    <glyph glyph-name="minus" unicode="&#x2212;" 
d="M65 272v156h470v-156h-470z" />
    <glyph glyph-name="radical" unicode="&#x221a;" 
d="M181 0l-181 500h178l97 -315l166 514h179l-251 -699h-188z" />
    <glyph glyph-name="infinity" unicode="&#x221e;" 
d="M430 101q-87 0 -140 118q-50 -98 -120 -98q-69 0 -117 60t-48 169t48 169t117 60q71 0 120 -88q52 108 140 108q73 0 119 -68t46 -181t-46 -181t-119 -68zM415 263q50 0 50 87t-50 87q-21 0 -37 -21t-34 -66q18 -45 34 -66t37 -21zM185 283q34 0 58 67q-24 67 -58 67
q-50 0 -50 -67t50 -67z" />
    <glyph glyph-name="integral" unicode="&#x222b;" horiz-adv-x="474" 
d="M30 -200v145q22 -9 49 -9q31 0 50.5 15t19.5 39v540q0 85 56 133.5t147 48.5q49 0 92 -12v-145q-22 9 -49 9q-31 0 -50.5 -15t-19.5 -39v-540q0 -85 -56 -133.5t-147 -48.5q-49 0 -92 12z" />
    <glyph glyph-name="approxequal" unicode="&#x2248;" 
d="M170 371h-135q0 110 43.5 169.5t111.5 59.5q42 0 82.5 -19t70.5 -38.5t47 -19.5q25 0 32.5 18t7.5 59h135q0 -110 -43.5 -169.5t-111.5 -59.5q-42 0 -82.5 19.5t-70.5 38.5t-47 19q-24 0 -32 -18t-8 -59zM170 99h-135q0 110 43.5 169.5t111.5 59.5q42 0 82.5 -19
t70.5 -38.5t47 -19.5q25 0 32.5 18t7.5 59h135q0 -110 -43.5 -169.5t-111.5 -59.5q-42 0 -82.5 19.5t-70.5 38.5t-47 19q-24 0 -32 -18t-8 -59z" />
    <glyph glyph-name="notequal" unicode="&#x2260;" 
d="M65 56l49 90h-49v156h133l52 96h-185v156h269l49 90h152l-49 -90h49v-156h-133l-53 -96h186v-156h-270l-49 -90h-151z" />
    <glyph glyph-name="lessequal" unicode="&#x2264;" 
d="M535 250l-470 112v170l470 118v-153l-290 -42l290 -47v-158zM65 50v156h470v-156h-470z" />
    <glyph glyph-name="greaterequal" unicode="&#x2265;" 
d="M65 250v153l290 42l-290 47v158l470 -112v-170zM65 50v156h470v-156h-470z" />
    <glyph glyph-name="chevronup" unicode="&#x2303;" horiz-adv-x="740" 
d="M710 80l-340 363l-340 -363v228l340 372l340 -372v-228z" />
    <glyph glyph-name="chevrondown" unicode="&#x2304;" horiz-adv-x="740" 
d="M710 675v-228l-340 -372l-340 372v228l340 -363z" />
    <glyph glyph-name="chevronleft" unicode="&#x2329;" horiz-adv-x="740" 
d="M650 0h-218l-362 349l362 351h218l-353 -351z" />
    <glyph glyph-name="chevronright" unicode="&#x232a;" horiz-adv-x="740" 
d="M90 0l353 349l-353 351h218l362 -351l-362 -349h-218z" />
    <glyph glyph-name="zero.opencirc" unicode="&#x24ea;" horiz-adv-x="852" 
d="M426 -32q-166 0 -276 110t-110 272q0 164 108.5 273t277.5 109t277.5 -109t108.5 -273q0 -162 -110 -272t-276 -110zM426 629q-118 0 -196.5 -78.5t-78.5 -200.5t78.5 -200.5t196.5 -78.5t197 78.5t79 200.5t-79 200.5t-197 78.5zM426 143q-85 0 -131 55.5t-46 151.5
t46 151.5t131 55.5q84 0 130.5 -56t46.5 -151t-46.5 -151t-130.5 -56zM426 246q53 0 53 104t-53 104t-53 -104t53 -104z" />
    <glyph glyph-name="zero.closecirc" unicode="&#x24ff;" horiz-adv-x="852" 
d="M426 -32q-166 0 -276 110t-110 272q0 164 108.5 273t277.5 109t277.5 -109t108.5 -273q0 -162 -110 -272t-276 -110zM426 143q84 0 130.5 56t46.5 151t-46.5 151t-130.5 56q-85 0 -131 -55.5t-46 -151.5t46 -151.5t131 -55.5zM426 246q-53 0 -53 104t53 104t53 -104
t-53 -104z" />
    <glyph glyph-name="blacksquare" unicode="&#x25a0;" horiz-adv-x="548" 
d="M80 57v388h388v-388h-388z" />
    <glyph glyph-name="whitesquare" unicode="&#x25a1;" horiz-adv-x="548" 
d="M80 57v388h388v-388h-388zM210 180h128v142h-128v-142z" />
    <glyph glyph-name="blackuppointingtriangle" unicode="&#x25b2;" horiz-adv-x="740" 
d="M45 0l325 650l325 -650h-650z" />
    <glyph glyph-name="whiteuppointingtriangle" unicode="&#x25b3;" horiz-adv-x="740" 
d="M695 0h-650l325 650zM470 133l-102 227l-105 -227h207z" />
    <glyph glyph-name="u25B4" unicode="&#x25b4;" horiz-adv-x="548" 
d="M20 22l254 458l254 -458h-508z" />
    <glyph glyph-name="u25B5" unicode="&#x25b5;" horiz-adv-x="548" 
d="M528 22h-508l254 458zM321 152l-49 100l-51 -100h100z" />
    <glyph glyph-name="blackrightpointingtriangle" unicode="&#x25b6;" horiz-adv-x="740" 
d="M80 0v650l650 -325z" />
    <glyph glyph-name="whiterightpointingtriangle" unicode="&#x25b7;" horiz-adv-x="740" 
d="M730 325l-650 -325v650zM440 323l-227 102v-207z" />
    <glyph glyph-name="u25B8" unicode="&#x25b8;" horiz-adv-x="548" 
d="M80 -3v508l458 -254z" />
    <glyph glyph-name="u25B9" unicode="&#x25b9;" horiz-adv-x="548" 
d="M80 -3v508l458 -254zM210 198l100 51l-100 49v-100z" />
    <glyph glyph-name="blacktriangle" unicode="&#x25ba;" horiz-adv-x="548" 
d="M80 -3v508l458 -254z" />
    <glyph glyph-name="whitetriangle" unicode="&#x25bb;" horiz-adv-x="548" 
d="M80 -3v508l458 -254zM210 198l100 51l-100 49v-100z" />
    <glyph glyph-name="blackdownpointingtriangle" unicode="&#x25bc;" horiz-adv-x="740" 
d="M370 0l-325 650h650z" />
    <glyph glyph-name="whitedownpointingtriangle" unicode="&#x25bd;" horiz-adv-x="740" 
d="M370 0l-325 650h650zM372 290l105 227h-207z" />
    <glyph glyph-name="u25BE" unicode="&#x25be;" horiz-adv-x="548" 
d="M274 22l-254 458h508z" />
    <glyph glyph-name="u25BF" unicode="&#x25bf;" horiz-adv-x="548" 
d="M528 480l-254 -458l-254 458h508zM327 350h-100l49 -100z" />
    <glyph glyph-name="blackleftpointingtriangle" unicode="&#x25c0;" horiz-adv-x="740" 
d="M660 0l-650 325l650 325v-650z" />
    <glyph glyph-name="whiteleftpointingtriangle" unicode="&#x25c1;" horiz-adv-x="740" 
d="M660 0l-650 325l650 325v-650zM527 225v207l-227 -105z" />
    <glyph glyph-name="u25C2" unicode="&#x25c2;" horiz-adv-x="548" 
d="M10 251l458 254v-508z" />
    <glyph glyph-name="u25C3" unicode="&#x25c3;" horiz-adv-x="548" 
d="M468 -3l-458 254l458 254v-508zM338 204v100l-100 -51z" />
    <glyph glyph-name="blackdiamond" unicode="&#x25c6;" horiz-adv-x="548" 
d="M274 -23l-274 274l274 274l274 -274z" />
    <glyph glyph-name="whitediamond" unicode="&#x25c7;" horiz-adv-x="548" 
d="M274 -23l-274 274l274 274l274 -274zM277 154l94 94l-100 100l-94 -94z" />
    <glyph glyph-name="lozenge" unicode="&#x25ca;" 
d="M20 340l205 360h150l205 -360l-205 -340h-150zM208 340l93 -166l95 166l-94 186z" />
    <glyph glyph-name="whitecircle" unicode="&#x25cb;" horiz-adv-x="548" 
d="M274 47q-85 0 -146 60t-61 144t61 144t146 60t146 -60t61 -144t-61 -144t-146 -60zM274 177q31 0 51.5 22t20.5 52q0 29 -20.5 51.5t-51.5 22.5t-51.5 -22.5t-20.5 -51.5q0 -30 20.5 -52t51.5 -22z" />
    <glyph glyph-name="blackcircle" unicode="&#x25cf;" horiz-adv-x="548" 
d="M274 47q-85 0 -145 60t-60 144t60 144t145 60t145 -60t60 -144t-60 -144t-145 -60z" />
    <glyph glyph-name="uni2610" unicode="&#x2610;" 
d="M60 0v480h480v-480h-480zM151 91h298v298h-298v-298z" />
    <glyph glyph-name="uni2611" unicode="&#x2611;" 
d="M60 0v480h480v-480h-480zM151 91h298v298h-298v-298zM344 126h-94l-77 156l86 42l43 -93l52 130l71 -30z" />
    <glyph glyph-name="uni2612" unicode="&#x2612;" 
d="M60 0v480h480v-480h-480zM151 91h298v298h-298v-298zM229 363l71 -71l71 71l54 -52l-72 -72l72 -71l-56 -51l-69 69l-69 -69l-56 51l72 71l-72 72z" />
    <glyph glyph-name="heartsuitwhite" unicode="&#x2661;" horiz-adv-x="843" 
d="M438 0h-34q-17 51 -58 97.5t-86.5 83t-89 76t-72 91.5t-28.5 114q0 89 52 138.5t129 49.5q123 0 170 -110q24 56 69.5 83t101.5 27q76 0 128.5 -49.5t52.5 -138.5q0 -62 -28.5 -114t-72 -91.5t-89 -76t-87 -83t-58.5 -97.5zM435 377h-28q-21 61 -49 92t-75 31
q-24 0 -40 -13.5t-16 -37.5q0 -36 22 -69t51 -56t65 -59t56 -71q20 35 56 71t65 59t51 56t22 69q0 24 -16 37.5t-40 13.5q-46 0 -74.5 -31.5t-49.5 -91.5z" />
    <glyph glyph-name="heart" unicode="&#x2665;" horiz-adv-x="843" 
d="M431 0h-19q-17 51 -59 97.5t-88.5 83t-91.5 76t-74 91.5t-29 114q0 89 52 138.5t129 49.5q56 0 101 -29.5t69 -90.5q23 61 69 90.5t102 29.5q76 0 128.5 -49.5t52.5 -138.5q0 -62 -29 -114t-74 -91.5t-91.5 -76t-88.5 -83t-59 -97.5z" />
    <glyph glyph-name="uni2780" unicode="&#x2780;" horiz-adv-x="852" 
d="M426 -32q-166 0 -276 110t-110 272q0 164 108.5 273t277.5 109t277.5 -109t108.5 -273q0 -162 -110 -272t-276 -110zM426 629q-118 0 -196.5 -78.5t-78.5 -200.5t78.5 -200.5t196.5 -78.5t197 78.5t79 200.5t-79 200.5t-197 78.5zM394 150v279l-78 -43v109l90 55h112
v-400h-124z" />
    <glyph glyph-name="uni2781" unicode="&#x2781;" horiz-adv-x="852" 
d="M426 -32q-166 0 -276 110t-110 272q0 164 108.5 273t277.5 109t277.5 -109t108.5 -273q0 -162 -110 -272t-276 -110zM426 629q-118 0 -196.5 -78.5t-78.5 -200.5t78.5 -200.5t196.5 -78.5t197 78.5t79 200.5t-79 200.5t-197 78.5zM264 150v96l133 101q4 3 13.5 10
t13.5 10t10.5 9t9.5 9.5t6.5 8t5 9t1.5 9.5q0 15 -10 24t-26 9q-30 0 -38 -43l-108 30q11 53 48.5 89t108.5 36q67 0 108 -36t41 -89q0 -42 -13 -68.5t-45 -51.5l-82 -65h143v-97h-320z" />
    <glyph glyph-name="uni2782" unicode="&#x2782;" horiz-adv-x="852" 
d="M426 -32q-166 0 -276 110t-110 272q0 164 108.5 273t277.5 109t277.5 -109t108.5 -273q0 -162 -110 -272t-276 -110zM426 629q-118 0 -196.5 -78.5t-78.5 -200.5t78.5 -200.5t196.5 -78.5t197 78.5t79 200.5t-79 200.5t-197 78.5zM419 143q-133 0 -164 104l112 39
q4 -14 17.5 -25.5t30.5 -11.5q22 0 34.5 10t12.5 25q0 11 -10 22.5t-33 14.5l-64 8v72l65 52h-137v97h282v-91l-78 -59q99 -28 99 -110q0 -70 -45.5 -108.5t-121.5 -38.5z" />
    <glyph glyph-name="uni2783" unicode="&#x2783;" horiz-adv-x="852" 
d="M426 -32q-166 0 -276 110t-110 272q0 164 108.5 273t277.5 109t277.5 -109t108.5 -273q0 -162 -110 -272t-276 -110zM426 629q-118 0 -196.5 -78.5t-78.5 -200.5t78.5 -200.5t196.5 -78.5t197 78.5t79 200.5t-79 200.5t-197 78.5zM545 550v-245h59v-93h-59v-62h-124v62
h-168v89l177 249h115zM353 305h68v88z" />
    <glyph glyph-name="uni2784" unicode="&#x2784;" horiz-adv-x="852" 
d="M426 -32q-166 0 -276 110t-110 272q0 164 108.5 273t277.5 109t277.5 -109t108.5 -273q0 -162 -110 -272t-276 -110zM426 629q-118 0 -196.5 -78.5t-78.5 -200.5t78.5 -200.5t196.5 -78.5t197 78.5t79 200.5t-79 200.5t-197 78.5zM562 550v-104h-174l-9 -40q28 18 74 18
q66 0 106 -39.5t40 -100.5q0 -60 -50 -100t-124 -40q-134 0 -165 99l107 36q17 -31 58 -31q20 0 35 11.5t15 29.5q0 17 -15 28t-35 11q-38 0 -55 -25l-102 13l26 234h268z" />
    <glyph glyph-name="uni2785" unicode="&#x2785;" horiz-adv-x="852" 
d="M426 -32q-166 0 -276 110t-110 272q0 164 108.5 273t277.5 109t277.5 -109t108.5 -273q0 -162 -110 -272t-276 -110zM426 629q-118 0 -196.5 -78.5t-78.5 -200.5t78.5 -200.5t196.5 -78.5t197 78.5t79 200.5t-79 200.5t-197 78.5zM588 291q0 -65 -46 -106.5t-115 -41.5
q-66 0 -113.5 39.5t-47.5 101.5q0 40 24 82l114 184h142l-101 -128q6 3 15 3q56 0 92 -38.5t36 -95.5zM427 241q17 0 27 13.5t10 33.5t-10 33t-27 13t-27 -13t-10 -33t10 -33.5t27 -13.5z" />
    <glyph glyph-name="uni2786" unicode="&#x2786;" horiz-adv-x="852" 
d="M426 -32q-166 0 -276 110t-110 272q0 164 108.5 273t277.5 109t277.5 -109t108.5 -273q0 -162 -110 -272t-276 -110zM426 629q-118 0 -196.5 -78.5t-78.5 -200.5t78.5 -200.5t196.5 -78.5t197 78.5t79 200.5t-79 200.5t-197 78.5zM572 550v-90l-151 -310h-132l154 303
h-152v97h281z" />
    <glyph glyph-name="uni2787" unicode="&#x2787;" horiz-adv-x="852" 
d="M426 -32q-166 0 -276 110t-110 272q0 164 108.5 273t277.5 109t277.5 -109t108.5 -273q0 -162 -110 -272t-276 -110zM426 629q-118 0 -196.5 -78.5t-78.5 -200.5t78.5 -200.5t196.5 -78.5t197 78.5t79 200.5t-79 200.5t-197 78.5zM263 280q0 34 19 59.5t42 35.5
q-13 7 -25 26t-12 40q0 53 40 84.5t98 31.5q61 0 99.5 -28t38.5 -86q0 -19 -10 -38.5t-27 -29.5q63 -33 63 -95q0 -57 -46 -97t-118 -40t-117 38t-45 99zM425 466q-12 0 -19 -7t-7 -17q0 -11 7 -18t19 -7t19 7t7 18q0 10 -7 17t-19 7zM425 318q-18 0 -28.5 -11t-10.5 -28
t10.5 -28t28.5 -11t28.5 11t10.5 28t-10.5 28t-28.5 11z" />
    <glyph glyph-name="uni2788" unicode="&#x2788;" horiz-adv-x="852" 
d="M426 -32q-166 0 -276 110t-110 272q0 164 108.5 273t277.5 109t277.5 -109t108.5 -273q0 -162 -110 -272t-276 -110zM426 629q-118 0 -196.5 -78.5t-78.5 -200.5t78.5 -200.5t196.5 -78.5t197 78.5t79 200.5t-79 200.5t-197 78.5zM264 413q0 63 48 103.5t113 40.5
t113 -40.5t48 -103.5q0 -42 -24 -79l-118 -184h-142l99 133q-5 -3 -13 -3q-56 0 -90 38.5t-34 94.5zM425 458q-17 0 -27.5 -13.5t-10.5 -32.5q0 -20 10 -33t28 -13q17 0 27 13t10 33q0 19 -10 32.5t-27 13.5z" />
    <glyph glyph-name="uni2789" unicode="&#x2789;" horiz-adv-x="852" 
d="M426 -32q-166 0 -276 110t-110 272q0 164 108.5 273t277.5 109t277.5 -109t108.5 -273q0 -162 -110 -272t-276 -110zM426 629q-118 0 -196.5 -78.5t-78.5 -200.5t78.5 -200.5t196.5 -78.5t197 78.5t79 200.5t-79 200.5t-197 78.5zM521 143q-64 0 -100 56t-36 151t36 151
t100 56t100 -56t36 -151t-36 -151t-100 -56zM255 150v400h104v-400h-104zM521 246q33 0 33 104t-33 104t-33 -104t33 -104z" />
    <glyph glyph-name="uni278A" unicode="&#x278a;" horiz-adv-x="852" 
d="M426 -32q-166 0 -276 110t-110 272q0 164 108.5 273t277.5 109t277.5 -109t108.5 -273q0 -162 -110 -272t-276 -110zM394 150h124v400h-112l-90 -55v-109l78 43v-279z" />
    <glyph glyph-name="uni278B" unicode="&#x278b;" horiz-adv-x="852" 
d="M426 -32q-166 0 -276 110t-110 272q0 164 108.5 273t277.5 109t277.5 -109t108.5 -273q0 -162 -110 -272t-276 -110zM264 150h320v97h-143l82 65q32 25 45 51.5t13 68.5q0 53 -41 89t-108 36q-71 0 -108.5 -36t-48.5 -89l108 -30q8 43 38 43q16 0 26 -9t10 -24
q0 -5 -1.5 -9.5t-5 -9t-6.5 -8t-9.5 -9.5t-10.5 -9t-13.5 -10t-13.5 -10l-133 -101v-96z" />
    <glyph glyph-name="uni278C" unicode="&#x278c;" horiz-adv-x="852" 
d="M426 -32q-166 0 -276 110t-110 272q0 164 108.5 273t277.5 109t277.5 -109t108.5 -273q0 -162 -110 -272t-276 -110zM419 143q76 0 121.5 38.5t45.5 108.5q0 82 -99 110l78 59v91h-282v-97h137l-65 -52v-72l64 -8q23 -3 33 -14.5t10 -22.5q0 -15 -12.5 -25t-34.5 -10
q-17 0 -30.5 11.5t-17.5 25.5l-112 -39q31 -104 164 -104z" />
    <glyph glyph-name="uni278D" unicode="&#x278d;" horiz-adv-x="852" 
d="M426 -32q-166 0 -276 110t-110 272q0 164 108.5 273t277.5 109t277.5 -109t108.5 -273q0 -162 -110 -272t-276 -110zM545 550h-115l-177 -249v-89h168v-62h124v62h59v93h-59v245zM353 305l68 88v-88h-68z" />
    <glyph glyph-name="uni278E" unicode="&#x278e;" horiz-adv-x="852" 
d="M426 -32q-166 0 -276 110t-110 272q0 164 108.5 273t277.5 109t277.5 -109t108.5 -273q0 -162 -110 -272t-276 -110zM562 550h-268l-26 -234l102 -13q17 25 55 25q20 0 35 -11t15 -28q0 -18 -15 -29.5t-35 -11.5q-41 0 -58 31l-107 -36q31 -99 165 -99q74 0 124 40
t50 100q0 61 -40 100.5t-106 39.5q-46 0 -74 -18l9 40h174v104z" />
    <glyph glyph-name="uni278F" unicode="&#x278f;" horiz-adv-x="852" 
d="M426 -32q-166 0 -276 110t-110 272q0 164 108.5 273t277.5 109t277.5 -109t108.5 -273q0 -162 -110 -272t-276 -110zM588 291q0 57 -36 95.5t-92 38.5q-9 0 -15 -3l101 128h-142l-114 -184q-24 -42 -24 -82q0 -62 47.5 -101.5t113.5 -39.5q69 0 115 41.5t46 106.5z
M427 241q-17 0 -27 13.5t-10 33.5t10 33t27 13t27 -13t10 -33t-10 -33.5t-27 -13.5z" />
    <glyph glyph-name="uni2790" unicode="&#x2790;" horiz-adv-x="852" 
d="M426 -32q-166 0 -276 110t-110 272q0 164 108.5 273t277.5 109t277.5 -109t108.5 -273q0 -162 -110 -272t-276 -110zM572 550h-281v-97h152l-154 -303h132l151 310v90z" />
    <glyph glyph-name="uni2791" unicode="&#x2791;" horiz-adv-x="852" 
d="M426 -32q-166 0 -276 110t-110 272q0 164 108.5 273t277.5 109t277.5 -109t108.5 -273q0 -162 -110 -272t-276 -110zM263 280q0 -61 45 -99t117 -38t118 40t46 97q0 62 -63 95q17 10 27 29.5t10 38.5q0 58 -38.5 86t-99.5 28q-58 0 -98 -31.5t-40 -84.5q0 -21 12 -40
t25 -26q-23 -10 -42 -35.5t-19 -59.5zM425 466q12 0 19 -7t7 -17q0 -11 -7 -18t-19 -7t-19 7t-7 18q0 10 7 17t19 7zM425 318q18 0 28.5 -11t10.5 -28t-10.5 -28t-28.5 -11t-28.5 11t-10.5 28t10.5 28t28.5 11z" />
    <glyph glyph-name="uni2792" unicode="&#x2792;" horiz-adv-x="852" 
d="M426 -32q-166 0 -276 110t-110 272q0 164 108.5 273t277.5 109t277.5 -109t108.5 -273q0 -162 -110 -272t-276 -110zM264 413q0 -56 34 -94.5t90 -38.5q8 0 13 3l-99 -133h142l118 184q24 37 24 79q0 63 -48 103.5t-113 40.5t-113 -40.5t-48 -103.5zM425 458
q17 0 27 -13.5t10 -32.5q0 -20 -10 -33t-27 -13q-18 0 -28 13t-10 33q0 19 10.5 32.5t27.5 13.5z" />
    <glyph glyph-name="uni2793" unicode="&#x2793;" horiz-adv-x="852" 
d="M426 -32q-166 0 -276 110t-110 272q0 164 108.5 273t277.5 109t277.5 -109t108.5 -273q0 -162 -110 -272t-276 -110zM521 143q64 0 100 56t36 151t-36 151t-100 56t-100 -56t-36 -151t36 -151t100 -56zM255 150h104v400h-104v-400zM521 246q-33 0 -33 104t33 104t33 -104
t-33 -104z" />
    <glyph glyph-name="uni27F7" unicode="&#x27f7;" horiz-adv-x="1420" 
d="M1360 254l-290 -290l-103 103l116 108h-746l116 -108l-103 -103l-290 290l290 290l103 -103l-120 -108h754l-120 108l103 103z" />
    <glyph glyph-name="commaaccent" unicode="&#xf6c3;" horiz-adv-x="512" 
d="M154 -230l24 157h165l-70 -157h-119z" />
    <glyph glyph-name="centinferior" unicode="&#xf6df;" horiz-adv-x="403" 
d="M256 -229h-112v63q-50 15 -79 52t-29 87t29 87t79 52v63h112v-61q67 -18 98 -77l-108 -42q-10 31 -42 31q-21 0 -35.5 -14.5t-14.5 -38.5t14.5 -38.5t35.5 -14.5q32 0 42 31l108 -42q-31 -59 -98 -77v-61z" />
    <glyph glyph-name="centsuperior" unicode="&#xf6e0;" horiz-adv-x="403" 
d="M266 291h-112v63q-50 15 -79 52t-29 87t29 87t79 52v63h112v-61q67 -18 98 -77l-108 -42q-10 31 -42 31q-21 0 -35.5 -14.5t-14.5 -38.5t14.5 -38.5t35.5 -14.5q32 0 42 31l108 -42q-31 -59 -98 -77v-61z" />
    <glyph glyph-name="commainferior" unicode="&#xf6e1;" horiz-adv-x="210" 
d="M14 -245l36 170h118l-74 -170h-80z" />
    <glyph glyph-name="commasuperior" unicode="&#xf6e2;" horiz-adv-x="210" 
d="M24 275l36 170h118l-74 -170h-80z" />
    <glyph glyph-name="dollarinferior" unicode="&#xf6e3;" horiz-adv-x="396" 
d="M362 -52q0 -36 -26.5 -68.5t-76.5 -46.5v-70h-121v67q-83 19 -116 107l101 42q10 -26 30.5 -40.5t44.5 -14.5q37 0 37 22q0 9 -8 16t-32 18l-66 29q-37 16 -56.5 40t-19.5 66t22 71.5t63 41.5v69h121v-68q51 -13 72 -59l-93 -49q-10 21 -35 21q-22 0 -22 -13
q0 -10 20 -19l66 -32q51 -25 73 -54t22 -76z" />
    <glyph glyph-name="dollarsuperior" unicode="&#xf6e4;" horiz-adv-x="396" 
d="M372 468q0 -36 -26.5 -68.5t-76.5 -46.5v-70h-121v67q-83 19 -116 107l101 42q10 -26 30 -40.5t45 -14.5q37 0 37 22q0 9 -8 16t-32 18l-66 29q-37 16 -56.5 40t-19.5 66t22 71.5t63 41.5v69h121v-68q51 -13 72 -59l-93 -49q-10 21 -35 21q-22 0 -22 -13q0 -10 20 -19
l66 -32q51 -25 73 -54t22 -76z" />
    <glyph glyph-name="periodinferior" unicode="&#xf6e7;" horiz-adv-x="230" 
d="M48 -170v96h114v-96h-114z" />
    <glyph glyph-name="periodsuperior" unicode="&#xf6e8;" horiz-adv-x="230" 
d="M58 350v96h114v-96h-114z" />
    <glyph glyph-name="s_t" unicode="&#xfb06;" horiz-adv-x="860" 
d="M563 525q0 90 -91 90t-91 -90q0 -42 20 -91q2 -5 7 -15l-123 -64q-17 36 -46 36q-27 0 -27 -20q0 -16 23 -25l68 -25q65 -24 100 -63.5t35 -107.5q0 -72 -56 -117t-151 -45q-84 0 -137.5 35.5t-73.5 96.5l131 60q29 -60 85 -60q42 0 42 26q0 23 -52 42l-61 22
q-115 41 -115 155q0 65 52 106t131 41q22 0 33 -5q-14 33 -14 63q0 88 62 139t158 51q123 0 195 -59t72 -176v-25h101v-128h-101v-372h-176v372h-77v128h77v25z" />
    <glyph glyph-name="J.alt" horiz-adv-x="323" 
d="M258 -182l-193 -30v912h193v-882z" />
    <glyph glyph-name="W.alt" horiz-adv-x="979" 
d="M637 0l-140 425l-151 -425h-156l-180 700h194l91 -398l125 398h153l127 -390l85 390h184l-179 -700h-153z" />
    <glyph glyph-name="IJ.alt" horiz-adv-x="643" 
d="M65 0v700h193v-700h-193zM578 -182l-193 -30v912h193v-882z" />
    <glyph glyph-name="Jcircumflex.alt" horiz-adv-x="323" 
d="M-30 763l109 127h167l106 -127h-149l-42 59l-42 -59h-149zM258 -182l-193 -30v912h193v-882z" />
    <glyph glyph-name="Wgrave.alt" horiz-adv-x="979" 
d="M569 763h-141l-105 127h182zM637 0l-140 425l-151 -425h-156l-180 700h194l91 -398l125 398h153l127 -390l85 390h184l-179 -700h-153z" />
    <glyph glyph-name="Wacute.alt" horiz-adv-x="979" 
d="M424 763l64 127h182l-105 -127h-141zM637 0l-140 425l-151 -425h-156l-180 700h194l91 -398l125 398h153l127 -390l85 390h184l-179 -700h-153z" />
    <glyph glyph-name="Wcircumflex.alt" horiz-adv-x="979" 
d="M305 763l109 127h167l106 -127h-149l-42 59l-42 -59h-149zM637 0l-140 425l-151 -425h-156l-180 700h194l91 -398l125 398h153l127 -390l85 390h184l-179 -700h-153z" />
    <glyph glyph-name="Wdieresis.alt" horiz-adv-x="979" 
d="M344 768v117h123v-117h-123zM525 768v117h123v-117h-123zM637 0l-140 425l-151 -425h-156l-180 700h194l91 -398l125 398h153l127 -390l85 390h184l-179 -700h-153z" />
    <glyph glyph-name="a.alt" horiz-adv-x="572" 
d="M211 -12q-76 0 -127 48.5t-51 119.5q0 81 57 127t143 46q75 0 111 -24v10q0 26 -21.5 43t-60.5 17q-87 0 -147 -28l-40 129q35 16 88.5 26.5t98.5 9.5q258 0 258 -197v-315h-157l-13 38q-44 -50 -139 -50zM280 112q30 0 50.5 14.5t20.5 37.5t-20.5 37.5t-50.5 14.5
t-50.5 -14.5t-20.5 -37.5t20.5 -37.5t50.5 -14.5z" />
    <glyph glyph-name="g.alt" horiz-adv-x="655" 
d="M595 10q0 -103 -87 -162.5t-207 -59.5q-151 0 -245 63l72 137q77 -50 165 -50q58 0 92 26t34 61v40q-50 -50 -149 -50q-41 0 -79.5 12.5t-73.5 39t-56 76.5t-21 117q0 120 72.5 186t167.5 66q104 0 149 -62l20 50h146v-490zM318 360q-44 0 -73 -26.5t-29 -73.5
q0 -48 29 -74t73 -26q43 0 72 26t29 74q0 47 -29 73.5t-72 26.5z" />
    <glyph glyph-name="k.alt" horiz-adv-x="596" 
d="M359 0l-91 119q-22 30 -32 44v-163h-176v715h176v-264q47 63 120 63q80 0 128.5 -49t48.5 -122q0 -53 -27 -96.5t-73 -62.5l147 -184h-221zM304 245q31 0 48.5 20t17.5 53t-18.5 54t-47.5 21q-30 0 -49 -20.5t-19 -54.5q0 -33 19 -53t49 -20z" />
    <glyph glyph-name="w.alt" horiz-adv-x="810" 
d="M493 0l-82 264l-90 -264h-168l-153 500h177l75 -278l89 278h138l90 -271l70 271h172l-152 -500h-166z" />
    <glyph glyph-name="agrave.alt" horiz-adv-x="572" 
d="M359 573h-141l-105 127h182zM211 -12q-76 0 -127 48.5t-51 119.5q0 81 57 127t143 46q75 0 111 -24v10q0 26 -21.5 43t-60.5 17q-87 0 -147 -28l-40 129q35 16 88.5 26.5t98.5 9.5q258 0 258 -197v-315h-157l-13 38q-44 -50 -139 -50zM280 112q30 0 50.5 14.5t20.5 37.5
t-20.5 37.5t-50.5 14.5t-50.5 -14.5t-20.5 -37.5t20.5 -37.5t50.5 -14.5z" />
    <glyph glyph-name="aacute.alt" horiz-adv-x="572" 
d="M214 573l64 127h182l-105 -127h-141zM211 -12q-76 0 -127 48.5t-51 119.5q0 81 57 127t143 46q75 0 111 -24v10q0 26 -21.5 43t-60.5 17q-87 0 -147 -28l-40 129q35 16 88.5 26.5t98.5 9.5q258 0 258 -197v-315h-157l-13 38q-44 -50 -139 -50zM280 112q30 0 50.5 14.5
t20.5 37.5t-20.5 37.5t-50.5 14.5t-50.5 -14.5t-20.5 -37.5t20.5 -37.5t50.5 -14.5z" />
    <glyph glyph-name="acircumflex.alt" horiz-adv-x="572" 
d="M95 573l109 127h167l106 -127h-149l-42 59l-42 -59h-149zM211 -12q-76 0 -127 48.5t-51 119.5q0 81 57 127t143 46q75 0 111 -24v10q0 26 -21.5 43t-60.5 17q-87 0 -147 -28l-40 129q35 16 88.5 26.5t98.5 9.5q258 0 258 -197v-315h-157l-13 38q-44 -50 -139 -50z
M280 112q30 0 50.5 14.5t20.5 37.5t-20.5 37.5t-50.5 14.5t-50.5 -14.5t-20.5 -37.5t20.5 -37.5t50.5 -14.5z" />
    <glyph glyph-name="atilde.alt" horiz-adv-x="572" 
d="M207 560h-104q-11 70 19 111t91 41q32 0 74.5 -24t56.5 -24q32 0 20 48h104q14 -69 -17 -110.5t-93 -41.5q-35 0 -77.5 24t-53.5 24q-32 0 -20 -48zM211 -12q-76 0 -127 48.5t-51 119.5q0 81 57 127t143 46q75 0 111 -24v10q0 26 -21.5 43t-60.5 17q-87 0 -147 -28
l-40 129q35 16 88.5 26.5t98.5 9.5q258 0 258 -197v-315h-157l-13 38q-44 -50 -139 -50zM280 112q30 0 50.5 14.5t20.5 37.5t-20.5 37.5t-50.5 14.5t-50.5 -14.5t-20.5 -37.5t20.5 -37.5t50.5 -14.5z" />
    <glyph glyph-name="adieresis.alt" horiz-adv-x="572" 
d="M134 577v117h123v-117h-123zM315 577v117h123v-117h-123zM211 -12q-76 0 -127 48.5t-51 119.5q0 81 57 127t143 46q75 0 111 -24v10q0 26 -21.5 43t-60.5 17q-87 0 -147 -28l-40 129q35 16 88.5 26.5t98.5 9.5q258 0 258 -197v-315h-157l-13 38q-44 -50 -139 -50z
M280 112q30 0 50.5 14.5t20.5 37.5t-20.5 37.5t-50.5 14.5t-50.5 -14.5t-20.5 -37.5t20.5 -37.5t50.5 -14.5z" />
    <glyph glyph-name="amacron.alt" horiz-adv-x="572" 
d="M131 583v112h310v-112h-310zM211 -12q-76 0 -127 48.5t-51 119.5q0 81 57 127t143 46q75 0 111 -24v10q0 26 -21.5 43t-60.5 17q-87 0 -147 -28l-40 129q35 16 88.5 26.5t98.5 9.5q258 0 258 -197v-315h-157l-13 38q-44 -50 -139 -50zM280 112q30 0 50.5 14.5t20.5 37.5
t-20.5 37.5t-50.5 14.5t-50.5 -14.5t-20.5 -37.5t20.5 -37.5t50.5 -14.5z" />
    <glyph glyph-name="abreve.alt" horiz-adv-x="572" 
d="M286 665q18 0 28 11t10 29h107q0 -64 -39.5 -100.5t-105.5 -36.5t-105.5 36.5t-39.5 100.5h107q0 -18 10 -29t28 -11zM211 -12q-76 0 -127 48.5t-51 119.5q0 81 57 127t143 46q75 0 111 -24v10q0 26 -21.5 43t-60.5 17q-87 0 -147 -28l-40 129q35 16 88.5 26.5t98.5 9.5
q258 0 258 -197v-315h-157l-13 38q-44 -50 -139 -50zM280 112q30 0 50.5 14.5t20.5 37.5t-20.5 37.5t-50.5 14.5t-50.5 -14.5t-20.5 -37.5t20.5 -37.5t50.5 -14.5z" />
    <glyph glyph-name="aring.alt" horiz-adv-x="572" 
d="M175 654q0 44 32 76.5t79 32.5t79 -32.5t32 -76.5t-32.5 -76.5t-78.5 -32.5q-47 0 -79 32.5t-32 76.5zM286 680q-10 0 -18 -8t-8 -18t7.5 -17.5t18.5 -7.5q10 0 17.5 7.5t7.5 17.5q0 11 -7.5 18.5t-17.5 7.5zM211 -12q-76 0 -127 48.5t-51 119.5q0 81 57 127t143 46
q75 0 111 -24v10q0 26 -21.5 43t-60.5 17q-87 0 -147 -28l-40 129q35 16 88.5 26.5t98.5 9.5q258 0 258 -197v-315h-157l-13 38q-44 -50 -139 -50zM280 112q30 0 50.5 14.5t20.5 37.5t-20.5 37.5t-50.5 14.5t-50.5 -14.5t-20.5 -37.5t20.5 -37.5t50.5 -14.5z" />
    <glyph glyph-name="aringacute.alt" horiz-adv-x="572" 
d="M214 796l64 127h182l-105 -127h-141zM175 654q0 44 32 76.5t79 32.5t79 -32.5t32 -76.5t-32.5 -76.5t-78.5 -32.5q-47 0 -79 32.5t-32 76.5zM286 680q-10 0 -18 -8t-8 -18t7.5 -17.5t18.5 -7.5q10 0 17.5 7.5t7.5 17.5q0 11 -7.5 18.5t-17.5 7.5zM211 -12
q-76 0 -127 48.5t-51 119.5q0 81 57 127t143 46q75 0 111 -24v10q0 26 -21.5 43t-60.5 17q-87 0 -147 -28l-40 129q35 16 88.5 26.5t98.5 9.5q258 0 258 -197v-315h-157l-13 38q-44 -50 -139 -50zM280 112q30 0 50.5 14.5t20.5 37.5t-20.5 37.5t-50.5 14.5t-50.5 -14.5
t-20.5 -37.5t20.5 -37.5t50.5 -14.5z" />
    <glyph glyph-name="aogonek.alt" horiz-adv-x="572" 
d="M211 -12q-76 0 -127 48.5t-51 119.5q0 81 57 127t143 46q75 0 111 -24v10q0 26 -21.5 43t-60.5 17q-87 0 -147 -28l-40 129q35 16 88.5 26.5t98.5 9.5q258 0 258 -197v-315h-7q-60 -31 -60 -64q0 -23 22 -23q18 0 40 19l40 -77q-41 -48 -104 -48q-45 0 -74 24t-29 67
q0 70 66 102h-51l-13 38q-44 -50 -139 -50zM280 112q30 0 50.5 14.5t20.5 37.5t-20.5 37.5t-50.5 14.5t-50.5 -14.5t-20.5 -37.5t20.5 -37.5t50.5 -14.5z" />
    <glyph glyph-name="ae.alt" horiz-adv-x="909" 
d="M854 110q-70 -122 -241 -122q-50 0 -94.5 22t-74.5 59q-66 -81 -216 -81q-80 0 -134 48.5t-54 119.5q0 81 57 127t143 46q75 0 111 -24v10q0 26 -21.5 43t-60.5 17q-87 0 -147 -28l-40 129q81 36 187 36q120 0 187 -64q71 64 156 64q129 0 196 -72.5t67 -169.5
q0 -31 -8 -63h-338q8 -33 32 -51.5t59 -18.5q63 0 90 46zM532 320h162q-6 25 -28.5 43.5t-53.5 18.5q-32 0 -53.5 -18.5t-26.5 -43.5zM287 112q30 0 50.5 14.5t20.5 37.5t-20.5 37.5t-50.5 14.5t-50.5 -14.5t-20.5 -37.5t20.5 -37.5t50.5 -14.5z" />
    <glyph glyph-name="aeacute.alt" horiz-adv-x="909" 
d="M392 573l64 127h182l-105 -127h-141zM854 110q-70 -122 -241 -122q-50 0 -94.5 22t-74.5 59q-66 -81 -216 -81q-80 0 -134 48.5t-54 119.5q0 81 57 127t143 46q75 0 111 -24v10q0 26 -21.5 43t-60.5 17q-87 0 -147 -28l-40 129q81 36 187 36q120 0 187 -64q71 64 156 64
q129 0 196 -72.5t67 -169.5q0 -31 -8 -63h-338q8 -33 32 -51.5t59 -18.5q63 0 90 46zM532 320h162q-6 25 -28.5 43.5t-53.5 18.5q-32 0 -53.5 -18.5t-26.5 -43.5zM287 112q30 0 50.5 14.5t20.5 37.5t-20.5 37.5t-50.5 14.5t-50.5 -14.5t-20.5 -37.5t20.5 -37.5t50.5 -14.5z
" />
    <glyph glyph-name="gcircumflex.alt" horiz-adv-x="655" 
d="M124 573l109 127h167l106 -127h-149l-42 59l-42 -59h-149zM595 10q0 -103 -87 -162.5t-207 -59.5q-151 0 -245 63l72 137q77 -50 165 -50q58 0 92 26t34 61v40q-50 -50 -149 -50q-41 0 -79.5 12.5t-73.5 39t-56 76.5t-21 117q0 120 72.5 186t167.5 66q104 0 149 -62
l20 50h146v-490zM318 360q-44 0 -73 -26.5t-29 -73.5q0 -48 29 -74t73 -26q43 0 72 26t29 74q0 47 -29 73.5t-72 26.5z" />
    <glyph glyph-name="gbreve.alt" horiz-adv-x="655" 
d="M315 665q18 0 28 11t10 29h107q0 -64 -39.5 -100.5t-105.5 -36.5t-105.5 36.5t-39.5 100.5h107q0 -18 10 -29t28 -11zM595 10q0 -103 -87 -162.5t-207 -59.5q-151 0 -245 63l72 137q77 -50 165 -50q58 0 92 26t34 61v40q-50 -50 -149 -50q-41 0 -79.5 12.5t-73.5 39
t-56 76.5t-21 117q0 120 72.5 186t167.5 66q104 0 149 -62l20 50h146v-490zM318 360q-44 0 -73 -26.5t-29 -73.5q0 -48 29 -74t73 -26q43 0 72 26t29 74q0 47 -29 73.5t-72 26.5z" />
    <glyph glyph-name="gdotaccent.alt" horiz-adv-x="655" 
d="M241 566v146h149v-146h-149zM595 10q0 -103 -87 -162.5t-207 -59.5q-151 0 -245 63l72 137q77 -50 165 -50q58 0 92 26t34 61v40q-50 -50 -149 -50q-41 0 -79.5 12.5t-73.5 39t-56 76.5t-21 117q0 120 72.5 186t167.5 66q104 0 149 -62l20 50h146v-490zM318 360
q-44 0 -73 -26.5t-29 -73.5q0 -48 29 -74t73 -26q43 0 72 26t29 74q0 47 -29 73.5t-72 26.5z" />
    <glyph glyph-name="gcommaaccent.alt" horiz-adv-x="655" 
d="M214 560l70 157h119l-24 -157h-165zM595 10q0 -103 -87 -162.5t-207 -59.5q-151 0 -245 63l72 137q77 -50 165 -50q58 0 92 26t34 61v40q-50 -50 -149 -50q-41 0 -79.5 12.5t-73.5 39t-56 76.5t-21 117q0 120 72.5 186t167.5 66q104 0 149 -62l20 50h146v-490zM318 360
q-44 0 -73 -26.5t-29 -73.5q0 -48 29 -74t73 -26q43 0 72 26t29 74q0 47 -29 73.5t-72 26.5z" />
    <glyph glyph-name="idotaccent" horiz-adv-x="296" 
d="M74 566v146h149v-146h-149zM60 0v500h176v-500h-176z" />
    <glyph glyph-name="kcommaaccent.alt" horiz-adv-x="596" 
d="M359 0l-91 119q-22 30 -32 44v-163h-176v715h176v-264q47 63 120 63q80 0 128.5 -49t48.5 -122q0 -53 -27 -96.5t-73 -62.5l147 -184h-221zM304 245q31 0 48.5 20t17.5 53t-18.5 54t-47.5 21q-30 0 -49 -20.5t-19 -54.5q0 -33 19 -53t49 -20zM194 -230l24 157h165
l-70 -157h-119z" />
    <glyph glyph-name="wgrave.alt" horiz-adv-x="810" 
d="M458 573h-141l-105 127h182zM493 0l-82 264l-90 -264h-168l-153 500h177l75 -278l89 278h138l90 -271l70 271h172l-152 -500h-166z" />
    <glyph glyph-name="wacute.alt" horiz-adv-x="810" 
d="M313 573l64 127h182l-105 -127h-141zM493 0l-82 264l-90 -264h-168l-153 500h177l75 -278l89 278h138l90 -271l70 271h172l-152 -500h-166z" />
    <glyph glyph-name="wcircumflex.alt" horiz-adv-x="810" 
d="M194 573l109 127h167l106 -127h-149l-42 59l-42 -59h-149zM493 0l-82 264l-90 -264h-168l-153 500h177l75 -278l89 278h138l90 -271l70 271h172l-152 -500h-166z" />
    <glyph glyph-name="wdieresis.alt" horiz-adv-x="810" 
d="M233 577v117h123v-117h-123zM414 577v117h123v-117h-123zM493 0l-82 264l-90 -264h-168l-153 500h177l75 -278l89 278h138l90 -271l70 271h172l-152 -500h-166z" />
    <glyph glyph-name="A.small" horiz-adv-x="604" 
d="M176 0h-171l220 570h159l215 -570h-172l-32 90h-187zM262 240h79l-39 110z" />
    <glyph glyph-name="B.small" horiz-adv-x="573" 
d="M63 0v570h228q77 0 134 -42t57 -104q0 -69 -47 -104q42 -11 75 -50t33 -97q0 -77 -53.5 -125t-138.5 -48h-288zM225 356h45q18 0 26.5 10t8.5 22t-9 21t-26 9h-45v-62zM225 152h96q18 0 30 11.5t12 26.5t-12 26.5t-30 11.5h-96v-76z" />
    <glyph glyph-name="C.small" horiz-adv-x="638" 
d="M336 -10q-127 0 -209 85t-82 210q0 129 84 212t228 83q88 0 152 -35t98 -100l-149 -89q-20 34 -44.5 52t-66.5 18q-49 0 -85 -37t-36 -104q0 -72 40 -106.5t92 -34.5q72 0 110 67l155 -66q-75 -155 -287 -155z" />
    <glyph glyph-name="D.small" horiz-adv-x="642" 
d="M63 0v570h244q135 0 212.5 -81t77.5 -204q0 -121 -78.5 -203t-211.5 -82h-244zM244 152h60q47 0 80 31.5t33 101.5q0 69 -33.5 101t-79.5 32h-60v-266z" />
    <glyph glyph-name="E.small" horiz-adv-x="580" 
d="M63 0v570h458v-152h-277v-57h260v-152h-260v-57h277v-152h-458z" />
    <glyph glyph-name="F.small" horiz-adv-x="563" 
d="M63 0v570h447v-152h-266v-58h249v-152h-249v-208h-181z" />
    <glyph glyph-name="G.small" horiz-adv-x="672" 
d="M341 -10q-130 1 -213 86t-83 209q0 127 84 211t227 84q178 0 244 -122l-144 -93q-38 61 -110 61q-48 0 -84 -37t-36 -104q0 -72 40 -106.5t95 -34.5q36 0 63.5 16t31.5 38h-118v141h292v-339h-132l-17 30q-53 -40 -140 -40z" />
    <glyph glyph-name="H.small" horiz-adv-x="650" 
d="M63 0v570h181v-199h162v199h181v-570h-181v219h-162v-219h-181z" />
    <glyph glyph-name="I.small" horiz-adv-x="307" 
d="M63 0v570h181v-570h-181z" />
    <glyph glyph-name="J.small" horiz-adv-x="540" 
d="M241 -10q-87 0 -138 39.5t-73 99.5l142 70q25 -57 69 -57q32 0 48.5 17t16.5 45v366h180v-381q0 -93 -62.5 -146t-182.5 -53z" />
    <glyph glyph-name="J.smallalt" horiz-adv-x="307" 
d="M244 -182l-181 -30v782h181v-752z" />
    <glyph glyph-name="K.small" horiz-adv-x="645" 
d="M63 0v570h181v-174l145 174h222l-228 -267l248 -303h-231l-156 194v-194h-181z" />
    <glyph glyph-name="L.small" horiz-adv-x="548" 
d="M63 0v570h181v-418h270v-152h-451z" />
    <glyph glyph-name="M.small" horiz-adv-x="775" 
d="M63 0v570h238l87 -336l113 336h215v-570h-164v272l-88 -272h-150l-86 272v-272h-165z" />
    <glyph glyph-name="N.small" horiz-adv-x="647" 
d="M63 0v570h201l144 -276v276h176v-570h-201l-144 263v-263h-176z" />
    <glyph glyph-name="O.small" horiz-adv-x="708" 
d="M353 -10q-140 0 -224 83.5t-84 211.5q0 130 82.5 212.5t225.5 82.5q144 0 227.5 -82.5t83.5 -212.5q0 -127 -85 -211t-226 -84zM354 142q51 0 90.5 35.5t38.5 107.5q0 71 -39 107t-90 36t-89.5 -36t-38.5 -107q0 -72 39 -107.5t89 -35.5z" />
    <glyph glyph-name="P.small" horiz-adv-x="579" 
d="M63 0v570h238q115 0 171 -49.5t56 -133.5q0 -94 -64.5 -151t-173.5 -57h-46v-179h-181zM244 333h59q17 0 30.5 11.5t13.5 30.5t-13.5 31t-30.5 12h-59v-85z" />
    <glyph glyph-name="Q.small" horiz-adv-x="708" 
d="M353 -10q-140 0 -224 83.5t-84 211.5q0 130 82.5 212.5t225.5 82.5q144 0 227.5 -82.5t83.5 -212.5q0 -112 -66 -190l63 -70l-101 -89l-71 79q-62 -25 -136 -25zM354 142q7 0 21 2l-41 45l101 87l41 -45q7 21 7 54q0 71 -39 107t-90 36t-89.5 -36t-38.5 -107
q0 -72 39 -107.5t89 -35.5z" />
    <glyph glyph-name="R.small" horiz-adv-x="601" 
d="M63 0v570h218q121 0 180 -44.5t59 -124.5q0 -85 -92 -142l143 -259h-202l-105 207h-20v-207h-181zM244 351h52q44 0 44 34q0 33 -44 33h-52v-67z" />
    <glyph glyph-name="S.small" horiz-adv-x="513" 
d="M268 -10q-182 0 -238 164l139 61q14 -36 42 -58t61 -22q50 0 50 30q0 13 -10.5 22.5t-43.5 24.5l-91 43q-105 50 -105 160q0 74 57 119.5t151 45.5q134 0 185 -95l-127 -76q-20 31 -58 31q-26 0 -26 -17q0 -14 22 -26l92 -47q67 -35 98.5 -75.5t31.5 -105.5
q0 -72 -64 -125.5t-166 -53.5z" />
    <glyph glyph-name="T.small" horiz-adv-x="509" 
d="M166 0v418h-143v152h464v-152h-140v-418h-181z" />
    <glyph glyph-name="U.small" horiz-adv-x="645" 
d="M323 -10q-123 0 -195.5 67t-72.5 181v332h181v-325q0 -103 87 -103t87 103v325h180v-332q0 -114 -72.5 -181t-194.5 -67z" />
    <glyph glyph-name="V.small" horiz-adv-x="587" 
d="M209 0l-195 570h187l92 -330l93 330h188l-197 -570h-168z" />
    <glyph glyph-name="W.small" horiz-adv-x="811" 
d="M211 0l-197 570h171l117 -340l35 82l-102 258h160l25 -74l27 74h140l-100 -238l40 -102l116 340h154l-198 -570h-138l-55 149l-58 -149h-137z" />
    <glyph glyph-name="W.smallalt" horiz-adv-x="811" 
d="M528 0l-120 341l-120 -341h-137l-135 570h171l61 -290l92 290h135l102 -289l58 289h162l-135 -570h-134z" />
    <glyph glyph-name="X.small" horiz-adv-x="599" 
d="M26 0l181 294l-169 276h193l72 -130l75 130h183l-167 -272l179 -298h-186l-87 153l-88 -153h-186z" />
    <glyph glyph-name="Y.small" horiz-adv-x="556" 
d="M187 0v214l-170 356h184l77 -186l77 186h185l-172 -356v-214h-181z" />
    <glyph glyph-name="Z.small" horiz-adv-x="551" 
d="M50 0v144l226 274h-209v152h426v-144l-227 -274h235v-152h-451z" />
    <glyph glyph-name="Agrave.small" horiz-adv-x="604" 
d="M375 634h-141l-105 127h182zM176 0h-171l220 570h159l215 -570h-172l-32 90h-187zM262 240h79l-39 110z" />
    <glyph glyph-name="Aacute.small" horiz-adv-x="604" 
d="M230 634l64 127h182l-105 -127h-141zM176 0h-171l220 570h159l215 -570h-172l-32 90h-187zM262 240h79l-39 110z" />
    <glyph glyph-name="Acircumflex.small" horiz-adv-x="604" 
d="M111 634l109 127h167l106 -127h-149l-42 59l-42 -59h-149zM176 0h-171l220 570h159l215 -570h-172l-32 90h-187zM262 240h79l-39 110z" />
    <glyph glyph-name="Atilde.small" horiz-adv-x="604" 
d="M223 621h-104q-11 70 19 111t91 41q31 0 74 -24t57 -24q32 0 20 48h104q14 -69 -17 -110.5t-93 -41.5q-35 0 -77.5 24t-53.5 24q-32 0 -20 -48zM176 0h-171l220 570h159l215 -570h-172l-32 90h-187zM262 240h79l-39 110z" />
    <glyph glyph-name="Adieresis.small" horiz-adv-x="604" 
d="M150 638v117h123v-117h-123zM331 638v117h123v-117h-123zM176 0h-171l220 570h159l215 -570h-172l-32 90h-187zM262 240h79l-39 110z" />
    <glyph glyph-name="Amacron.small" horiz-adv-x="604" 
d="M147 644v112h310v-112h-310zM176 0h-171l220 570h159l215 -570h-172l-32 90h-187zM262 240h79l-39 110z" />
    <glyph glyph-name="Abreve.small" horiz-adv-x="604" 
d="M302 726q18 0 28 11t10 29h107q0 -64 -39.5 -100.5t-105.5 -36.5t-105.5 36.5t-39.5 100.5h107q0 -18 10 -29t28 -11zM176 0h-171l220 570h159l215 -570h-172l-32 90h-187zM262 240h79l-39 110z" />
    <glyph glyph-name="Aring.small" horiz-adv-x="604" 
d="M191 715q0 44 32 76.5t79 32.5t79 -32.5t32 -76.5t-32.5 -76.5t-78.5 -32.5q-47 0 -79 32.5t-32 76.5zM302 741q-10 0 -18 -7.5t-8 -18.5q0 -10 7.5 -17.5t18.5 -7.5q10 0 17.5 7t7.5 18t-7.5 18.5t-17.5 7.5zM176 0h-171l220 570h159l215 -570h-172l-32 90h-187z
M262 240h79l-39 110z" />
    <glyph glyph-name="Aringacute.small" horiz-adv-x="604" 
d="M236 856l64 127h182l-105 -127h-141zM191 715q0 44 32 76.5t79 32.5t79 -32.5t32 -76.5t-32.5 -76.5t-78.5 -32.5q-47 0 -79 32.5t-32 76.5zM302 741q-10 0 -18 -7.5t-8 -18.5q0 -10 7.5 -17.5t18.5 -7.5q10 0 17.5 7t7.5 18t-7.5 18.5t-17.5 7.5zM176 0h-171l220 570
h159l215 -570h-172l-32 90h-187zM262 240h79l-39 110z" />
    <glyph glyph-name="Aogonek.small" horiz-adv-x="604" 
d="M176 0h-171l220 570h159l215 -570h-10q-60 -31 -60 -64q0 -23 22 -23q18 0 40 19l40 -77q-41 -48 -104 -48q-45 0 -74 24t-29 67q0 70 66 102h-63l-32 90h-187zM262 240h79l-39 110z" />
    <glyph glyph-name="AE.small" horiz-adv-x="880" 
d="M-4 0l249 570h576v-152h-277v-57h260v-152h-260v-57h277v-152h-457v90h-144l-37 -90h-187zM281 242h83v175h-9z" />
    <glyph glyph-name="AEacute.small" horiz-adv-x="880" 
d="M272 616l64 127h182l-105 -127h-141zM-4 0l249 570h576v-152h-277v-57h260v-152h-260v-57h277v-152h-457v90h-144l-37 -90h-187zM281 242h83v175h-9z" />
    <glyph glyph-name="Cacute.small" horiz-adv-x="638" 
d="M268 634l64 127h182l-105 -127h-141zM336 -10q-127 0 -209 85t-82 210q0 129 84 212t228 83q88 0 152 -35t98 -100l-149 -89q-20 34 -44.5 52t-66.5 18q-49 0 -85 -37t-36 -104q0 -72 40 -106.5t92 -34.5q72 0 110 67l155 -66q-75 -155 -287 -155z" />
    <glyph glyph-name="Ccircumflex.small" horiz-adv-x="638" 
d="M149 634l109 127h167l106 -127h-149l-42 59l-42 -59h-149zM336 -10q-127 0 -209 85t-82 210q0 129 84 212t228 83q88 0 152 -35t98 -100l-149 -89q-20 34 -44.5 52t-66.5 18q-49 0 -85 -37t-36 -104q0 -72 40 -106.5t92 -34.5q72 0 110 67l155 -66q-75 -155 -287 -155z
" />
    <glyph glyph-name="Ccaron.small" horiz-adv-x="638" 
d="M258 634l-109 127h149l42 -59l42 59h149l-106 -127h-167zM336 -10q-127 0 -209 85t-82 210q0 129 84 212t228 83q88 0 152 -35t98 -100l-149 -89q-20 34 -44.5 52t-66.5 18q-49 0 -85 -37t-36 -104q0 -72 40 -106.5t92 -34.5q72 0 110 67l155 -66q-75 -155 -287 -155z
" />
    <glyph glyph-name="Cdotaccent.small" horiz-adv-x="638" 
d="M266 627v146h149v-146h-149zM336 -10q-127 0 -209 85t-82 210q0 129 84 212t228 83q88 0 152 -35t98 -100l-149 -89q-20 34 -44.5 52t-66.5 18q-49 0 -85 -37t-36 -104q0 -72 40 -106.5t92 -34.5q72 0 110 67l155 -66q-75 -155 -287 -155z" />
    <glyph glyph-name="Ccedilla.small" horiz-adv-x="638" 
d="M289 -117l-59 49l54 62q-107 18 -173 98.5t-66 192.5q0 129 84 212t228 83q88 0 152 -35t98 -100l-149 -89q-20 34 -44.5 52t-66.5 18q-49 0 -85 -37t-36 -104q0 -72 40 -106.5t92 -34.5q72 0 110 67l155 -66q-66 -138 -246 -153l-25 -30q42 0 71.5 -26.5t29.5 -66.5
q0 -45 -34 -77t-99 -32q-66 0 -119 40l48 75q35 -30 66 -30q14 0 24 6.5t10 17.5t-8.5 17.5t-21.5 6.5q-18 0 -30 -10z" />
    <glyph glyph-name="Dcaron.small" horiz-adv-x="642" 
d="M243 634l-109 127h149l42 -59l42 59h149l-106 -127h-167zM63 0v570h244q135 0 212.5 -81t77.5 -204q0 -121 -78.5 -203t-211.5 -82h-244zM244 152h60q47 0 80 31.5t33 101.5q0 69 -33.5 101t-79.5 32h-60v-266z" />
    <glyph glyph-name="Dcroat.small" horiz-adv-x="642" 
d="M68 0v211h-56v148h56v211h244q135 0 212.5 -81t77.5 -204q0 -121 -78.5 -203t-211.5 -82h-244zM249 152h60q47 0 80 31.5t33 101.5q0 69 -33.5 101t-79.5 32h-60v-59h88v-148h-88v-59z" />
    <glyph glyph-name="Egrave.small" horiz-adv-x="580" 
d="M364 634h-141l-105 127h182zM63 0v570h458v-152h-277v-57h260v-152h-260v-57h277v-152h-458z" />
    <glyph glyph-name="Eacute.small" horiz-adv-x="580" 
d="M219 634l64 127h182l-105 -127h-141zM63 0v570h458v-152h-277v-57h260v-152h-260v-57h277v-152h-458z" />
    <glyph glyph-name="Ecircumflex.small" horiz-adv-x="580" 
d="M100 634l109 127h167l106 -127h-149l-42 59l-42 -59h-149zM63 0v570h458v-152h-277v-57h260v-152h-260v-57h277v-152h-458z" />
    <glyph glyph-name="Ecaron.small" horiz-adv-x="580" 
d="M209 634l-109 127h149l42 -59l42 59h149l-106 -127h-167zM63 0v570h458v-152h-277v-57h260v-152h-260v-57h277v-152h-458z" />
    <glyph glyph-name="Edieresis.small" horiz-adv-x="580" 
d="M139 638v117h123v-117h-123zM320 638v117h123v-117h-123zM63 0v570h458v-152h-277v-57h260v-152h-260v-57h277v-152h-458z" />
    <glyph glyph-name="Emacron.small" horiz-adv-x="580" 
d="M136 644v112h310v-112h-310zM63 0v570h458v-152h-277v-57h260v-152h-260v-57h277v-152h-458z" />
    <glyph glyph-name="Ebreve.small" horiz-adv-x="580" 
d="M291 726q18 0 28 11t10 29h107q0 -64 -39.5 -100.5t-105.5 -36.5t-105.5 36.5t-39.5 100.5h107q0 -18 10 -29t28 -11zM63 0v570h458v-152h-277v-57h260v-152h-260v-57h277v-152h-458z" />
    <glyph glyph-name="Edotaccent.small" horiz-adv-x="580" 
d="M217 627v146h149v-146h-149zM63 0v570h458v-152h-277v-57h260v-152h-260v-57h277v-152h-458z" />
    <glyph glyph-name="Eogonek.small" horiz-adv-x="580" 
d="M63 0v570h458v-152h-277v-57h260v-152h-260v-57h277v-152h-7q-60 -31 -60 -64q0 -23 22 -23q19 0 40 19l40 -77q-41 -48 -104 -48q-45 0 -74 24t-29 67q0 70 66 102h-352z" />
    <glyph glyph-name="Gcircumflex.small" horiz-adv-x="672" 
d="M147 634l109 127h167l106 -127h-149l-42 59l-42 -59h-149zM341 -10q-130 1 -213 86t-83 209q0 127 84 211t227 84q178 0 244 -122l-144 -93q-38 61 -110 61q-48 0 -84 -37t-36 -104q0 -72 40 -106.5t95 -34.5q36 0 63.5 16t31.5 38h-118v141h292v-339h-132l-17 30
q-53 -40 -140 -40z" />
    <glyph glyph-name="Gbreve.small" horiz-adv-x="672" 
d="M338 726q18 0 28 11t10 29h107q0 -64 -39.5 -100.5t-105.5 -36.5t-105.5 36.5t-39.5 100.5h107q0 -18 10 -29t28 -11zM341 -10q-130 1 -213 86t-83 209q0 127 84 211t227 84q178 0 244 -122l-144 -93q-38 61 -110 61q-48 0 -84 -37t-36 -104q0 -72 40 -106.5t95 -34.5
q36 0 63.5 16t31.5 38h-118v141h292v-339h-132l-17 30q-53 -40 -140 -40z" />
    <glyph glyph-name="Gdotaccent.small" horiz-adv-x="672" 
d="M264 627v146h149v-146h-149zM341 -10q-130 1 -213 86t-83 209q0 127 84 211t227 84q178 0 244 -122l-144 -93q-38 61 -110 61q-48 0 -84 -37t-36 -104q0 -72 40 -106.5t95 -34.5q36 0 63.5 16t31.5 38h-118v141h292v-339h-132l-17 30q-53 -40 -140 -40z" />
    <glyph glyph-name="Gcommaaccent.small" horiz-adv-x="672" 
d="M341 -10q-130 1 -213 86t-83 209q0 127 84 211t227 84q178 0 244 -122l-144 -93q-38 61 -110 61q-48 0 -84 -37t-36 -104q0 -72 40 -106.5t95 -34.5q36 0 63.5 16t31.5 38h-118v141h292v-339h-132l-17 30q-53 -40 -140 -40zM236 -230l24 157h165l-70 -157h-119z" />
    <glyph glyph-name="Hcircumflex.small" horiz-adv-x="650" 
d="M134 634l109 127h167l106 -127h-149l-42 59l-42 -59h-149zM63 0v570h181v-199h162v199h181v-570h-181v219h-162v-219h-181z" />
    <glyph glyph-name="Hbar.small" horiz-adv-x="650" 
d="M63 0v417h-56v75h56v78h181v-78h162v78h181v-78h57v-75h-57v-417h-181v219h-162v-219h-181zM244 371h162v46h-162v-46z" />
    <glyph glyph-name="Igrave.small" horiz-adv-x="307" 
d="M226 634h-141l-105 127h182zM63 0v570h181v-570h-181z" />
    <glyph glyph-name="Iacute.small" horiz-adv-x="307" 
d="M81 634l64 127h182l-105 -127h-141zM63 0v570h181v-570h-181z" />
    <glyph glyph-name="Icircumflex.small" horiz-adv-x="307" 
d="M-38 634l109 127h167l106 -127h-149l-42 59l-42 -59h-149zM63 0v570h181v-570h-181z" />
    <glyph glyph-name="Itilde.small" horiz-adv-x="307" 
d="M74 621h-104q-11 70 19 111t91 41q32 0 75 -24t56 -24q32 0 20 48h104q14 -69 -17 -110.5t-93 -41.5q-35 0 -77.5 24t-53.5 24q-32 0 -20 -48zM63 0v570h181v-570h-181z" />
    <glyph glyph-name="Idieresis.small" horiz-adv-x="307" 
d="M1 638v117h123v-117h-123zM182 638v117h123v-117h-123zM63 0v570h181v-570h-181z" />
    <glyph glyph-name="Imacron.small" horiz-adv-x="307" 
d="M-2 644v112h310v-112h-310zM63 0v570h181v-570h-181z" />
    <glyph glyph-name="Ibreve.small" horiz-adv-x="307" 
d="M153 726q18 0 28 11t10 29h107q0 -64 -39.5 -100.5t-105.5 -36.5t-105.5 36.5t-39.5 100.5h107q0 -18 10 -29t28 -11zM63 0v570h181v-570h-181z" />
    <glyph glyph-name="Idotaccent.small" horiz-adv-x="307" 
d="M79 627v146h149v-146h-149zM63 0v570h181v-570h-181z" />
    <glyph glyph-name="Iogonek.small" horiz-adv-x="307" 
d="M63 0v570h181v-570h-23q-60 -31 -60 -64q0 -23 22 -23q18 0 40 19l40 -77q-41 -48 -104 -48q-45 0 -74 24t-29 67q0 70 66 102h-59z" />
    <glyph glyph-name="IJ.small" horiz-adv-x="848" 
d="M63 0v570h181v-570h-181zM550 -10q-87 0 -138 39.5t-73 99.5l142 70q25 -57 69 -57q32 0 48.5 17t16.5 45v366h180v-381q0 -93 -62.5 -146t-182.5 -53z" />
    <glyph glyph-name="IJ.smallalt" horiz-adv-x="617" 
d="M63 0v570h181v-570h-181zM554 -182l-181 -30v782h181v-752z" />
    <glyph glyph-name="Jcircumflex.small" horiz-adv-x="540" 
d="M205 634l109 127h167l106 -127h-149l-42 59l-42 -59h-149zM241 -10q-87 0 -138 39.5t-73 99.5l142 70q25 -57 69 -57q32 0 48.5 17t16.5 45v366h180v-381q0 -93 -62.5 -146t-182.5 -53z" />
    <glyph glyph-name="Jcircumflex.smallalt" horiz-adv-x="307" 
d="M-38 634l109 127h167l106 -127h-149l-42 59l-42 -59h-149zM244 -182l-181 -30v782h181v-752z" />
    <glyph glyph-name="Kcommaaccent.small" horiz-adv-x="645" 
d="M63 0v570h181v-174l145 174h222l-228 -267l248 -303h-231l-156 194v-194h-181zM216 -230l24 157h165l-70 -157h-119z" />
    <glyph glyph-name="Lacute.small" horiz-adv-x="548" 
d="M81 634l64 127h182l-105 -127h-141zM63 0v570h181v-418h270v-152h-451z" />
    <glyph glyph-name="Lcaron.small" horiz-adv-x="548" 
d="M63 0v570h181v-418h270v-152h-451zM292 386l35 177h138l-57 -177h-116z" />
    <glyph glyph-name="Lcommaaccent.small" horiz-adv-x="548" 
d="M63 0v570h181v-418h270v-152h-451zM187 -230l24 157h165l-70 -157h-119z" />
    <glyph glyph-name="Lslash.small" horiz-adv-x="548" 
d="M63 0v165l-51 -23v134l51 23v271h181v-191l125 56v-132l-125 -56v-95h270v-152h-451z" />
    <glyph glyph-name="Ldot.small" horiz-adv-x="548" 
d="M63 0v570h181v-418h270v-152h-451zM340 268v146h149v-146h-149z" />
    <glyph glyph-name="Nacute.small" horiz-adv-x="647" 
d="M251 634l64 127h182l-105 -127h-141zM63 0v570h201l144 -276v276h176v-570h-201l-144 263v-263h-176z" />
    <glyph glyph-name="Ncaron.small" horiz-adv-x="647" 
d="M241 634l-109 127h149l42 -59l42 59h149l-106 -127h-167zM63 0v570h201l144 -276v276h176v-570h-201l-144 263v-263h-176z" />
    <glyph glyph-name="Ntilde.small" horiz-adv-x="647" 
d="M244 621h-104q-11 70 19 111t91 41q32 0 75 -24t56 -24q32 0 20 48h104q14 -69 -17 -110.5t-93 -41.5q-35 0 -77.5 24t-53.5 24q-32 0 -20 -48zM63 0v570h201l144 -276v276h176v-570h-201l-144 263v-263h-176z" />
    <glyph glyph-name="Ncommaaccent.small" horiz-adv-x="647" 
d="M63 0v570h201l144 -276v276h176v-570h-201l-144 263v-263h-176zM221 -230l24 157h165l-70 -157h-119z" />
    <glyph glyph-name="Ograve.small" horiz-adv-x="708" 
d="M427 634h-141l-105 127h182zM353 -10q-140 0 -224 83.5t-84 211.5q0 130 82.5 212.5t225.5 82.5q144 0 227.5 -82.5t83.5 -212.5q0 -127 -85 -211t-226 -84zM354 142q51 0 90.5 35.5t38.5 107.5q0 71 -39 107t-90 36t-89.5 -36t-38.5 -107q0 -72 39 -107.5t89 -35.5z" />
    <glyph glyph-name="Oacute.small" horiz-adv-x="708" 
d="M282 634l64 127h182l-105 -127h-141zM353 -10q-140 0 -224 83.5t-84 211.5q0 130 82.5 212.5t225.5 82.5q144 0 227.5 -82.5t83.5 -212.5q0 -127 -85 -211t-226 -84zM354 142q51 0 90.5 35.5t38.5 107.5q0 71 -39 107t-90 36t-89.5 -36t-38.5 -107q0 -72 39 -107.5
t89 -35.5z" />
    <glyph glyph-name="Ocircumflex.small" horiz-adv-x="708" 
d="M163 634l109 127h167l106 -127h-149l-42 59l-42 -59h-149zM353 -10q-140 0 -224 83.5t-84 211.5q0 130 82.5 212.5t225.5 82.5q144 0 227.5 -82.5t83.5 -212.5q0 -127 -85 -211t-226 -84zM354 142q51 0 90.5 35.5t38.5 107.5q0 71 -39 107t-90 36t-89.5 -36t-38.5 -107
q0 -72 39 -107.5t89 -35.5z" />
    <glyph glyph-name="Otilde.small" horiz-adv-x="708" 
d="M275 621h-104q-11 70 19 111t91 41q31 0 74 -24t57 -24q32 0 20 48h104q14 -69 -17 -110.5t-93 -41.5q-35 0 -77.5 24t-53.5 24q-32 0 -20 -48zM353 -10q-140 0 -224 83.5t-84 211.5q0 130 82.5 212.5t225.5 82.5q144 0 227.5 -82.5t83.5 -212.5q0 -127 -85 -211
t-226 -84zM354 142q51 0 90.5 35.5t38.5 107.5q0 71 -39 107t-90 36t-89.5 -36t-38.5 -107q0 -72 39 -107.5t89 -35.5z" />
    <glyph glyph-name="Odieresis.small" horiz-adv-x="708" 
d="M202 638v117h123v-117h-123zM383 638v117h123v-117h-123zM353 -10q-140 0 -224 83.5t-84 211.5q0 130 82.5 212.5t225.5 82.5q144 0 227.5 -82.5t83.5 -212.5q0 -127 -85 -211t-226 -84zM354 142q51 0 90.5 35.5t38.5 107.5q0 71 -39 107t-90 36t-89.5 -36t-38.5 -107
q0 -72 39 -107.5t89 -35.5z" />
    <glyph glyph-name="Omacron.small" horiz-adv-x="708" 
d="M199 644v112h310v-112h-310zM353 -10q-140 0 -224 83.5t-84 211.5q0 130 82.5 212.5t225.5 82.5q144 0 227.5 -82.5t83.5 -212.5q0 -127 -85 -211t-226 -84zM354 142q51 0 90.5 35.5t38.5 107.5q0 71 -39 107t-90 36t-89.5 -36t-38.5 -107q0 -72 39 -107.5t89 -35.5z" />
    <glyph glyph-name="Obreve.small" horiz-adv-x="708" 
d="M354 726q18 0 28 11t10 29h107q0 -64 -39.5 -100.5t-105.5 -36.5t-105.5 36.5t-39.5 100.5h107q0 -18 10 -29t28 -11zM353 -10q-140 0 -224 83.5t-84 211.5q0 130 82.5 212.5t225.5 82.5q144 0 227.5 -82.5t83.5 -212.5q0 -127 -85 -211t-226 -84zM354 142
q51 0 90.5 35.5t38.5 107.5q0 71 -39 107t-90 36t-89.5 -36t-38.5 -107q0 -72 39 -107.5t89 -35.5z" />
    <glyph glyph-name="Ohungarumlaut.small" horiz-adv-x="708" 
d="M387 634l35 127h124l-68 -127h-91zM230 634l35 127h124l-68 -127h-91zM353 -10q-140 0 -224 83.5t-84 211.5q0 130 82.5 212.5t225.5 82.5q144 0 227.5 -82.5t83.5 -212.5q0 -127 -85 -211t-226 -84zM354 142q51 0 90.5 35.5t38.5 107.5q0 71 -39 107t-90 36t-89.5 -36
t-38.5 -107q0 -72 39 -107.5t89 -35.5z" />
    <glyph glyph-name="Oslash.small" horiz-adv-x="708" 
d="M353 -10q-101 0 -176 46l-52 -54l-64 56l51 54q-67 79 -67 193q0 130 82.5 212.5t225.5 82.5q105 0 179 -45l51 53l64 -56l-50 -52q67 -79 67 -195q0 -127 -85 -211t-226 -84zM236 223l180 190q-29 15 -62 15q-51 0 -89.5 -36t-38.5 -107q0 -34 10 -62zM354 142
q51 0 90.5 35.5t38.5 107.5q0 35 -11 63l-180 -190q29 -16 62 -16z" />
    <glyph glyph-name="Oslashacute.small" horiz-adv-x="708" 
d="M287 616l64 127h182l-105 -127h-141zM353 -10q-101 0 -176 46l-52 -54l-64 56l51 54q-67 79 -67 193q0 130 82.5 212.5t225.5 82.5q105 0 179 -45l51 53l64 -56l-50 -52q67 -79 67 -195q0 -127 -85 -211t-226 -84zM236 223l180 190q-29 15 -62 15q-51 0 -89.5 -36
t-38.5 -107q0 -34 10 -62zM354 142q51 0 90.5 35.5t38.5 107.5q0 35 -11 63l-180 -190q29 -16 62 -16z" />
    <glyph glyph-name="OE.small" horiz-adv-x="915" 
d="M325 0q-132 0 -206 81t-74 204q0 124 73 204.5t207 80.5h531v-152h-277v-57h260v-152h-260v-57h277v-152h-531zM327 152h72v266h-72q-44 0 -72.5 -31.5t-28.5 -101.5q0 -133 101 -133z" />
    <glyph glyph-name="Racute.small" horiz-adv-x="601" 
d="M224 634l64 127h182l-105 -127h-141zM63 0v570h218q121 0 180 -44.5t59 -124.5q0 -85 -92 -142l143 -259h-202l-105 207h-20v-207h-181zM244 351h52q44 0 44 34q0 33 -44 33h-52v-67z" />
    <glyph glyph-name="Rcaron.small" horiz-adv-x="601" 
d="M214 634l-109 127h149l42 -59l42 59h149l-106 -127h-167zM63 0v570h218q121 0 180 -44.5t59 -124.5q0 -85 -92 -142l143 -259h-202l-105 207h-20v-207h-181zM244 351h52q44 0 44 34q0 33 -44 33h-52v-67z" />
    <glyph glyph-name="Rcommaaccent.small" horiz-adv-x="601" 
d="M63 0v570h218q121 0 180 -44.5t59 -124.5q0 -85 -92 -142l143 -259h-202l-105 207h-20v-207h-181zM244 351h52q44 0 44 34q0 33 -44 33h-52v-67zM194 -230l24 157h165l-70 -157h-119z" />
    <glyph glyph-name="Sacute.small" horiz-adv-x="513" 
d="M192 634l64 127h182l-105 -127h-141zM268 -10q-182 0 -238 164l139 61q14 -36 42 -58t61 -22q50 0 50 30q0 13 -10.5 22.5t-43.5 24.5l-91 43q-105 50 -105 160q0 74 57 119.5t151 45.5q134 0 185 -95l-127 -76q-20 31 -58 31q-26 0 -26 -17q0 -14 22 -26l92 -47
q67 -35 98.5 -75.5t31.5 -105.5q0 -72 -64 -125.5t-166 -53.5z" />
    <glyph glyph-name="Scircumflex.small" horiz-adv-x="513" 
d="M73 634l109 127h167l106 -127h-149l-42 59l-42 -59h-149zM268 -10q-182 0 -238 164l139 61q14 -36 42 -58t61 -22q50 0 50 30q0 13 -10.5 22.5t-43.5 24.5l-91 43q-105 50 -105 160q0 74 57 119.5t151 45.5q134 0 185 -95l-127 -76q-20 31 -58 31q-26 0 -26 -17
q0 -14 22 -26l92 -47q67 -35 98.5 -75.5t31.5 -105.5q0 -72 -64 -125.5t-166 -53.5z" />
    <glyph glyph-name="Scaron.small" horiz-adv-x="513" 
d="M182 634l-109 127h149l42 -59l42 59h149l-106 -127h-167zM268 -10q-182 0 -238 164l139 61q14 -36 42 -58t61 -22q50 0 50 30q0 13 -10.5 22.5t-43.5 24.5l-91 43q-105 50 -105 160q0 74 57 119.5t151 45.5q134 0 185 -95l-127 -76q-20 31 -58 31q-26 0 -26 -17
q0 -14 22 -26l92 -47q67 -35 98.5 -75.5t31.5 -105.5q0 -72 -64 -125.5t-166 -53.5z" />
    <glyph glyph-name="Scedilla.small" horiz-adv-x="513" 
d="M213 -117l-59 49l54 63q-131 24 -178 159l139 61q14 -36 42 -58t61 -22q50 0 50 30q0 13 -10.5 22.5t-43.5 24.5l-91 43q-105 50 -105 160q0 74 57 119.5t151 45.5q134 0 185 -95l-127 -76q-20 31 -58 31q-26 0 -26 -17q0 -14 22 -26l92 -47q67 -35 98.5 -75.5
t31.5 -105.5t-54 -116.5t-143 -60.5l-25 -30q42 0 71.5 -26.5t29.5 -66.5q0 -45 -34 -77t-99 -32q-66 0 -119 40l48 75q35 -30 66 -30q14 0 24 6.5t10 17.5t-8.5 17.5t-21.5 6.5q-18 0 -30 -10z" />
    <glyph glyph-name="Scommaaccent.small" horiz-adv-x="513" 
d="M268 -10q-182 0 -238 164l139 61q14 -36 42 -58t61 -22q50 0 50 30q0 13 -10.5 22.5t-43.5 24.5l-91 43q-105 50 -105 160q0 74 57 119.5t151 45.5q134 0 185 -95l-127 -76q-20 31 -58 31q-26 0 -26 -17q0 -14 22 -26l92 -47q67 -35 98.5 -75.5t31.5 -105.5
q0 -72 -64 -125.5t-166 -53.5zM162 -230l24 157h165l-70 -157h-119z" />
    <glyph glyph-name="Tcaron.small" horiz-adv-x="509" 
d="M175 634l-109 127h149l42 -59l42 59h149l-106 -127h-167zM166 0v418h-143v152h464v-152h-140v-418h-181z" />
    <glyph glyph-name="Tcommaaccent.small" horiz-adv-x="509" 
d="M166 0v418h-143v152h464v-152h-140v-418h-181zM155 -230l24 157h165l-70 -157h-119z" />
    <glyph glyph-name="Tbar.small" horiz-adv-x="509" 
d="M166 0v166h-98v137h98v115h-143v152h464v-152h-140v-115h95v-137h-95v-166h-181z" />
    <glyph glyph-name="Ugrave.small" horiz-adv-x="645" 
d="M396 634h-141l-105 127h182zM323 -10q-123 0 -195.5 67t-72.5 181v332h181v-325q0 -103 87 -103t87 103v325h180v-332q0 -114 -72.5 -181t-194.5 -67z" />
    <glyph glyph-name="Uacute.small" horiz-adv-x="645" 
d="M251 634l64 127h182l-105 -127h-141zM323 -10q-123 0 -195.5 67t-72.5 181v332h181v-325q0 -103 87 -103t87 103v325h180v-332q0 -114 -72.5 -181t-194.5 -67z" />
    <glyph glyph-name="Ucircumflex.small" horiz-adv-x="645" 
d="M132 634l109 127h167l106 -127h-149l-42 59l-42 -59h-149zM323 -10q-123 0 -195.5 67t-72.5 181v332h181v-325q0 -103 87 -103t87 103v325h180v-332q0 -114 -72.5 -181t-194.5 -67z" />
    <glyph glyph-name="Utilde.small" horiz-adv-x="645" 
d="M244 621h-104q-11 70 19 111t91 41q32 0 75 -24t56 -24q32 0 20 48h104q14 -69 -17 -110.5t-93 -41.5q-35 0 -77.5 24t-53.5 24q-32 0 -20 -48zM323 -10q-123 0 -195.5 67t-72.5 181v332h181v-325q0 -103 87 -103t87 103v325h180v-332q0 -114 -72.5 -181t-194.5 -67z" />
    <glyph glyph-name="Udieresis.small" horiz-adv-x="645" 
d="M171 638v117h123v-117h-123zM352 638v117h123v-117h-123zM323 -10q-123 0 -195.5 67t-72.5 181v332h181v-325q0 -103 87 -103t87 103v325h180v-332q0 -114 -72.5 -181t-194.5 -67z" />
    <glyph glyph-name="Umacron.small" horiz-adv-x="645" 
d="M168 644v112h310v-112h-310zM323 -10q-123 0 -195.5 67t-72.5 181v332h181v-325q0 -103 87 -103t87 103v325h180v-332q0 -114 -72.5 -181t-194.5 -67z" />
    <glyph glyph-name="Ubreve.small" horiz-adv-x="645" 
d="M323 726q18 0 28 11t10 29h107q0 -64 -39.5 -100.5t-105.5 -36.5t-105.5 36.5t-39.5 100.5h107q0 -18 10 -29t28 -11zM323 -10q-123 0 -195.5 67t-72.5 181v332h181v-325q0 -103 87 -103t87 103v325h180v-332q0 -114 -72.5 -181t-194.5 -67z" />
    <glyph glyph-name="Uring.small" horiz-adv-x="645" 
d="M212 715q0 44 32 76.5t79 32.5t79 -32.5t32 -76.5t-32.5 -76.5t-78.5 -32.5q-47 0 -79 32.5t-32 76.5zM323 741q-11 0 -18.5 -7.5t-7.5 -18.5q0 -10 7.5 -17.5t18.5 -7.5t18 7t7 18t-7.5 18.5t-17.5 7.5zM323 -10q-123 0 -195.5 67t-72.5 181v332h181v-325
q0 -103 87 -103t87 103v325h180v-332q0 -114 -72.5 -181t-194.5 -67z" />
    <glyph glyph-name="Uhungarumlaut.small" horiz-adv-x="645" 
d="M356 634l35 127h124l-68 -127h-91zM199 634l35 127h124l-68 -127h-91zM323 -10q-123 0 -195.5 67t-72.5 181v332h181v-325q0 -103 87 -103t87 103v325h180v-332q0 -114 -72.5 -181t-194.5 -67z" />
    <glyph glyph-name="Uogonek.small" horiz-adv-x="645" 
d="M349 -193q-45 0 -74 24t-29 67q0 60 50 93q-111 8 -176 73.5t-65 173.5v332h181v-325q0 -103 87 -103t87 103v325h180v-332q0 -92 -48 -154t-133 -84q-58 -31 -58 -64q0 -23 22 -23q19 0 40 19l40 -77q-41 -48 -104 -48z" />
    <glyph glyph-name="Wgrave.small" horiz-adv-x="811" 
d="M484 634h-141l-105 127h182zM211 0l-197 570h171l117 -340l35 82l-102 258h160l25 -74l27 74h140l-100 -238l40 -102l116 340h154l-198 -570h-138l-55 149l-58 -149h-137z" />
    <glyph glyph-name="Wacute.small" horiz-adv-x="811" 
d="M339 634l64 127h182l-105 -127h-141zM211 0l-197 570h171l117 -340l35 82l-102 258h160l25 -74l27 74h140l-100 -238l40 -102l116 340h154l-198 -570h-138l-55 149l-58 -149h-137z" />
    <glyph glyph-name="Wcircumflex.small" horiz-adv-x="811" 
d="M220 634l109 127h167l106 -127h-149l-42 59l-42 -59h-149zM211 0l-197 570h171l117 -340l35 82l-102 258h160l25 -74l27 74h140l-100 -238l40 -102l116 340h154l-198 -570h-138l-55 149l-58 -149h-137z" />
    <glyph glyph-name="Wdieresis.small" horiz-adv-x="811" 
d="M259 638v117h123v-117h-123zM440 638v117h123v-117h-123zM211 0l-197 570h171l117 -340l35 82l-102 258h160l25 -74l27 74h140l-100 -238l40 -102l116 340h154l-198 -570h-138l-55 149l-58 -149h-137z" />
    <glyph glyph-name="Wgrave.smallalt" horiz-adv-x="811" 
d="M484 634h-141l-105 127h182zM528 0l-120 341l-120 -341h-137l-135 570h171l61 -290l92 290h135l102 -289l58 289h162l-135 -570h-134z" />
    <glyph glyph-name="Wacute.smallalt" horiz-adv-x="811" 
d="M339 634l64 127h182l-105 -127h-141zM528 0l-120 341l-120 -341h-137l-135 570h171l61 -290l92 290h135l102 -289l58 289h162l-135 -570h-134z" />
    <glyph glyph-name="Wcircumflex.smallalt" horiz-adv-x="811" 
d="M220 634l109 127h167l106 -127h-149l-42 59l-42 -59h-149zM528 0l-120 341l-120 -341h-137l-135 570h171l61 -290l92 290h135l102 -289l58 289h162l-135 -570h-134z" />
    <glyph glyph-name="Wdieresis.smallalt" horiz-adv-x="811" 
d="M259 638v117h123v-117h-123zM440 638v117h123v-117h-123zM528 0l-120 341l-120 -341h-137l-135 570h171l61 -290l92 290h135l102 -289l58 289h162l-135 -570h-134z" />
    <glyph glyph-name="Ygrave.small" horiz-adv-x="556" 
d="M351 634h-141l-105 127h182zM187 0v214l-170 356h184l77 -186l77 186h185l-172 -356v-214h-181z" />
    <glyph glyph-name="Yacute.small" horiz-adv-x="556" 
d="M206 634l64 127h182l-105 -127h-141zM187 0v214l-170 356h184l77 -186l77 186h185l-172 -356v-214h-181z" />
    <glyph glyph-name="Ycircumflex.small" horiz-adv-x="556" 
d="M87 634l109 127h167l106 -127h-149l-42 59l-42 -59h-149zM187 0v214l-170 356h184l77 -186l77 186h185l-172 -356v-214h-181z" />
    <glyph glyph-name="Ydieresis.small" horiz-adv-x="556" 
d="M126 638v117h123v-117h-123zM307 638v117h123v-117h-123zM187 0v214l-170 356h184l77 -186l77 186h185l-172 -356v-214h-181z" />
    <glyph glyph-name="Zacute.small" horiz-adv-x="551" 
d="M203 634l64 127h182l-105 -127h-141zM50 0v144l226 274h-209v152h426v-144l-227 -274h235v-152h-451z" />
    <glyph glyph-name="Zcaron.small" horiz-adv-x="551" 
d="M193 634l-109 127h149l42 -59l42 59h149l-106 -127h-167zM50 0v144l226 274h-209v152h426v-144l-227 -274h235v-152h-451z" />
    <glyph glyph-name="Zdotaccent.small" horiz-adv-x="551" 
d="M201 627v146h149v-146h-149zM50 0v144l226 274h-209v152h426v-144l-227 -274h235v-152h-451z" />
    <glyph glyph-name="Schwa.small" horiz-adv-x="691" 
d="M646 285q0 -126 -84.5 -210.5t-218.5 -84.5q-139 0 -219.5 89.5t-80.5 207.5q0 45 10 84h395q-35 56 -114 56q-33 0 -72.5 -12.5t-63.5 -30.5l-106 113q96 83 241 83q144 0 228.5 -83t84.5 -212zM230 219q25 -77 114 -77q90 0 114 77h-228z" />
    <glyph glyph-name="Eng.small" horiz-adv-x="647" 
d="M63 0v570h190l155 -213v213h176v-554q0 -83 -59 -136t-153 -53q-53 0 -88 6l28 150q21 -3 34 -3q30 0 46 15.5t16 41.5v13l-169 224v-274h-176z" />
    <glyph glyph-name="Eth.small" horiz-adv-x="642" 
d="M63 0v211h-56v148h56v211h244q135 0 212.5 -81t77.5 -204q0 -121 -78.5 -203t-211.5 -82h-244zM244 152h60q47 0 80 31.5t33 101.5q0 69 -33.5 101t-79.5 32h-60v-59h88v-148h-88v-59z" />
    <glyph glyph-name="Thorn.small" horiz-adv-x="578" 
d="M76 0v570h180v-99h51q114 0 168.5 -48t54.5 -129q0 -91 -63.5 -145.5t-170.5 -54.5h-40v-94h-180zM310 319h-54v-74h54q14 0 26.5 11.5t12.5 25.5t-12.5 25.5t-26.5 11.5z" />
    <glyph glyph-name="a.superior" horiz-adv-x="459" 
d="M188 342q-60 0 -104 46.5t-44 126.5q0 87 48.5 130t106.5 43q56 0 88 -28l10 20h115v-330h-107l-18 24q-1 -1 -8 -6t-13 -8.5t-17 -8t-25.5 -7t-31.5 -2.5zM224 449q26 0 44 17.5t18 48.5t-18 48.5t-44 17.5q-27 0 -44.5 -17t-17.5 -49t17.5 -49t44.5 -17z" />
    <glyph glyph-name="b.superior" horiz-adv-x="462" 
d="M265 342q-69 0 -99 40l-13 -32h-101v472h122v-170q36 36 98 36q26 0 50.5 -8.5t48 -26.5t38 -54t14.5 -84q0 -85 -48 -129t-110 -44zM238 451q27 0 45 16.5t18 47.5t-18.5 47.5t-45.5 16.5q-26 0 -44 -16.5t-18 -47.5t18 -47.5t45 -16.5z" />
    <glyph glyph-name="c.superior" horiz-adv-x="412" 
d="M220 342q-77 0 -128.5 46.5t-51.5 126.5q0 79 53 126t131 47q109 0 156 -98l-112 -48q-11 37 -48 37q-25 0 -41.5 -17.5t-16.5 -46.5q0 -28 18.5 -46t43.5 -18q16 0 29.5 10.5t18.5 23.5l112 -46q-17 -43 -62.5 -70t-101.5 -27z" />
    <glyph glyph-name="d.superior" horiz-adv-x="462" 
d="M297 391q-14 -20 -42.5 -34.5t-63.5 -14.5q-61 0 -106 44t-45 129q0 48 15.5 84t40 54t50 26.5t52.5 8.5q63 0 91 -32v166h122v-472h-101zM225 579q-27 0 -45 -16.5t-18 -47.5t18 -47.5t45 -16.5t45 16.5t18 47.5t-18 47.5t-45 16.5z" />
    <glyph glyph-name="e.superior" horiz-adv-x="425" 
d="M214 342q-76 0 -125 47t-49 126q0 81 47.5 127t126.5 46q87 0 131 -48.5t44 -109.5q0 -22 -6 -45h-220q12 -36 56 -36q37 0 56 24l100 -54q-46 -77 -161 -77zM165 564h99q-4 13 -18 23.5t-33 10.5t-32 -10.5t-16 -23.5z" />
    <glyph glyph-name="f.superior" horiz-adv-x="304" 
d="M69 350v241h-43v89h43v21q0 55 38.5 87t99.5 32q33 0 64 -8v-103q-14 6 -33 6q-20 0 -33.5 -9.5t-13.5 -23.5v-2h72v-89h-72v-241h-122z" />
    <glyph glyph-name="g.superior" horiz-adv-x="415" 
d="M386 366q0 -71 -50.5 -113t-128.5 -42t-127.5 42t-49.5 113q0 59 56 107q-28 40 -28 74q0 65 41.5 103t107.5 38h180v-98l-38 -8q9 -27 9 -45q0 -28 -29 -64q25 -14 41 -44t16 -63zM207 500q32 0 32 48q0 47 -32 47q-31 0 -31 -47q0 -48 31 -48zM207 316q23 0 39.5 12.5
t16.5 36.5t-16.5 36.5t-39.5 12.5t-38.5 -12t-15.5 -37q0 -24 16 -36.5t38 -12.5z" />
    <glyph glyph-name="h.superior" horiz-adv-x="424" 
d="M52 350v472h122v-158q32 24 98 24q44 0 75 -29t31 -88v-221h-122v195q0 14 -11 22.5t-29 8.5q-17 0 -29.5 -10t-12.5 -29v-187h-122z" />
    <glyph glyph-name="j.superior" horiz-adv-x="226" 
d="M53 708v117h121v-117h-121zM52 239v441h123v-419z" />
    <glyph glyph-name="k.superior" horiz-adv-x="427" 
d="M52 350v472h122v-228l80 86h144l-135 -149l141 -181h-153l-77 95v-95h-122z" />
    <glyph glyph-name="l.superior" horiz-adv-x="225" 
d="M52 350v472h122v-472h-122z" />
    <glyph glyph-name="m.superior" horiz-adv-x="618" 
d="M52 350v330h101l13 -38q35 46 98 46q55 0 88 -46q32 46 106 46q46 0 80 -29t34 -88v-221h-122v190q0 36 -34 36q-43 0 -43 -35v-191h-122v190q0 36 -35 36q-17 0 -29.5 -10t-12.5 -29v-187h-122z" />
    <glyph glyph-name="o.superior" horiz-adv-x="444" 
d="M223 343q-78 0 -130.5 47t-52.5 126t52.5 126t130.5 47q77 0 129.5 -47t52.5 -126t-52.5 -126t-129.5 -47zM223 452q25 0 42.5 18t17.5 46t-17.5 46t-42.5 18t-43 -18t-18 -46t18 -46t43 -18z" />
    <glyph glyph-name="p.superior" horiz-adv-x="462" 
d="M52 218v462h101l13 -41q13 19 41 34t64 15q62 0 107 -44t45 -129q0 -48 -15.5 -84t-40 -54t-50 -26.5t-52.5 -8.5q-63 0 -91 32v-156h-122zM238 451q27 0 45 16.5t18 47.5t-18 47.5t-46 16.5q-26 0 -44 -16.5t-18 -47.5t18 -47.5t45 -16.5z" />
    <glyph glyph-name="q.superior" horiz-adv-x="462" 
d="M289 218v160q-36 -36 -98 -36q-26 0 -50.5 8.5t-48 26.5t-38 54t-14.5 84q0 85 48 129t110 44q69 0 99 -40l13 32h101v-462h-122zM226 451q26 0 44 16.5t18 47.5t-18 47.5t-45 16.5t-45 -16.5t-18 -47.5t18.5 -47.5t45.5 -16.5z" />
    <glyph glyph-name="r.superior" horiz-adv-x="334" 
d="M52 350v330h101l9 -43q23 51 93 51q31 0 49 -10l-23 -129q-21 16 -51 16q-23 0 -39.5 -14.5t-16.5 -45.5v-155h-122z" />
    <glyph glyph-name="s.superior" horiz-adv-x="338" 
d="M168 342q-113 0 -141 87l90 43q21 -37 55 -37q25 0 25 11q0 12 -33 22l-39 14q-79 28 -79 106q0 45 35 72.5t89 27.5q89 0 118 -62l-84 -43q-12 21 -30 21q-16 0 -16 -9q0 -8 14 -12l44 -17q44 -16 67.5 -42.5t23.5 -73.5q0 -48 -37 -78t-102 -30z" />
    <glyph glyph-name="t.superior" horiz-adv-x="294" 
d="M79 350v241h-52v89h52v85l122 24v-109h65v-89h-65v-241h-122z" />
    <glyph glyph-name="u.superior" horiz-adv-x="426" 
d="M155 342q-45 0 -75.5 28.5t-30.5 87.5v222h122v-194q0 -14 11.5 -23t28.5 -9t29.5 10.5t12.5 31.5v184h122v-330h-101l-14 38q-14 -18 -42 -32t-63 -14z" />
    <glyph glyph-name="v.superior" horiz-adv-x="396" 
d="M133 350l-119 330h123l61 -196l61 196h124l-119 -330h-131z" />
    <glyph glyph-name="w.superior" horiz-adv-x="568" 
d="M122 350l-109 330h123l50 -196l45 122l-25 74h123l55 -196l48 196h124l-109 -330h-126l-37 96l-36 -96h-126z" />
    <glyph glyph-name="x.superior" horiz-adv-x="391" 
d="M14 350l115 172l-106 158h135l38 -68l38 68h135l-105 -158l115 -172h-136l-47 81l-47 -81h-135z" />
    <glyph glyph-name="y.superior" horiz-adv-x="402" 
d="M214 218h-124l59 158l-135 304h132l61 -174l55 174h127z" />
    <glyph glyph-name="z.superior" horiz-adv-x="347" 
d="M36 350v101l124 122h-116v107h265v-101l-125 -122h130v-107h-278z" />
    <glyph glyph-name="grave.cap" horiz-adv-x="512" 
d="M379 763h-141l-105 127h182z" />
    <glyph glyph-name="acute.cap" horiz-adv-x="512" 
d="M133 763l64 127h182l-105 -127h-141z" />
    <glyph glyph-name="circumflex.cap" horiz-adv-x="512" 
d="M65 763l109 127h167l106 -127h-149l-42 59l-42 -59h-149z" />
    <glyph glyph-name="caron.cap" horiz-adv-x="512" 
d="M174 763l-109 127h149l42 -59l42 59h149l-106 -127h-167z" />
    <glyph glyph-name="caronSlovak" horiz-adv-x="512" 
d="M170 523l35 177h138l-57 -177h-116z" />
    <glyph glyph-name="tilde.cap" horiz-adv-x="512" 
d="M177 750h-104q-11 70 19 111t91 41q32 0 74.5 -24t56.5 -24q32 0 20 48h104q14 -69 -17 -110.5t-93 -41.5q-35 0 -77.5 24t-53.5 24q-32 0 -20 -48z" />
    <glyph glyph-name="dieresis.cap" horiz-adv-x="512" 
d="M104 768v117h123v-117h-123zM285 768v117h123v-117h-123z" />
    <glyph glyph-name="macron.cap" horiz-adv-x="512" 
d="M101 773v112h310v-112h-310z" />
    <glyph glyph-name="breve.cap" horiz-adv-x="512" 
d="M256 855q18 0 28 11t10 29h107q0 -64 -39.5 -100.5t-105.5 -36.5t-105.5 36.5t-39.5 100.5h107q0 -18 10 -29t28 -11z" />
    <glyph glyph-name="ring.cap" horiz-adv-x="512" 
d="M145 844q0 44 32 76.5t79 32.5t79 -32.5t32 -76.5t-32.5 -76.5t-78.5 -32.5q-47 0 -79 32.5t-32 76.5zM256 870q-10 0 -18 -8t-8 -18t7.5 -17.5t18.5 -7.5q10 0 17.5 7.5t7.5 17.5q0 11 -7.5 18.5t-17.5 7.5z" />
    <glyph glyph-name="hungarumlaut.cap" horiz-adv-x="512" 
d="M255 763l35 127h124l-68 -127h-91zM98 763l35 127h124l-68 -127h-91z" />
    <glyph glyph-name="dotaccent.cap" horiz-adv-x="512" 
d="M181 756v146h149v-146h-149z" />
    <glyph glyph-name="commaaccent.alt" horiz-adv-x="512" 
d="M154 560l70 157h119l-24 -157h-165z" />
    <glyph glyph-name="hyphen.cap" horiz-adv-x="450" 
d="M60 249v150h330v-150h-330z" />
    <glyph glyph-name="exclamdown.cap" horiz-adv-x="303" 
d="M241 700v-154h-179v154h179zM233 480v-480h-163v480h163z" />
    <glyph glyph-name="questiondown.cap" horiz-adv-x="538" 
d="M175 546v154h179v-154h-179zM346 480v-191l-83 -14q-67 -11 -67 -60q0 -26 21 -44t52 -18q29 0 50 17.5t29 47.5l160 -45q-21 -85 -86.5 -135t-153.5 -50q-109 0 -178.5 60t-69.5 157q0 75 42.5 128.5t120.5 75.5v71h163z" />
    <glyph glyph-name="guilsinglleft.cap" horiz-adv-x="315" 
d="M119 140l-99 190l99 190h176l-100 -187l100 -193h-176z" />
    <glyph glyph-name="guilsinglright.cap" horiz-adv-x="315" 
d="M20 140l100 187l-100 193h176l99 -190l-99 -190h-176z" />
    <glyph glyph-name="guillemotleft.cap" horiz-adv-x="560" 
d="M364 140l-99 190l99 190h176l-100 -187l100 -193h-176zM119 140l-99 190l99 190h176l-100 -187l100 -193h-176z" />
    <glyph glyph-name="guillemotright.cap" horiz-adv-x="560" 
d="M20 140l100 187l-100 193h176l99 -190l-99 -190h-176zM265 140l100 187l-100 193h176l99 -190l-99 -190h-176z" />
    <glyph glyph-name="endash.cap" horiz-adv-x="630" 
d="M60 245v158h510v-158h-510z" />
    <glyph glyph-name="emdash.cap" horiz-adv-x="918" 
d="M60 245v158h798v-158h-798z" />
    <glyph glyph-name="periodcentered.cap" horiz-adv-x="303" 
d="M60 271v179h183v-179h-183z" />
    <glyph glyph-name="parenleft.cap" horiz-adv-x="380" 
d="M239 -165q-95 104 -147 239.5t-52 265.5q0 131 52 266t149 239l139 -95q-163 -188 -163 -410q0 -218 162 -410z" />
    <glyph glyph-name="parenright.cap" horiz-adv-x="380" 
d="M139 -165l-139 95q163 188 163 410q0 218 -162 410l140 95q95 -104 147 -239.5t52 -265.5q0 -131 -52 -266t-149 -239z" />
    <glyph glyph-name="parenleft.small" horiz-adv-x="356" 
d="M217 -133q-82 85 -127 192.5t-45 218.5q0 112 45.5 220t129.5 191l111 -74q-145 -164 -145 -337q0 -164 145 -336z" />
    <glyph glyph-name="parenright.small" horiz-adv-x="356" 
d="M136 -133l-111 74q145 164 145 337q0 164 -145 336l114 75q82 -85 127 -192.5t45 -218.5q0 -112 -45.5 -220t-129.5 -191z" />
    <glyph glyph-name="bracketleft.cap" horiz-adv-x="387" 
d="M65 -150v998h302v-140h-132v-718h132v-140h-302z" />
    <glyph glyph-name="bracketright.cap" horiz-adv-x="387" 
d="M20 -150v140h132v718h-132v140h302v-998h-302z" />
    <glyph glyph-name="bracketleft.small" horiz-adv-x="360" 
d="M63 -121v812h262v-121h-122v-570h122v-121h-262z" />
    <glyph glyph-name="bracketright.small" horiz-adv-x="360" 
d="M35 -121v121h120v570h-120v121h260v-812h-260z" />
    <glyph glyph-name="braceleft.cap" horiz-adv-x="445" 
d="M395 -150q-254 0 -254 194v170q0 35 -20 50t-60 15h-31v166h31q40 0 60 15t20 50v144q0 194 254 194h30v-148h-30q-42 0 -64 -23.5t-22 -62.5v-133q0 -50 -23 -80t-61 -39q37 -9 60.5 -39t23.5 -79v-160q0 -39 22 -62.5t64 -23.5h30v-148h-30z" />
    <glyph glyph-name="braceright.cap" horiz-adv-x="445" 
d="M20 -150v148h30q42 0 64 23.5t22 62.5v160q0 49 23.5 79t60.5 39q-38 9 -61 39t-23 80v133q0 39 -22 62.5t-64 23.5h-30v148h30q254 0 254 -194v-144q0 -35 20 -50t60 -15h31v-166h-31q-40 0 -60 -15t-20 -50v-170q0 -194 -254 -194h-30z" />
    <glyph glyph-name="braceleft.small" horiz-adv-x="420" 
d="M337 -121q-100 0 -150.5 42t-50.5 120v130q0 53 -68 53h-28v144h28q68 0 68 53v108q0 78 50 120t151 42h48v-121h-45q-34 0 -53 -20t-19 -50v-103q0 -42 -20 -68t-51 -33q31 -7 51 -33t20 -67v-126q0 -30 19 -50t53 -20h45v-121h-48z" />
    <glyph glyph-name="braceright.small" horiz-adv-x="420" 
d="M83 -121h-48v121h45q34 0 53 20t19 50v126q0 41 20 67t51 33q-31 7 -51 33t-20 68v103q0 30 -19 50t-53 20h-45v121h48q101 0 151 -42t50 -120v-108q0 -53 68 -53h28v-144h-28q-68 0 -68 -53v-130q0 -78 -50.5 -120t-150.5 -42z" />
    <glyph glyph-name="at.small" horiz-adv-x="791" 
d="M403 -42q-162 0 -260 90.5t-98 231.5q0 60 22 117t64 106.5t114 79.5t162 30q145 0 242 -82t97 -210q0 -91 -45.5 -148t-110.5 -57q-31 0 -56.5 15t-37.5 39q-48 -54 -117 -54q-76 0 -127.5 46.5t-51.5 122.5q0 83 49.5 126t130.5 43q55 0 93 -38l10 30h88v-164
q0 -24 8.5 -38.5t22.5 -14.5q15 0 26.5 25.5t11.5 67.5q0 81 -67 139.5t-165 58.5q-105 0 -180 -70.5t-76 -165.5q0 -97 71 -164.5t180 -67.5q34 0 66 6.5t48.5 12.5t49.5 20l48 -78q-97 -55 -212 -55zM387 229q25 0 41.5 16.5t16.5 39.5q0 22 -16.5 39t-41.5 17t-42.5 -17
t-17.5 -39q0 -23 17.5 -39.5t42.5 -16.5z" />
    <glyph glyph-name="zero.slash" 
d="M300 -12q-135 0 -210 95.5t-75 266.5t75 266.5t210 95.5t210 -95.5t75 -266.5t-75 -266.5t-210 -95.5zM200 350v-12l174 165q-25 47 -74 47q-100 0 -100 -200zM400 350v12l-174 -165q25 -47 74 -47q100 0 100 200z" />
    <glyph glyph-name="numbersign.LP" 
d="M0 170v150h105l13 60h-78v150h108l35 170h159l-35 -170h59l35 170h159l-35 -170h75v-150h-105l-13 -60h78v-150h-108l-35 -170h-159l35 170h-59l-35 -170h-159l35 170h-75zM264 320h59l13 60h-59z" />
    <glyph glyph-name="Euro.LP" horiz-adv-x="675" 
d="M103 350v18h-68v115h82q27 117 99 173t174 56q88 0 152 -44t96 -124l-170 -56q-24 72 -78 72q-63 0 -87 -77h142v-115h-158v-18v-18h158v-115h-142q24 -77 87 -77q54 0 78 72l170 -56q-32 -80 -96 -124t-152 -44q-102 0 -174 56t-99 173h-82v115h68v18z" />
    <glyph glyph-name="dollar.LP" horiz-adv-x="565" 
d="M209 -110v107q-136 33 -189 183l153 65q15 -46 48.5 -72t74.5 -26q70 0 70 53q0 22 -15 38.5t-56 36.5l-103 51q-123 62 -123 200q0 63 37 108t103 65v111h176v-108q90 -26 121 -110l-147 -76q-19 42 -57 42q-40 0 -40 -32q0 -26 38 -46l105 -55q79 -41 114.5 -92.5
t35.5 -129.5q0 -68 -45.5 -124t-124.5 -79v-110h-176z" />
    <glyph glyph-name="cent.LP" horiz-adv-x="579" 
d="M219 -100v101q-81 25 -130 90.5t-49 158.5q0 91 49 156.5t130 91.5v102h166v-97q114 -29 164 -138l-161 -66q-19 61 -79 61q-41 0 -67 -30.5t-26 -79.5q0 -48 28.5 -79t69.5 -31q28 0 49.5 17t29.5 40l162 -64q-20 -48 -65.5 -84t-104.5 -52v-97h-166z" />
    <glyph glyph-name="sterling.LP" horiz-adv-x="605" 
d="M55 405h65v95q0 92 62 152t173 60q64 0 120 -33.5t89 -77.5l-125 -111q-38 46 -74 46q-60 0 -60 -71v-60h160v-115h-160v-140h260v-150h-510v150h65v140h-65v115z" />
    <glyph glyph-name="florin.LP" horiz-adv-x="560" 
d="M0 -200l131 490h-71v115h102l33 125q24 91 94 136.5t159 45.5q47 0 92 -12v-165q-43 10 -72 10q-86 0 -110 -94l-12 -46h124v-115h-153l-123 -490h-194z" />
    <glyph glyph-name="yen.LP" horiz-adv-x="620" 
d="M213 0v217h-108v115h108v36h-108v115h69l-164 217h195l105 -155l105 155h195l-165 -217h70v-115h-109v-36h109v-115h-109v-217h-193z" />
    <glyph glyph-name="zero.slashLP" horiz-adv-x="660" 
d="M330 -12q-135 0 -210 95.5t-75 266.5t75 266.5t210 95.5t210 -95.5t75 -266.5t-75 -266.5t-210 -95.5zM230 350v-12l174 165q-25 47 -74 47q-100 0 -100 -200zM430 350v12l-174 -165q25 -47 74 -47q100 0 100 200z" />
    <glyph glyph-name="zero.LP" horiz-adv-x="660" 
d="M330 -12q-135 0 -210 95.5t-75 266.5t75 266.5t210 95.5t210 -95.5t75 -266.5t-75 -266.5t-210 -95.5zM330 150q100 0 100 200t-100 200t-100 -200t100 -200z" />
    <glyph glyph-name="one.LP" horiz-adv-x="390" 
d="M145 0v510l-120 -63v168l140 85h165v-700h-185z" />
    <glyph glyph-name="two.LP" horiz-adv-x="570" 
d="M30 0v152l203 193q4 4 17 16t17 16t14.5 14t14 14.5t11 13.5t10.5 14t6.5 12.5t5 14t1.5 13.5q0 28 -18.5 47t-46.5 19t-45.5 -23.5t-23.5 -55.5l-162 48q17 88 77 146t170 58q103 0 168.5 -61t65.5 -151q0 -68 -23.5 -116t-75.5 -100l-129 -130h243v-154h-500z" />
    <glyph glyph-name="three.LP" horiz-adv-x="577" 
d="M529 232q0 -110 -73.5 -177t-191.5 -67q-110 0 -173.5 49t-85.5 131l168 59q7 -30 30.5 -51.5t55.5 -21.5q39 0 62 22t23 56q0 27 -20.5 51t-59.5 29l-101 12v115l112 107h-225v154h444v-144l-134 -120q77 -19 123 -73.5t46 -130.5z" />
    <glyph glyph-name="four.LP" 
d="M303 0v118h-285v141l300 441h170v-433h95v-149h-95v-118h-185zM174 267h129v181z" />
    <glyph glyph-name="five.LP" horiz-adv-x="592" 
d="M295 -12q-106 0 -171.5 48t-83.5 128l161 54q23 -64 94 -64q35 0 60 23.5t25 59.5q0 37 -25 60t-60 23q-62 0 -88 -46l-153 26l44 400h409v-164h-269l-17 -97q42 35 117 35q103 0 165 -68t62 -175q0 -104 -77.5 -173.5t-192.5 -69.5z" />
    <glyph glyph-name="six.LP" horiz-adv-x="588" 
d="M295 -12q-105 0 -181 68.5t-76 175.5q0 80 45 155l185 313h212l-161 -229q7 1 21 1q90 0 151 -66t61 -166q0 -109 -73.5 -180.5t-183.5 -71.5zM295 144q32 0 52 27t20 66t-20 65.5t-52 26.5t-52 -26.5t-20 -65.5t20 -66t52 -27z" />
    <glyph glyph-name="seven.LP" horiz-adv-x="502" 
d="M30 0l261 546h-258v154h451v-144l-256 -556h-198z" />
    <glyph glyph-name="eight.LP" horiz-adv-x="577" 
d="M288 -12q-114 0 -186 65.5t-72 168.5q0 58 29 104t67 65q-22 14 -40 49.5t-18 71.5q0 90 63.5 145t156.5 55q96 0 158 -51t62 -146q0 -34 -16.5 -70t-41.5 -53q97 -56 97 -170q0 -98 -73 -166t-186 -68zM288 461q21 0 34 15t13 36t-13.5 36t-33.5 15q-21 0 -34 -15
t-13 -36t13 -36t34 -15zM288 142q33 0 53 23t20 57t-20 57t-53 23q-34 0 -54 -23t-20 -57t20 -57t54 -23z" />
    <glyph glyph-name="nine.LP" horiz-adv-x="588" 
d="M103 0l155 235h-14q-92 0 -150 66.5t-58 163.5q0 107 76 177t181 70t181 -70t76 -177q0 -79 -45 -152l-190 -313h-212zM293 371q32 0 52 26.5t20 65.5t-20 66t-52 27t-52 -27t-20 -66t20 -65.5t52 -26.5z" />
    <glyph glyph-name="numbersign.OT" 
d="M40 0l26 105h-66v150h104l15 60h-79v150h117l26 105h159l-26 -105h59l26 105h159l-26 -105h66v-150h-104l-15 -60h89v-150h-127l-26 -105h-159l26 105h-59l-26 -105h-159zM263 255h59l15 60h-59z" />
    <glyph glyph-name="Euro.OT" 
d="M0 180v92h58v13v13h-58v92h70q18 70 63.5 115t97.5 61t114 16q160 0 240 -113l-135 -95q-33 56 -105 56q-49 0 -78 -40h133v-92h-160v-13v-13h160v-92h-133q29 -40 78 -40q72 0 105 56l135 -95q-80 -113 -240 -113q-62 0 -114 16t-97.5 61t-63.5 115h-70z" />
    <glyph glyph-name="dollar.OT" 
d="M219 -110v110q-125 32 -169 154l139 61q17 -36 52 -58.5t74 -22.5q29 0 47 10t18 25q0 23 -61 46l-122 45q-105 39 -105 155q0 53 33.5 92.5t93.5 58.5v114h176v-107q89 -20 130 -88l-129 -78q-31 38 -76 38q-46 0 -46 -23q0 -16 22 -25l142 -53q117 -44 117 -166
q0 -61 -41.5 -110t-118.5 -68v-110h-176z" />
    <glyph glyph-name="cent.OT" 
d="M229 -100v101q-81 25 -130 90.5t-49 158.5q0 91 49 156.5t130 91.5v102h166v-97q114 -29 164 -138l-161 -66q-19 61 -79 61q-41 0 -67 -30.5t-26 -79.5q0 -48 28.5 -79t69.5 -31q28 0 49.5 17t29.5 40l162 -64q-20 -48 -65.5 -84t-104.5 -52v-97h-166z" />
    <glyph glyph-name="sterling.OT" 
d="M50 405h65v95q0 92 62 152t173 60q64 0 120 -33.5t89 -77.5l-125 -111q-38 46 -74 46q-60 0 -60 -71v-60h160v-115h-160v-140h260v-150h-510v150h65v140h-65v115z" />
    <glyph glyph-name="florin.OT" 
d="M30 -200l131 490h-71v115h102l33 125q24 91 94 136.5t159 45.5q47 0 92 -12v-165q-43 10 -72 10q-86 0 -110 -94l-12 -46h124v-115h-153l-123 -490h-194z" />
    <glyph glyph-name="yen.OT" 
d="M203 0v180h-103v92h103v26h-103v92h64l-159 180h195l100 -135l100 135h195l-152 -180h57v-92h-104v-26h104v-92h-104v-180h-193z" />
    <glyph glyph-name="zero.slashOT" 
d="M300 -12q-132 0 -208.5 79.5t-76.5 217.5t76.5 217.5t208.5 79.5t208.5 -79.5t76.5 -217.5t-76.5 -217.5t-208.5 -79.5zM200 270l156 131q-22 19 -56 19q-46 0 -73 -35.5t-27 -99.5v-15zM300 150q46 0 73 35t27 100v15l-157 -132q24 -18 57 -18z" />
    <glyph glyph-name="zero.OT" 
d="M300 -12q-132 0 -208.5 79.5t-76.5 217.5t76.5 217.5t208.5 79.5t208.5 -79.5t76.5 -217.5t-76.5 -217.5t-208.5 -79.5zM300 150q46 0 73 35t27 100q0 64 -27 99.5t-73 35.5t-73 -35.5t-27 -99.5q0 -65 27 -100t73 -35z" />
    <glyph glyph-name="one.OT" 
d="M90 0v150h120v230l-120 -60v168l140 82h165v-420h120v-150h-425z" />
    <glyph glyph-name="two.OT" 
d="M47 0v132l164 109q90 59 110 80q24 23 24 44q0 44 -55 44q-29 0 -51.5 -22.5t-28.5 -46.5l-162 48q17 83 78 138.5t172 55.5q103 0 168.5 -58t65.5 -144q0 -64 -29.5 -104.5t-96.5 -86.5l-52 -35h193v-154h-500z" />
    <glyph glyph-name="three.OT" 
d="M544 102q0 -110 -73.5 -177t-191.5 -67q-110 0 -173.5 49t-85.5 131l168 59q7 -30 30.5 -51.5t55.5 -21.5q39 0 62 22t23 56q0 27 -20.5 51t-59.5 29l-101 12v115l112 107h-225v154h444v-144l-134 -120q77 -19 123 -73.5t46 -130.5z" />
    <glyph glyph-name="four.OT" 
d="M295 -118v118h-285v141l300 441h170v-433h95v-149h-95v-118h-185zM166 149h129v181z" />
    <glyph glyph-name="five.OT" 
d="M295 -142q-106 0 -171.5 48t-83.5 128l161 54q23 -64 94 -64q35 0 60 23.5t25 59.5q0 37 -25 60t-60 23q-62 0 -88 -46l-153 26l44 400h409v-164h-269l-17 -97q42 35 117 35q103 0 165 -68t62 -175q0 -104 -77.5 -173.5t-192.5 -69.5z" />
    <glyph glyph-name="six.OT" 
d="M305 -12q-105 0 -181 68.5t-76 175.5q0 80 45 155l185 313h212l-161 -229q7 1 21 1q90 0 151 -66t61 -166q0 -109 -73.5 -180.5t-183.5 -71.5zM305 144q32 0 52 27t20 66t-20 65.5t-52 26.5t-52 -26.5t-20 -65.5t20 -66t52 -27z" />
    <glyph glyph-name="seven.OT" 
d="M74 -130l261 546h-258v154h451v-144l-256 -556h-198z" />
    <glyph glyph-name="eight.OT" 
d="M299 -12q-114 0 -186 65.5t-72 168.5q0 58 29 104t67 65q-22 14 -40 49.5t-18 71.5q0 90 63.5 145t156.5 55q96 0 158 -51t62 -146q0 -34 -16.5 -70t-41.5 -53q97 -56 97 -170q0 -98 -73 -166t-186 -68zM299 461q21 0 34 15t13 36t-13.5 36t-33.5 15q-21 0 -34 -15
t-13 -36t13 -36t34 -15zM299 142q33 0 53 23t20 57t-20 57t-53 23q-34 0 -54 -23t-20 -57t20 -57t54 -23z" />
    <glyph glyph-name="nine.OT" 
d="M110 -130l155 235h-14q-92 0 -150 66.5t-58 163.5q0 107 76 177t181 70t181 -70t76 -177q0 -79 -45 -152l-190 -313h-212zM300 241q32 0 52 26.5t20 65.5t-20 66t-52 27t-52 -27t-20 -66t20 -65.5t52 -26.5z" />
    <glyph glyph-name="numbersign.OP" 
d="M40 0l26 105h-66v150h104l15 60h-79v150h117l26 105h159l-26 -105h59l26 105h159l-26 -105h66v-150h-104l-15 -60h89v-150h-127l-26 -105h-159l26 105h-59l-26 -105h-159zM263 255h59l15 60h-59z" />
    <glyph glyph-name="Euro.OP" horiz-adv-x="675" 
d="M35 180v92h58v13v13h-58v92h70q18 70 63.5 115t97.5 61t114 16q160 0 240 -113l-135 -95q-33 56 -105 56q-49 0 -78 -40h133v-92h-160v-13v-13h160v-92h-133q29 -40 78 -40q72 0 105 56l135 -95q-80 -113 -240 -113q-62 0 -114 16t-97.5 61t-63.5 115h-70z" />
    <glyph glyph-name="dollar.OP" horiz-adv-x="535" 
d="M199 -110v110q-125 32 -169 154l139 61q17 -36 52 -58.5t74 -22.5q29 0 47 10t18 25q0 23 -61 46l-122 45q-105 39 -105 155q0 53 33.5 92.5t93.5 58.5v114h176v-107q89 -20 130 -88l-129 -78q-31 38 -76 38q-46 0 -46 -23q0 -16 22 -25l142 -53q117 -44 117 -166
q0 -61 -41.5 -110t-118.5 -68v-110h-176z" />
    <glyph glyph-name="cent.OP" horiz-adv-x="579" 
d="M219 -100v101q-81 25 -130 90.5t-49 158.5q0 91 49 156.5t130 91.5v102h166v-97q114 -29 164 -138l-161 -66q-19 61 -79 61q-41 0 -67 -30.5t-26 -79.5q0 -48 28.5 -79t69.5 -31q28 0 49.5 17t29.5 40l162 -64q-20 -48 -65.5 -84t-104.5 -52v-97h-166z" />
    <glyph glyph-name="sterling.OP" horiz-adv-x="605" 
d="M55 405h65v95q0 92 62 152t173 60q64 0 120 -33.5t89 -77.5l-125 -111q-38 46 -74 46q-60 0 -60 -71v-60h160v-115h-160v-140h260v-150h-510v150h65v140h-65v115z" />
    <glyph glyph-name="florin.OP" horiz-adv-x="560" 
d="M0 -200l131 490h-71v115h102l33 125q24 91 94 136.5t159 45.5q47 0 92 -12v-165q-43 10 -72 10q-86 0 -110 -94l-12 -46h124v-115h-153l-123 -490h-194z" />
    <glyph glyph-name="yen.OP" horiz-adv-x="610" 
d="M208 0v180h-103v92h103v26h-103v92h64l-159 180h195l100 -135l100 135h195l-152 -180h57v-92h-104v-26h104v-92h-104v-180h-193z" />
    <glyph glyph-name="zero.slashOP" horiz-adv-x="650" 
d="M325 -12q-132 0 -208.5 79.5t-76.5 217.5t76.5 217.5t208.5 79.5t208.5 -79.5t76.5 -217.5t-76.5 -217.5t-208.5 -79.5zM225 270l156 131q-22 19 -56 19q-46 0 -73 -35.5t-27 -99.5v-15zM325 150q46 0 73 35t27 100v15l-157 -132q24 -18 57 -18z" />
    <glyph glyph-name="zero.OP" horiz-adv-x="650" 
d="M325 -12q-132 0 -208.5 79.5t-76.5 217.5t76.5 217.5t208.5 79.5t208.5 -79.5t76.5 -217.5t-76.5 -217.5t-208.5 -79.5zM325 150q46 0 73 35t27 100q0 64 -27 99.5t-73 35.5t-73 -35.5t-27 -99.5q0 -65 27 -100t73 -35z" />
    <glyph glyph-name="one.OP" horiz-adv-x="390" 
d="M145 0v380l-120 -60v168l140 82h165v-570h-185z" />
    <glyph glyph-name="two.OP" horiz-adv-x="570" 
d="M30 0v132l164 109q90 59 110 80q24 23 24 44q0 44 -55 44q-29 0 -51.5 -22.5t-28.5 -46.5l-162 48q17 83 78 138.5t172 55.5q103 0 168.5 -58t65.5 -144q0 -64 -29.5 -104.5t-96.5 -86.5l-52 -35h193v-154h-500z" />
    <glyph glyph-name="three.OP" horiz-adv-x="577" 
d="M529 102q0 -110 -73.5 -177t-191.5 -67q-110 0 -173.5 49t-85.5 131l168 59q7 -30 30.5 -51.5t55.5 -21.5q39 0 62 22t23 56q0 27 -20.5 51t-59.5 29l-101 12v115l112 107h-225v154h444v-144l-134 -120q77 -19 123 -73.5t46 -130.5z" />
    <glyph glyph-name="four.OP" horiz-adv-x="590" 
d="M310 -118v118h-285v141l300 441h170v-433h95v-149h-95v-118h-185zM181 149h129v181z" />
    <glyph glyph-name="five.OP" 
d="M295 -142q-106 0 -171.5 48t-83.5 128l161 54q23 -64 94 -64q35 0 60 23.5t25 59.5q0 37 -25 60t-60 23q-62 0 -88 -46l-153 26l44 400h409v-164h-269l-17 -97q42 35 117 35q103 0 165 -68t62 -175q0 -104 -77.5 -173.5t-192.5 -69.5z" />
    <glyph glyph-name="six.OP" 
d="M305 -12q-105 0 -181 68.5t-76 175.5q0 80 45 155l185 313h212l-161 -229q7 1 21 1q90 0 151 -66t61 -166q0 -109 -73.5 -180.5t-183.5 -71.5zM305 144q32 0 52 27t20 66t-20 65.5t-52 26.5t-52 -26.5t-20 -65.5t20 -66t52 -27z" />
    <glyph glyph-name="seven.OP" horiz-adv-x="532" 
d="M43 -130l261 546h-258v154h451v-144l-256 -556h-198z" />
    <glyph glyph-name="eight.OP" horiz-adv-x="577" 
d="M288 -12q-114 0 -186 65.5t-72 168.5q0 58 29 104t67 65q-22 14 -40 49.5t-18 71.5q0 90 63.5 145t156.5 55q96 0 158 -51t62 -146q0 -34 -16.5 -70t-41.5 -53q97 -56 97 -170q0 -98 -73 -166t-186 -68zM288 461q21 0 34 15t13 36t-13.5 36t-33.5 15q-21 0 -34 -15
t-13 -36t13 -36t34 -15zM288 142q33 0 53 23t20 57t-20 57t-53 23q-34 0 -54 -23t-20 -57t20 -57t54 -23z" />
    <glyph glyph-name="nine.OP" horiz-adv-x="588" 
d="M103 -130l155 235h-14q-92 0 -150 66.5t-58 163.5q0 107 76 177t181 70t181 -70t76 -177q0 -79 -45 -152l-190 -313h-212zM293 241q32 0 52 26.5t20 65.5t-20 66t-52 27t-52 -27t-20 -66t20 -65.5t52 -26.5z" />
    <glyph glyph-name="multiplysuperior" horiz-adv-x="420" 
d="M141 415l-74 72l65 60l-68 63l79 77l70 -65l67 62l74 -72l-65 -60l67 -62l-79 -78l-69 65z" />
    <glyph glyph-name="dividesuperior" horiz-adv-x="420" 
d="M152 637v97h116v-97h-116zM62 500v100h296v-100h-296zM152 366v96h116v-96h-116z" />
    <glyph glyph-name="Eurosuperior" horiz-adv-x="471" 
d="M304 542v-69h-81q13 -35 47 -35q36 0 55 37l102 -37q-21 -45 -62 -70t-95 -25q-141 0 -173 130h-53v69h44v8v8h-44v69h53q32 130 173 130q54 0 95 -25t62 -70l-102 -37q-19 37 -55 37q-34 0 -47 -35h81v-69h-92v-8v-8h92z" />
    <glyph glyph-name="plusinferior" horiz-adv-x="420" 
d="M52 -20v100h96v89h104v-89h96v-100h-96v-90h-104v90h-96z" />
    <glyph glyph-name="minusinferior" horiz-adv-x="420" 
d="M52 -20v100h296v-100h-296z" />
    <glyph glyph-name="multiplyinferior" horiz-adv-x="420" 
d="M54 90l79 77l70 -65l67 62l74 -72l-65 -60l67 -62l-79 -78l-69 65l-67 -62l-74 72l65 60z" />
    <glyph glyph-name="divideinferior" horiz-adv-x="420" 
d="M142 117v97h116v-97h-116zM52 -20v100h296v-100h-296zM142 -154v96h116v-96h-116z" />
    <glyph glyph-name="equalinferior" horiz-adv-x="420" 
d="M52 56v100h296v-100h-296zM52 -96v100h296v-100h-296z" />
    <glyph glyph-name="Euroinferior" horiz-adv-x="471" 
d="M294 22v-69h-81q13 -35 47 -35q36 0 55 37l102 -37q-21 -45 -62 -70t-95 -25q-141 0 -173 130h-53v69h44v8v8h-44v69h53q32 130 173 130q54 0 95 -25t62 -70l-102 -37q-19 37 -55 37q-34 0 -47 -35h81v-69h-92v-8v-8h92z" />
    <glyph glyph-name="comma.numr" horiz-adv-x="210" 
d="M14 225l36 170h118l-74 -170h-80z" />
    <glyph glyph-name="period.numr" horiz-adv-x="230" 
d="M48 300v96h114v-96h-114z" />
    <glyph glyph-name="parenleft.numr" horiz-adv-x="281" 
d="M160 211q-59 58 -92.5 136t-33.5 153t33 152.5t94 135.5l94 -60q-101 -105 -101 -228q0 -120 101 -229z" />
    <glyph glyph-name="parenright.numr" horiz-adv-x="281" 
d="M101 788q60 -58 93 -136t33 -152q0 -75 -33 -153t-94 -136l-94 60q101 104 101 229q0 119 -100 228z" />
    <glyph glyph-name="plus.numr" horiz-adv-x="420" 
d="M52 450v100h96v89h104v-89h96v-100h-96v-90h-104v90h-96z" />
    <glyph glyph-name="minus.numr" horiz-adv-x="420" 
d="M52 450v100h296v-100h-296z" />
    <glyph glyph-name="multiply.numr" horiz-adv-x="420" 
d="M131 365l-74 72l65 60l-68 63l79 77l70 -65l67 62l74 -72l-65 -60l67 -62l-79 -78l-69 65z" />
    <glyph glyph-name="divide.numr" horiz-adv-x="420" 
d="M142 587v97h116v-97h-116zM52 450v100h296v-100h-296zM142 316v96h116v-96h-116z" />
    <glyph glyph-name="equal.numr" horiz-adv-x="420" 
d="M52 526v100h296v-100h-296zM52 374v100h296v-100h-296z" />
    <glyph glyph-name="Euro.numr" horiz-adv-x="471" 
d="M294 492v-69h-81q13 -35 47 -35q36 0 55 37l102 -37q-21 -45 -62 -70t-95 -25q-141 0 -173 130h-53v69h44v8v8h-44v69h53q32 130 173 130q54 0 95 -25t62 -70l-102 -37q-19 37 -55 37q-34 0 -47 -35h81v-69h-92v-8v-8h92z" />
    <glyph glyph-name="dollar.numr" horiz-adv-x="396" 
d="M362 418q0 -36 -26.5 -68.5t-76.5 -46.5v-70h-121v67q-83 19 -116 107l101 42q10 -26 30.5 -40.5t44.5 -14.5q37 0 37 22q0 9 -8 16t-32 18l-66 29q-37 16 -56.5 40t-19.5 66t22 71.5t63 41.5v69h121v-68q51 -13 72 -59l-93 -49q-10 21 -35 21q-22 0 -22 -13
q0 -10 20 -19l66 -32q51 -25 73 -54t22 -76z" />
    <glyph glyph-name="cent.numr" horiz-adv-x="403" 
d="M256 241h-112v63q-50 15 -79 52t-29 87t29 87t79 52v63h112v-61q67 -18 98 -77l-108 -42q-10 31 -42 31q-21 0 -35.5 -14.5t-14.5 -38.5t14.5 -38.5t35.5 -14.5q32 0 42 31l108 -42q-31 -59 -98 -77v-61z" />
    <glyph glyph-name="zero.numr" horiz-adv-x="447" 
d="M214 293q-85 0 -131 55.5t-46 151.5t46 151.5t131 55.5q84 0 130.5 -56t46.5 -151t-46.5 -151t-130.5 -56zM214 396q53 0 53 104t-53 104t-53 -104t53 -104z" />
    <glyph glyph-name="one.numr" horiz-adv-x="282" 
d="M99 300v279l-78 -43v109l90 55h112v-400h-124z" />
    <glyph glyph-name="two.numr" horiz-adv-x="401" 
d="M28 300v96l133 101q18 14 24.5 19t17.5 15t14.5 17t3.5 14q0 15 -10 24t-26 9q-30 0 -38 -43l-108 30q11 53 48.5 89t108.5 36q67 0 108 -36t41 -89q0 -42 -13 -68.5t-45 -51.5l-82 -65h143v-97h-320z" />
    <glyph glyph-name="three.numr" horiz-adv-x="402" 
d="M181 293q-133 0 -164 104l112 39q4 -14 17.5 -25.5t30.5 -11.5q22 0 34.5 10t12.5 25q0 11 -10 22.5t-33 14.5l-64 8v72l64 52h-136v97h282v-91l-79 -60q45 -9 72.5 -38.5t27.5 -70.5q0 -70 -45.5 -108.5t-121.5 -38.5z" />
    <glyph glyph-name="four.numr" horiz-adv-x="418" 
d="M318 700v-245h59v-93h-59v-62h-124v62h-168v89l177 249h115zM126 455h68v88z" />
    <glyph glyph-name="five.numr" horiz-adv-x="412" 
d="M333 700v-104h-174l-9 -39q32 17 74 17q66 0 106 -39.5t40 -100.5q0 -60 -50 -100t-124 -40q-134 0 -165 99l107 36q17 -31 58 -31q23 0 36.5 11t13.5 30q0 18 -13.5 28.5t-36.5 10.5q-38 0 -55 -25l-102 13l26 234h268z" />
    <glyph glyph-name="six.numr" horiz-adv-x="407" 
d="M356 441q0 -65 -46 -106.5t-115 -41.5q-66 0 -113.5 39.5t-47.5 101.5q0 45 24 82l114 184h142l-100 -126q5 1 14 1q56 0 92 -38.5t36 -95.5zM195 391q17 0 27 13.5t10 33.5t-10 33t-27 13t-27 -13t-10 -33t10 -33.5t27 -13.5z" />
    <glyph glyph-name="seven.numr" horiz-adv-x="355" 
d="M313 700v-90l-151 -310h-132l154 303h-152v97h281z" />
    <glyph glyph-name="eight.numr" horiz-adv-x="397" 
d="M26 430q0 34 19 59.5t42 35.5q-13 7 -25 26t-12 40q0 53 40 84.5t98 31.5q61 0 99.5 -28t38.5 -86q0 -19 -10 -38.5t-27 -29.5q63 -33 63 -95q0 -57 -46 -97t-118 -40t-117 38t-45 99zM188 616q-12 0 -19 -7t-7 -17q0 -11 7 -18t19 -7t19 7t7 18q0 10 -7 17t-19 7z
M188 468q-18 0 -28.5 -11t-10.5 -28t10.5 -28t28.5 -11t28.5 11t10.5 28t-10.5 28t-28.5 11z" />
    <glyph glyph-name="nine.numr" horiz-adv-x="407" 
d="M31 560q0 65 46 106.5t115 41.5q66 0 113.5 -39.5t47.5 -101.5q0 -45 -24 -82l-114 -184h-142l100 126q-5 -1 -14 -1q-56 0 -92 38.5t-36 95.5zM192 610q-17 0 -27 -13.5t-10 -33.5t10 -33t27 -13t27 13t10 33t-10 33.5t-27 13.5z" />
    <glyph glyph-name="comma.dnom" horiz-adv-x="210" 
d="M14 -75l36 170h118l-74 -170h-80z" />
    <glyph glyph-name="period.dnom" horiz-adv-x="230" 
d="M48 0v96h114v-96h-114z" />
    <glyph glyph-name="parenleft.dnom" horiz-adv-x="281" 
d="M160 -89q-59 58 -92.5 136t-33.5 153t33 152.5t94 135.5l94 -60q-101 -105 -101 -228q0 -120 101 -229z" />
    <glyph glyph-name="parenright.dnom" horiz-adv-x="281" 
d="M101 488q60 -58 93 -136t33 -152q0 -75 -33 -153t-94 -136l-94 60q101 104 101 229q0 119 -100 228z" />
    <glyph glyph-name="plus.dnom" horiz-adv-x="420" 
d="M52 150v100h96v89h104v-89h96v-100h-96v-90h-104v90h-96z" />
    <glyph glyph-name="minus.dnom" horiz-adv-x="420" 
d="M52 150v100h296v-100h-296z" />
    <glyph glyph-name="multiply.dnom" horiz-adv-x="420" 
d="M131 65l-74 72l65 60l-68 63l79 77l70 -65l67 62l74 -72l-65 -60l67 -62l-79 -78l-69 65z" />
    <glyph glyph-name="divide.dnom" horiz-adv-x="420" 
d="M142 287v97h116v-97h-116zM52 150v100h296v-100h-296zM142 16v96h116v-96h-116z" />
    <glyph glyph-name="equal.dnom" horiz-adv-x="420" 
d="M52 226v100h296v-100h-296zM52 74v100h296v-100h-296z" />
    <glyph glyph-name="Euro.dnom" horiz-adv-x="471" 
d="M294 192v-69h-81q13 -35 47 -35q36 0 55 37l102 -37q-21 -45 -62 -70t-95 -25q-141 0 -173 130h-53v69h44v8v8h-44v69h53q32 130 173 130q54 0 95 -25t62 -70l-102 -37q-19 37 -55 37q-34 0 -47 -35h81v-69h-92v-8v-8h92z" />
    <glyph glyph-name="dollar.dnom" horiz-adv-x="396" 
d="M362 118q0 -36 -26.5 -68.5t-76.5 -46.5v-70h-121v67q-83 19 -116 107l101 42q10 -26 30.5 -40.5t44.5 -14.5q37 0 37 22q0 9 -8 16t-32 18l-66 29q-37 16 -56.5 40t-19.5 66t22 71.5t63 41.5v69h121v-68q51 -13 72 -59l-93 -49q-10 21 -35 21q-22 0 -22 -13
q0 -10 20 -19l66 -32q51 -25 73 -54t22 -76z" />
    <glyph glyph-name="cent.dnom" horiz-adv-x="403" 
d="M256 -59h-112v63q-50 15 -79 52t-29 87t29 87t79 52v63h112v-61q67 -18 98 -77l-108 -42q-10 31 -42 31q-21 0 -35.5 -14.5t-14.5 -38.5t14.5 -38.5t35.5 -14.5q32 0 42 31l108 -42q-31 -59 -98 -77v-61z" />
    <glyph glyph-name="zero.dnom" horiz-adv-x="447" 
d="M214 -7q-85 0 -131 55.5t-46 151.5t46 151.5t131 55.5q84 0 130.5 -56t46.5 -151t-46.5 -151t-130.5 -56zM214 96q53 0 53 104t-53 104t-53 -104t53 -104z" />
    <glyph glyph-name="one.dnom" horiz-adv-x="282" 
d="M99 0v279l-78 -43v109l90 55h112v-400h-124z" />
    <glyph glyph-name="two.dnom" horiz-adv-x="401" 
d="M28 0v96l133 101q18 14 24.5 19t17.5 15t14.5 17t3.5 14q0 15 -10 24t-26 9q-30 0 -38 -43l-108 30q11 53 48.5 89t108.5 36q67 0 108 -36t41 -89q0 -42 -13 -68.5t-45 -51.5l-82 -65h143v-97h-320z" />
    <glyph glyph-name="three.dnom" horiz-adv-x="402" 
d="M181 -7q-133 0 -164 104l112 39q4 -14 17.5 -25.5t30.5 -11.5q22 0 34.5 10t12.5 25q0 11 -10 22.5t-33 14.5l-64 8v72l64 52h-136v97h282v-91l-79 -60q45 -9 72.5 -38.5t27.5 -70.5q0 -70 -45.5 -108.5t-121.5 -38.5z" />
    <glyph glyph-name="four.dnom" horiz-adv-x="418" 
d="M318 400v-245h59v-93h-59v-62h-124v62h-168v89l177 249h115zM126 155h68v88z" />
    <glyph glyph-name="five.dnom" horiz-adv-x="412" 
d="M333 400v-104h-174l-9 -39q32 17 74 17q66 0 106 -39.5t40 -100.5q0 -60 -50 -100t-124 -40q-134 0 -165 99l107 36q17 -31 58 -31q23 0 36.5 11t13.5 30q0 18 -13.5 28.5t-36.5 10.5q-38 0 -55 -25l-102 13l26 234h268z" />
    <glyph glyph-name="six.dnom" horiz-adv-x="407" 
d="M356 141q0 -65 -46 -106.5t-115 -41.5q-66 0 -113.5 39.5t-47.5 101.5q0 45 24 82l114 184h142l-100 -126q5 1 14 1q56 0 92 -38.5t36 -95.5zM195 91q17 0 27 13.5t10 33.5t-10 33t-27 13t-27 -13t-10 -33t10 -33.5t27 -13.5z" />
    <glyph glyph-name="seven.dnom" horiz-adv-x="355" 
d="M313 400v-90l-151 -310h-132l154 303h-152v97h281z" />
    <glyph glyph-name="eight.dnom" horiz-adv-x="397" 
d="M26 130q0 34 19 59.5t42 35.5q-13 7 -25 26t-12 40q0 53 40 84.5t98 31.5q61 0 99.5 -28t38.5 -86q0 -19 -10 -38.5t-27 -29.5q63 -33 63 -95q0 -57 -46 -97t-118 -40t-117 38t-45 99zM188 316q-12 0 -19 -7t-7 -17q0 -11 7 -18t19 -7t19 7t7 18q0 10 -7 17t-19 7z
M188 168q-18 0 -28.5 -11t-10.5 -28t10.5 -28t28.5 -11t28.5 11t10.5 28t-10.5 28t-28.5 11z" />
    <glyph glyph-name="nine.dnom" horiz-adv-x="407" 
d="M31 260q0 65 46 106.5t115 41.5q66 0 113.5 -39.5t47.5 -101.5q0 -45 -24 -82l-114 -184h-142l100 126q-5 -1 -14 -1q-56 0 -92 38.5t-36 95.5zM192 310q-17 0 -27 -13.5t-10 -33.5t10 -33t27 -13t27 13t10 33t-10 33.5t-27 13.5z" />
    <glyph glyph-name="ampersand.small" horiz-adv-x="640" 
d="M274 -10q-107 0 -172 48.5t-65 134.5q0 111 108 168q-17 11 -28 20.5t-22 31.5t-11 51q0 56 51.5 96t127.5 40q77 0 128.5 -41.5t51.5 -103.5q0 -86 -87 -138l50 -48q0 7 -2 22t-2 20h150q20 -103 -24 -176l108 -115h-182l-29 26q-87 -36 -151 -36zM263 400q18 0 30 10
t12 24t-12.5 25t-29.5 11t-29 -11t-12 -25t12 -24t29 -10zM274 126q30 0 50 4l-107 100q-18 -25 -18 -42q0 -28 21.5 -45t53.5 -17z" />
    <glyph glyph-name="c_t" horiz-adv-x="973" 
d="M393 197l162 -64q-27 -63 -94 -104t-152 -41q-116 0 -192.5 72t-76.5 190t79 190t195 72q40 0 65 -10q-14 29 -14 68q0 86 62.5 138t157.5 52q121 0 194 -61.5t73 -173.5v-25h101v-128h-101v-372h-176v372h-77v128h77v25q0 41 -23.5 65.5t-67.5 24.5q-91 0 -91 -90
q0 -10 1 -19.5t4 -20.5t4.5 -17.5t7 -19.5t7 -16.5t8.5 -18.5t8 -17q3 -7 8 -16.5t7 -14.5l-161 -66q-19 61 -79 61q-41 0 -67 -30.5t-26 -79.5q0 -48 28.5 -79t69.5 -31q28 0 49.5 17t29.5 40z" />
    <glyph glyph-name="s_p" horiz-adv-x="1121" 
d="M381 525q0 -47 16 -83q4 -9 11 -23l-123 -64q-17 36 -46 36q-27 0 -27 -20q0 -16 23 -25l68 -25q65 -24 100 -63.5t35 -107.5q0 -72 -56 -117t-151 -45q-84 0 -137.5 35.5t-73.5 96.5l131 60q29 -60 85 -60q42 0 42 26q0 23 -52 42l-61 22q-115 41 -115 155q0 65 52 106
t131 41q22 0 37 -7q-18 30 -18 70q0 87 56 136t145 49q116 0 182.5 -58t66.5 -177v-73q23 25 62.5 42.5t86.5 17.5q94 0 162 -69t68 -193q0 -69 -22.5 -122t-59 -82t-77 -43.5t-81.5 -14.5q-95 0 -139 52v-240h-176v725q0 90 -73 90q-34 0 -53 -24.5t-19 -65.5zM803 140
q44 0 73 29.5t29 80.5t-29 80.5t-73 29.5q-43 0 -72 -29.5t-29 -80.5t29 -80.5t72 -29.5z" />
    <glyph glyph-name="T_h" horiz-adv-x="1100" 
d="M10 700h725v-234q49 46 148 46q70 0 117.5 -47t47.5 -139v-326h-176v289q0 32 -18 50t-48 18q-29 0 -50 -23.5t-21 -68.5v-265h-176v536h-183v-536h-193v536h-173v164z" />
    </font>
</defs>
</svg>
